<svg width="24" height="24" viewBox="0 0 24 24" fill="none" xmlns="http://www.w3.org/2000/svg">
<path fill-rule="evenodd" clip-rule="evenodd" d="M12.4635 8.28455L12.5058 8.9812L11.8016 8.89589C9.23859 8.5689 6.99946 7.45995 5.09831 5.59748L4.16886 4.67336L3.92945 5.35579C3.42248 6.87704 3.74638 8.48359 4.80257 9.5641C5.36588 10.1612 5.23913 10.2465 4.26743 9.8911C3.92945 9.77736 3.63372 9.69206 3.60555 9.73471C3.50697 9.83423 3.84496 11.128 4.11253 11.6398C4.47867 12.3507 5.22505 13.0473 6.04184 13.4596L6.73189 13.7866L5.9151 13.8009C5.12647 13.8009 5.09831 13.8151 5.1828 14.1136C5.46445 15.0378 6.57698 16.0187 7.81625 16.4453L8.68937 16.7438L7.92891 17.1988C6.8023 17.8528 5.47854 18.2224 4.15477 18.2509C3.52106 18.2651 3 18.3219 3 18.3646C3 18.5068 4.71808 19.3029 5.71794 19.6157C8.71754 20.5398 12.2804 20.1418 14.9561 18.5636C16.8573 17.4405 18.7584 15.2084 19.6456 13.0473C20.1244 11.8957 20.6032 9.79158 20.6032 8.78215C20.6032 8.12816 20.6455 8.04286 21.4341 7.26091C21.8988 6.80595 22.3354 6.30835 22.4199 6.16618C22.5607 5.89605 22.5466 5.89605 21.8284 6.13774C20.6314 6.56426 20.4624 6.50739 21.0539 5.86761C21.4905 5.41266 22.0115 4.58806 22.0115 4.34636C22.0115 4.30371 21.8003 4.3748 21.5609 4.50275C21.3074 4.64493 20.7441 4.85819 20.3216 4.98614L19.5611 5.22784L18.8711 4.75867C18.4909 4.50275 17.9557 4.21841 17.6741 4.13311C16.9559 3.93406 15.8574 3.9625 15.2096 4.18997C13.4493 4.82975 12.3368 6.47896 12.4635 8.28455Z" />
</svg>
