<svg width="305" height="251" viewBox="0 0 305 251" fill="none" xmlns="http://www.w3.org/2000/svg">
<g opacity="0.3">
<path d="M167.435 127.612C164.985 131.582 156.295 133.832 148.005 132.622C139.725 131.412 134.995 127.212 137.435 123.242C139.885 119.272 148.585 117.022 156.865 118.232C165.145 119.442 169.875 123.642 167.435 127.612Z" stroke="#1646D0" stroke-miterlimit="10"/>
<path d="M146.265 137.692C141.415 135.112 140.235 127.542 143.645 120.762C147.055 113.992 153.745 110.582 158.605 113.162C163.455 115.742 164.635 123.312 161.225 130.092C157.815 136.862 151.125 140.272 146.265 137.692Z" stroke="#1646D0" stroke-miterlimit="10"/>
<path d="M169.647 129.209C170.718 124.36 163.878 118.728 154.37 116.629C144.862 114.53 136.287 116.759 135.216 121.607C134.146 126.455 140.986 132.087 150.494 134.187C160.002 136.286 168.577 134.057 169.647 129.209Z" stroke="#1646D0" stroke-miterlimit="10"/>
<path d="M159.806 133.189C166.676 126.619 168.937 117.835 164.856 113.568C160.776 109.301 151.899 111.168 145.03 117.737C138.161 124.306 135.9 133.09 139.98 137.357C144.06 141.624 152.937 139.758 159.806 133.189Z" stroke="#1646D0" stroke-miterlimit="10"/>
<path d="M165.844 137.432C159.184 140.272 147.774 137.192 140.374 130.562C132.974 123.932 132.364 116.262 139.034 113.422C145.694 110.582 157.104 113.662 164.504 120.292C171.904 126.922 172.514 134.592 165.844 137.432Z" stroke="#1646D0" stroke-miterlimit="10"/>
<path d="M157.931 135.632C168.314 129.951 174.243 120.8 171.176 115.195C168.108 109.59 157.205 109.652 146.822 115.333C136.44 121.015 130.51 130.165 133.578 135.771C136.645 141.376 147.549 141.314 157.931 135.632Z" stroke="#1646D0" stroke-miterlimit="10"/>
<path d="M167.648 139.605C172.859 134.006 170.269 123.125 161.864 115.303C153.458 107.481 142.42 105.68 137.209 111.28C131.998 116.879 134.588 127.76 142.994 135.582C151.399 143.403 162.437 145.205 167.648 139.605Z" stroke="#1646D0" stroke-miterlimit="10"/>
<path d="M155.923 137.789C169.753 133.844 179.389 125.122 177.445 118.308C175.502 111.494 162.715 109.168 148.885 113.113C135.055 117.058 125.419 125.779 127.363 132.593C129.307 139.408 142.093 141.734 155.923 137.789Z" stroke="#1646D0" stroke-miterlimit="10"/>
<path d="M160.499 146.511C169.368 143.11 172.942 130.922 168.481 119.288C164.02 107.655 153.213 100.981 144.344 104.382C135.474 107.783 131.901 119.971 136.362 131.605C140.823 143.238 151.629 149.912 160.499 146.511Z" stroke="#1646D0" stroke-miterlimit="10"/>
<path d="M153.435 140.088C170.339 138.912 183.585 131.402 183.022 123.314C182.46 115.226 168.301 109.623 151.398 110.799C134.494 111.975 121.248 119.485 121.81 127.573C122.373 135.661 136.532 141.264 153.435 140.088Z" stroke="#1646D0" stroke-miterlimit="10"/>
<path d="M171.655 130.557C175.38 116.518 169.797 102.854 159.185 100.039C148.573 97.2227 136.95 106.321 133.225 120.361C129.5 134.4 135.083 148.064 145.695 150.879C156.307 153.695 167.93 144.597 171.655 130.557Z" stroke="#1646D0" stroke-miterlimit="10"/>
<path d="M187.09 130.221C188.421 120.737 173.982 110.871 154.84 108.184C135.697 105.497 119.1 111.007 117.769 120.491C116.438 129.974 130.877 139.84 150.019 142.527C169.161 145.214 185.758 139.704 187.09 130.221Z" stroke="#1646D0" stroke-miterlimit="10"/>
<path d="M168.98 139.2C180.556 125.301 182.536 107.869 173.403 100.262C164.271 92.6557 147.484 97.7567 135.908 111.655C124.333 125.553 122.353 142.986 131.485 150.592C140.618 158.199 157.405 153.098 168.98 139.2Z" stroke="#1646D0" stroke-miterlimit="10"/>
<path d="M188.614 139.185C192.775 128.282 179.952 113.263 159.973 105.637C139.994 98.0121 120.425 100.669 116.264 111.572C112.103 122.475 124.925 137.494 144.904 145.12C164.883 152.745 184.452 150.088 188.614 139.185Z" stroke="#1646D0" stroke-miterlimit="10"/>
<path d="M165.252 144.749C184.086 132.188 193.598 113.375 186.498 102.729C179.398 92.0829 158.374 93.6349 139.54 106.196C120.706 118.757 111.194 137.569 118.294 148.215C125.394 158.861 146.418 157.309 165.252 144.749Z" stroke="#1646D0" stroke-miterlimit="10"/>
<path d="M186.17 150.22C194.77 138.487 186.629 117.899 167.988 104.235C149.346 90.5714 127.262 89.0064 118.662 100.739C110.062 112.472 118.203 133.06 136.845 146.724C155.487 160.388 177.57 161.953 186.17 150.22Z" stroke="#1646D0" stroke-miterlimit="10"/>
<path d="M161.331 149.247C187.377 139.586 204.531 121.076 199.645 107.903C194.759 94.7286 169.683 91.8816 143.637 101.542C117.591 111.203 100.437 129.713 105.323 142.887C110.209 156.06 135.285 158.907 161.331 149.247Z" stroke="#1646D0" stroke-miterlimit="10"/>
<path d="M176.199 163.695C191.66 154.056 193.529 129.134 180.372 108.03C167.215 86.926 144.016 77.631 128.554 87.27C113.093 96.909 111.225 121.831 124.381 142.935C137.538 164.04 160.738 173.334 176.199 163.695Z" stroke="#1646D0" stroke-miterlimit="10"/>
<path d="M156.557 153.903C189.327 149.169 214.05 132.583 211.778 116.857C209.506 101.131 181.1 92.2196 148.331 96.9536C115.561 101.688 90.8377 118.274 93.1097 134C95.3817 149.726 123.788 158.637 156.557 153.903Z" stroke="#1646D0" stroke-miterlimit="10"/>
<path d="M191.812 127.166C193.007 99.1238 176.352 75.6408 154.611 74.7138C132.871 73.7878 114.278 95.7688 113.084 123.811C111.889 151.853 128.544 175.336 150.284 176.262C172.024 177.189 190.617 155.207 191.812 127.166Z" stroke="#1646D0" stroke-miterlimit="10"/>
<path d="M221.461 129.802C222.642 111.283 192.694 94.2989 154.57 91.8669C116.446 89.4349 84.583 102.476 83.401 120.995C82.22 139.514 112.168 156.498 150.292 158.93C188.416 161.362 220.279 148.321 221.461 129.802Z" stroke="#1646D0" stroke-miterlimit="10"/>
<path d="M189.014 148.618C207.4 119.522 205.917 85.5796 185.701 72.8046C165.486 60.0296 134.192 73.2596 115.806 102.356C97.4186 131.452 98.9016 165.395 119.118 178.17C139.334 190.945 170.627 177.714 189.014 148.618Z" stroke="#1646D0" stroke-miterlimit="10"/>
<path d="M226.734 146.912C232.939 125.417 204.704 98.3902 163.671 86.5462C122.638 74.7032 84.3447 82.5272 78.14 104.023C71.9356 125.518 100.17 152.545 141.203 164.389C182.236 176.232 220.53 168.408 226.734 146.912Z" stroke="#1646D0" stroke-miterlimit="10"/>
<path d="M181.772 161.497C215.298 134.261 229.348 96.0226 213.155 76.0906C196.962 56.1576 156.657 62.0776 123.132 89.3136C89.607 116.55 75.5558 154.787 91.749 174.72C107.942 194.653 148.247 188.732 181.772 161.497Z" stroke="#1646D0" stroke-miterlimit="10"/>
<path d="M225.118 167.89C239.092 143.976 217.88 105.576 177.739 82.1187C137.599 58.6627 93.7306 59.0337 79.7562 82.9477C65.7823 106.861 86.9946 145.262 127.135 168.718C167.276 192.174 211.144 191.803 225.118 167.89Z" stroke="#1646D0" stroke-miterlimit="10"/>
<path d="M173.758 171.361C222.242 148.835 251.995 110.018 240.213 84.6585C228.431 59.2995 179.576 57.0035 131.092 79.5295C82.6094 102.056 52.8563 140.873 64.6382 166.232C76.4201 191.591 125.275 193.887 173.758 171.361Z" stroke="#1646D0" stroke-miterlimit="10"/>
<path d="M211.751 193.638C237.993 170.842 232.725 121.807 199.983 84.1159C167.241 46.4242 119.426 34.349 93.1828 57.1449C66.9409 79.9409 72.2096 128.976 104.951 166.667C137.693 204.359 185.509 216.434 211.751 193.638Z" stroke="#1646D0" stroke-miterlimit="10"/>
<path d="M164.688 180.721C227.582 166.789 273.084 130.741 266.32 100.205C259.556 69.6693 203.087 56.2092 140.193 70.1412C77.2991 84.0732 31.7968 120.121 38.5608 150.656C45.3248 181.192 101.794 194.652 164.688 180.721Z" stroke="#1646D0" stroke-miterlimit="10"/>
<path d="M171.356 223.028C213.179 214.943 238.637 164.687 228.216 110.777C217.796 56.866 175.443 19.7169 133.62 27.8012C91.7957 35.8854 66.3388 86.142 76.7593 140.052C87.1797 193.962 129.532 231.112 171.356 223.028Z" stroke="#1646D0" stroke-miterlimit="10"/>
<path d="M153.145 190.798C228.345 189.984 288.99 160.059 288.6 123.958C288.209 87.8568 226.931 59.2518 151.73 60.0648C76.5298 60.8788 15.8847 90.8038 16.2753 126.905C16.666 163.006 77.9445 191.612 153.145 190.798Z" stroke="#1646D0" stroke-miterlimit="10"/>
<path d="M232.272 159.851C258.26 99.5638 243.584 35.2828 199.49 16.275C155.397 -2.73281 98.5855 30.7307 72.5967 91.0178C46.608 151.305 61.2846 215.586 105.377 234.594C149.47 253.602 206.283 220.138 232.272 159.851Z" stroke="#1646D0" stroke-miterlimit="10"/>
<path d="M303.261 156.229C311.857 114.051 251.302 66.0975 168.007 49.1207C84.7115 32.1438 10.2181 52.5733 1.62162 94.7515C-6.97498 136.929 53.5802 184.883 136.876 201.86C220.171 218.837 294.664 198.407 303.261 156.229Z" stroke="#1646D0" stroke-miterlimit="10"/>
<path d="M218.569 191.567C276.722 133.414 294.254 56.661 257.728 20.1357C221.202 -16.39 144.45 1.14234 86.297 59.295C28.1443 117.448 10.6119 194.201 47.1377 230.726C83.663 267.252 160.416 249.72 218.569 191.567Z" stroke="#1646D0" stroke-miterlimit="10"/>
</g>
</svg>
