<svg width="175" height="39" viewBox="0 0 175 39" fill="none" xmlns="http://www.w3.org/2000/svg">
<path d="M52.0817 31.2552C52.6209 30.716 53.268 30.4464 54.0768 30.4464C54.8587 30.4464 55.5328 30.716 56.045 31.2552C56.5843 31.7945 56.8269 32.4415 56.8269 33.2234C56.8269 34.0053 56.5573 34.6524 56.045 35.1916C55.5058 35.7309 54.8587 36.0005 54.0768 36.0005C53.295 36.0005 52.6209 35.7309 52.0817 35.1916C51.5425 34.6524 51.2998 34.0053 51.2998 33.2234C51.2998 32.4415 51.5694 31.7945 52.0817 31.2552ZM54.0768 34.9759C54.5622 34.9759 54.9396 34.8142 55.2632 34.4906C55.5867 34.1671 55.7485 33.7357 55.7485 33.2504C55.7485 32.7381 55.5867 32.3337 55.2632 32.0102C54.9396 31.6866 54.5622 31.5249 54.0768 31.5249C53.5915 31.5249 53.2141 31.6866 52.8905 32.0102C52.567 32.3337 52.4322 32.7651 52.4322 33.2504C52.4322 33.7627 52.594 34.1671 52.8905 34.4906C53.2141 34.7872 53.5915 34.9759 54.0768 34.9759Z" fill="white"/>
<path d="M60.5746 36.1083V35.5152C58.8221 35.4613 57.9863 34.3289 57.9863 33.1695C57.9863 32.5494 58.202 32.0102 58.6604 31.5518C59.1187 31.0935 59.7388 30.8508 60.5746 30.8239V30.3386H61.6801V30.8239C62.5159 30.8508 63.136 31.0935 63.5943 31.5518C64.0527 32.0102 64.2684 32.5494 64.2684 33.1695C64.2684 34.3289 63.4326 35.4343 61.6801 35.5152V36.1083H60.5746ZM60.5746 31.8214C59.6579 31.8214 59.1187 32.3607 59.1187 33.1695C59.1187 33.9514 59.6579 34.4906 60.5746 34.5176V31.8214ZM61.6801 34.5176C62.5967 34.4906 63.136 33.9784 63.136 33.1695C63.136 32.3607 62.5967 31.8214 61.6801 31.8214V34.5176Z" fill="white"/>
<path d="M64.9967 30.5542H69.4723V31.5518H67.7737V35.9196H66.6683V31.5518H64.9697V30.5542H64.9967Z" fill="white"/>
<path d="M69.5254 35.8926L71.8171 30.5273H72.8686L75.1603 35.8926H74.001L73.4618 34.6524H71.197L70.6578 35.8926H69.5254ZM71.5475 33.7357H73.1113L72.3294 31.8754L71.5475 33.7357Z" fill="white"/>
<path d="M75.9697 34.8411C76.0776 34.8681 76.2124 34.895 76.3472 34.895C76.6438 34.895 76.8325 34.7063 76.9403 34.3019C77.0482 33.9244 77.1021 33.1695 77.1291 32.0911L77.156 30.5273H80.9306V35.8657H79.8252V31.4979H78.2075L78.1806 32.5764C78.1536 33.8166 77.9918 34.6794 77.7492 35.1647C77.5065 35.65 77.0482 35.8657 76.4281 35.8657C76.2393 35.8657 76.0776 35.8387 75.9697 35.7848V34.8411Z" fill="white"/>
<path d="M82.4404 35.8926V30.5542H83.5459V32.3067H84.7322C85.3792 32.3067 85.8645 32.4685 86.242 32.819C86.6195 33.1426 86.8082 33.5739 86.8082 34.1132C86.8082 34.6524 86.6195 35.0838 86.242 35.4073C85.8645 35.7309 85.3523 35.8926 84.7322 35.8926H82.4404ZM83.5459 34.922H84.6513C85.2984 34.922 85.6758 34.6254 85.6758 34.0862C85.6758 33.547 85.2984 33.2504 84.6513 33.2504H83.5459V34.922Z" fill="white"/>
<path d="M87.9404 35.8926V30.5542H89.0459L90.6096 32.7651L92.1734 30.5542H93.2519V35.8926H92.1734V32.2259L90.9332 33.9514H90.2861L89.0459 32.2259V35.8926H87.9404Z" fill="white"/>
<path d="M95.3014 31.2552C95.8406 30.716 96.4877 30.4464 97.2966 30.4464C98.0784 30.4464 98.7525 30.716 99.2648 31.2552C99.804 31.7945 100.047 32.4415 100.047 33.2234C100.047 34.0053 99.777 34.6524 99.2648 35.1916C98.7255 35.7309 98.0784 36.0005 97.2966 36.0005C96.5147 36.0005 95.8406 35.7309 95.3014 35.1916C94.7622 34.6524 94.5195 34.0053 94.5195 33.2234C94.5195 32.4415 94.7622 31.7945 95.3014 31.2552ZM97.2696 34.9759C97.7549 34.9759 98.1324 34.8142 98.4559 34.4906C98.7794 34.1671 98.9412 33.7357 98.9412 33.2504C98.9412 32.7381 98.7794 32.3337 98.4559 32.0102C98.1324 31.6866 97.7549 31.5249 97.2696 31.5249C96.7843 31.5249 96.4068 31.6866 96.0833 32.0102C95.7598 32.3337 95.6249 32.7651 95.6249 33.2504C95.6249 33.7627 95.7867 34.1671 96.0833 34.4906C96.4068 34.7872 96.8113 34.9759 97.2696 34.9759Z" fill="white"/>
<path d="M100.801 34.8411C100.909 34.8681 101.043 34.895 101.178 34.895C101.475 34.895 101.664 34.7063 101.771 34.3019C101.879 33.9244 101.933 33.1695 101.96 32.0911L101.987 30.5273H105.762V35.8657H104.683V31.4979H103.066L103.039 32.5764C103.012 33.8166 102.85 34.6794 102.607 35.1647C102.365 35.65 101.933 35.8657 101.286 35.8657C101.097 35.8657 100.936 35.8387 100.828 35.7848V34.8411H100.801Z" fill="white"/>
<path d="M107.811 31.2552C108.35 30.716 108.997 30.4464 109.806 30.4464C110.615 30.4464 111.262 30.716 111.775 31.2552C112.314 31.7945 112.556 32.4415 112.556 33.2234C112.556 34.0053 112.287 34.6524 111.775 35.1916C111.235 35.7309 110.588 36.0005 109.806 36.0005C109.024 36.0005 108.35 35.7309 107.811 35.1916C107.272 34.6524 107.029 34.0053 107.029 33.2234C107.029 32.4415 107.272 31.7945 107.811 31.2552ZM109.806 34.9759C110.292 34.9759 110.669 34.8142 110.993 34.4906C111.316 34.1671 111.478 33.7357 111.478 33.2504C111.478 32.7381 111.316 32.3337 110.993 32.0102C110.669 31.6866 110.292 31.5249 109.806 31.5249C109.321 31.5249 108.944 31.6866 108.62 32.0102C108.296 32.3337 108.162 32.7651 108.162 33.2504C108.162 33.7627 108.323 34.1671 108.62 34.4906C108.917 34.7872 109.321 34.9759 109.806 34.9759Z" fill="white"/>
<path d="M113.851 35.8926V30.5542H117.706V31.5518H114.956V35.9196H113.851V35.8926Z" fill="white"/>
<path d="M118.865 35.8926V30.5542H119.944V35.8926H118.865Z" fill="white"/>
<path d="M124.42 35.8926V33.8166C124.042 33.9514 123.638 34.0053 123.206 34.0053C121.939 34.0053 121.238 33.4122 121.238 32.2528V30.5542H122.344V32.0911C122.344 32.7651 122.694 33.0077 123.368 33.0077C123.773 33.0077 124.123 32.9269 124.42 32.7921V30.5812H125.498V35.9196H124.42V35.8926Z" fill="white"/>
<path d="M127.062 35.8926V30.5542H128.167V32.5494H130.567V30.5542H131.672V35.8926H130.567V33.547H128.167V35.8926H127.062Z" fill="white"/>
<path d="M133.182 35.8926V30.5542H134.287V34.0323L136.875 30.5542H137.819V35.8926H136.741V32.3876L134.125 35.8926H133.182Z" fill="white"/>
<path d="M139.356 35.8926V30.5542H140.462V34.0323L143.05 30.5542H143.994V35.8926H142.915V32.3876L140.3 35.8926H139.356ZM141.082 28.9635C141.082 29.2871 141.298 29.5297 141.675 29.5297C142.026 29.5297 142.268 29.314 142.268 28.9635H143.077C143.077 29.7724 142.484 30.2577 141.675 30.2577C140.866 30.2577 140.273 29.7454 140.273 28.9635H141.082Z" fill="white"/>
<path d="M151.974 36.9711V35.8657H147.822V30.5273H148.928V34.895H151.165V30.5273H152.271V34.895H152.999V36.9711H151.974Z" fill="white"/>
<path d="M154.158 35.8926V30.5542H158.095V31.5518H155.264V32.5764H157.528V33.547H155.264V34.922H158.175V35.9196H154.158V35.8926Z" fill="white"/>
<path d="M159.416 35.8926V30.5542H160.521V32.5494H162.948V30.5542H164.026V35.8926H162.948V33.547H160.521V35.8926H159.416Z" fill="white"/>
<path d="M165.158 30.5542H169.634V31.5518H167.935V35.9196H166.857V31.5518H165.158V30.5542Z" fill="white"/>
<path d="M170.767 35.8926V30.5542H173.112C173.678 30.5542 174.137 30.716 174.46 31.0126C174.784 31.3092 174.973 31.6866 174.973 32.1719C174.973 32.6572 174.811 33.0347 174.46 33.3313C174.137 33.6279 173.678 33.7896 173.112 33.7896H171.872V35.8926H170.767ZM171.872 32.846H173.031C173.571 32.846 173.867 32.6033 173.867 32.1719C173.867 31.7406 173.544 31.4979 173.031 31.4979H171.872V32.846Z" fill="white"/>
<path d="M36.3634 35.8657C28.3289 35.4882 20.8066 31.8484 14.7942 25.5124C16.4658 26.1056 18.2183 26.4291 19.9708 26.4291C30.5128 26.4291 39.0865 15.3479 39.0865 1.70541V0.35733H12.6642C14.7672 1.05833 16.8163 1.94806 18.8115 3.05348H36.3365C36.0938 8.55363 34.3413 13.4876 31.6182 17.1813C24.2577 6.50456 13.6349 0.384292 2.1762 0.384292H0.828125V26.8605C1.52912 24.7845 2.41886 22.8432 3.52428 21.0368V3.13437C11.5319 3.51183 19.0541 7.15163 25.0935 13.4606C23.4219 12.8675 21.6963 12.5439 19.9438 12.5439C9.40189 12.5439 0.828125 23.6251 0.828125 37.2677V38.6157H27.3043C25.1744 37.9147 23.0983 37.025 21.1032 35.9196H3.5782C3.82085 30.4194 5.57335 25.4855 8.29647 21.7917C11.6127 26.6179 15.7109 30.6351 20.2674 33.493C25.7136 36.8902 31.5643 38.6157 37.7115 38.6157H39.0596V12.1395C38.3586 14.2156 37.4688 16.1568 36.3634 17.9632V35.8657ZM10.1838 19.5C12.9339 16.8039 16.304 15.2131 19.9438 15.2131C23.4758 15.2131 26.873 16.723 29.7039 19.5C26.9538 22.1962 23.5837 23.7869 19.9438 23.7869C16.3849 23.7869 13.0147 22.304 10.1838 19.5ZM22.64 19.5C22.64 18.0171 21.4267 16.8039 19.9438 16.8039C18.461 16.8039 17.2477 18.0171 17.2477 19.5C17.2477 20.9829 18.461 22.1962 19.9438 22.1962C21.4267 22.1962 22.64 20.9829 22.64 19.5Z" fill="white"/>
<path d="M36.3634 35.8657C28.3289 35.4882 20.8066 31.8484 14.7942 25.5124C16.4658 26.1056 18.2183 26.4291 19.9708 26.4291C30.5128 26.4291 39.0865 15.3479 39.0865 1.70541V0.35733H12.6642C14.7672 1.05833 16.8163 1.94806 18.8115 3.05348H36.3365C36.0938 8.55363 34.3413 13.4876 31.6182 17.1813C24.2577 6.50456 13.6349 0.384292 2.1762 0.384292H0.828125V26.8605C1.52912 24.7845 2.41886 22.8432 3.52428 21.0368V3.13437C11.5319 3.51183 19.0541 7.15163 25.0935 13.4606C23.4219 12.8675 21.6963 12.5439 19.9438 12.5439C9.40189 12.5439 0.828125 23.6251 0.828125 37.2677V38.6157H27.3043C25.1744 37.9147 23.0983 37.025 21.1032 35.9196H3.5782C3.82085 30.4194 5.57335 25.4855 8.29647 21.7917C11.6127 26.6179 15.7109 30.6351 20.2674 33.493C25.7136 36.8902 31.5643 38.6157 37.7115 38.6157H39.0596V12.1395C38.3586 14.2156 37.4688 16.1568 36.3634 17.9632V35.8657ZM10.1838 19.5C12.9339 16.8039 16.304 15.2131 19.9438 15.2131C23.4758 15.2131 26.873 16.723 29.7039 19.5C26.9538 22.1962 23.5837 23.7869 19.9438 23.7869C16.3849 23.7869 13.0147 22.304 10.1838 19.5ZM22.64 19.5C22.64 18.0171 21.4267 16.8039 19.9438 16.8039C18.461 16.8039 17.2477 18.0171 17.2477 19.5C17.2477 20.9829 18.461 22.1962 19.9438 22.1962C21.4267 22.1962 22.64 20.9829 22.64 19.5Z" fill="white"/>
<path d="M51.4619 24.6766H65.5089V20.875H55.2365V15.7793H63.4328V11.9777H55.2365V6.88202H65.5089V3.08044H51.4619V24.6766ZM96.946 6.20798C98.8872 6.20798 100.586 6.85505 101.988 8.12225L104.684 5.42609C102.527 3.43094 99.9118 2.4064 96.946 2.4064C93.7915 2.4064 91.0414 3.53879 88.8036 5.74963C86.5658 7.98744 85.4334 10.7106 85.4334 13.8651C85.4334 17.0195 86.5658 19.7696 88.8036 21.9805C91.0414 24.2183 93.7646 25.3507 96.946 25.3507C99.9118 25.3507 102.527 24.3261 104.684 22.331L101.988 19.6348C100.559 20.902 98.8603 21.5491 96.946 21.5491C94.843 21.5491 93.0096 20.7942 91.4998 19.2843C90.0169 17.8014 89.235 15.9681 89.235 13.8381C89.235 11.7351 89.9899 9.92867 91.4998 8.41882C92.9827 6.9629 94.8161 6.20798 96.946 6.20798ZM107.812 24.6766H111.586V3.1074H107.812V24.6766ZM172.546 5.53394C170.928 3.91625 168.933 3.08044 166.615 3.08044H158.904V24.6497H162.705V19.8775H166.588C168.906 19.8775 170.901 19.0417 172.519 17.424C174.137 15.8063 174.973 13.7842 174.973 11.4924C175 9.17375 174.164 7.17859 172.546 5.53394ZM169.85 14.7278C168.96 15.6176 167.855 16.0759 166.588 16.0759H162.678V6.88202H166.588C167.855 6.88202 168.933 7.34036 169.85 8.23009C170.74 9.11982 171.198 10.2252 171.198 11.4924C171.198 12.7327 170.74 13.8381 169.85 14.7278ZM126.253 13.5685L118.434 3.08044H115.469V24.6497H119.27V10.4949L125.444 18.772H127.143L133.29 10.5488V24.6497H137.092V3.08044H134.153L126.253 13.5685ZM140.866 24.6766H154.913V20.875H144.641V15.7793H152.837V11.9777H144.641V6.88202H154.913V3.08044H140.866V24.6766ZM85.6222 3.08044H80.9039L73.2738 13.5415V3.08044H69.4722V24.6497H73.2738V14.1886L80.9039 24.6497H85.5952L77.7224 13.8651L85.6222 3.08044Z" fill="white"/>
</svg>
