<svg viewBox="0 0 13 11" fill="none" xmlns="http://www.w3.org/2000/svg">
<path d="M7.28129 10.5626C7.20667 10.4879 7.16476 10.3867 7.16476 10.2811C7.16476 10.1755 7.20667 10.0742 7.28129 9.99952L11.3819 5.89826L0.656598 5.89826C0.550925 5.89826 0.449581 5.85629 0.37486 5.78157C0.300138 5.70684 0.25816 5.6055 0.25816 5.49983C0.25816 5.39415 0.300138 5.29281 0.37486 5.21809C0.449581 5.14337 0.550925 5.10139 0.656598 5.10139L11.3819 5.10139L7.28129 1.00014C7.21091 0.924609 7.17259 0.824709 7.17441 0.721487C7.17623 0.618264 7.21805 0.519778 7.29105 0.446778C7.36405 0.373777 7.46254 0.331961 7.56576 0.33014C7.66898 0.328319 7.76888 0.366634 7.84441 0.437014L12.6257 5.21827C12.7003 5.29297 12.7422 5.39424 12.7422 5.49983C12.7422 5.60541 12.7003 5.70668 12.6257 5.78139L7.84441 10.5626C7.7697 10.6373 7.66844 10.6792 7.56285 10.6792C7.45726 10.6792 7.35599 10.6373 7.28129 10.5626Z" fill="#0E0F0F"/>
</svg>
