<svg viewBox="0 0 26 30" fill="none" xmlns="http://www.w3.org/2000/svg">
<path d="M1.08745 16.8375C1.26323 16.6619 1.50151 16.5633 1.74995 16.5633C1.99839 16.5633 2.23667 16.6619 2.41245 16.8375L12.0624 26.4859L12.0625 1.25C12.0625 1.00135 12.1612 0.762896 12.337 0.587081C12.5129 0.411265 12.7513 0.312495 13 0.312495C13.2486 0.312495 13.487 0.411265 13.6629 0.587081C13.8387 0.762897 13.9375 1.00135 13.9375 1.25L13.9374 26.4859L23.5874 16.8375C23.7652 16.6719 24.0002 16.5817 24.2431 16.586C24.486 16.5903 24.7177 16.6887 24.8895 16.8605C25.0612 17.0322 25.1596 17.264 25.1639 17.5068C25.1682 17.7497 25.078 17.9848 24.9124 18.1625L13.6624 29.4125C13.4867 29.5881 13.2484 29.6867 12.9999 29.6867C12.7515 29.6867 12.5132 29.5881 12.3374 29.4125L1.08745 18.1625C0.911885 17.9867 0.813275 17.7484 0.813275 17.5C0.813275 17.2516 0.911885 17.0133 1.08745 16.8375Z" fill="#195FD4"/>
</svg>
