<svg viewBox="0 0 13 11" fill="none" xmlns="http://www.w3.org/2000/svg">
<path d="M7.28129 10.5629C7.20667 10.4882 7.16476 10.3869 7.16476 10.2813C7.16476 10.1757 7.20667 10.0745 7.28129 9.99976L11.3819 5.89851L0.656598 5.89851C0.550925 5.89851 0.449581 5.85653 0.37486 5.78181C0.300138 5.70709 0.25816 5.60574 0.25816 5.50007C0.25816 5.3944 0.300138 5.29305 0.37486 5.21833C0.449581 5.14361 0.550925 5.10163 0.656598 5.10163L11.3819 5.10163L7.28129 1.00038C7.21091 0.924853 7.17259 0.824953 7.17441 0.721731C7.17623 0.618508 7.21805 0.520022 7.29105 0.447022C7.36405 0.374021 7.46254 0.332205 7.56576 0.330384C7.66898 0.328563 7.76888 0.366878 7.84441 0.437258L12.6257 5.21851C12.7003 5.29322 12.7422 5.39449 12.7422 5.50007C12.7422 5.60566 12.7003 5.70693 12.6257 5.78163L7.84441 10.5629C7.7697 10.6375 7.66844 10.6794 7.56285 10.6794C7.45726 10.6794 7.35599 10.6375 7.28129 10.5629Z" fill="white"/>
</svg>
