<svg viewBox="0 0 11 13" fill="none" xmlns="http://www.w3.org/2000/svg">
<path d="M0.437359 7.28104C0.512066 7.20643 0.613336 7.16452 0.718922 7.16452C0.824508 7.16452 0.925778 7.20643 1.00048 7.28104L5.10174 11.3816L5.10174 0.656353C5.10174 0.550681 5.14371 0.449337 5.21844 0.374615C5.29316 0.299894 5.3945 0.257916 5.50017 0.257916C5.60585 0.257916 5.70719 0.299894 5.78191 0.374615C5.85663 0.449337 5.89861 0.550681 5.89861 0.656354L5.89861 11.3816L9.99986 7.28104C10.0754 7.21066 10.1753 7.17235 10.2785 7.17417C10.3817 7.17599 10.4802 7.21781 10.5532 7.29081C10.6262 7.36381 10.668 7.46229 10.6699 7.56552C10.6717 7.66874 10.6334 7.76864 10.563 7.84417L5.78173 12.6254C5.70703 12.7 5.60576 12.7419 5.50017 12.7419C5.39459 12.7419 5.29332 12.7 5.21861 12.6254L0.437359 7.84417C0.362745 7.76946 0.320835 7.66819 0.320835 7.5626C0.320835 7.45702 0.362745 7.35575 0.437359 7.28104Z" fill="white"/>
</svg>
