<svg width="443" height="355" viewBox="0 0 443 355" fill="none" xmlns="http://www.w3.org/2000/svg">
<path d="M4.75293 226.957L22.3062 241.677L18.1526 218.852L0.859222 206.672L4.75293 226.957ZM12.3184 246.242L30.1824 262.911L22.4901 242.59L5.17465 228.072L12.3184 246.242ZM23.0006 263.216L40.9091 280.874L30.6707 264.162L13.5137 248.156L23.0006 263.216ZM73.33 311.34L107.577 326.321L92.9919 314.547L58.6177 299.786L73.33 311.34ZM146.686 344.387L169.854 347.378L153.779 341.233L129.906 338.152L146.686 344.387ZM211.063 353.543L224.867 347.916L207.522 346.4L192.738 352.033L211.063 353.543ZM230.854 352.734L243.374 347.363L226.15 348.018L212.752 353.482L230.854 352.734ZM250.541 349.671L261.642 344.727L245.002 347.293L233.147 352.382L250.541 349.671ZM269.93 344.541L279.127 340.34L263.835 344.387L254.04 348.748L269.93 344.541ZM317.888 323.837L321.623 315.108L305.767 322.481L301.221 331.777L317.888 323.837ZM334.401 314.197L337.373 306.231L322.424 314.724L318.732 323.351L334.401 314.197ZM349.708 303.589L351.99 296.472L338.171 305.768L335.24 313.624L349.708 303.589ZM363.654 292.286L365.302 286.091L352.778 295.934L350.535 302.926L363.654 292.286ZM376.322 280.429L377.402 275.198L366.072 285.477L364.459 291.541L376.322 280.429ZM387.78 268.131L388.369 263.888L378.141 274.52L377.089 279.612L387.78 268.131ZM398.265 252.23L389.062 263.158L388.492 267.266L398.08 255.5L398.265 252.23ZM407.139 240.28L398.896 251.473L398.718 254.616L407.262 242.622L407.139 240.28ZM415.029 228.078L407.687 239.527L407.804 241.758L415.352 229.576L415.029 228.078ZM421.952 215.642L415.476 227.368L415.781 228.785L422.368 216.437L421.952 215.642ZM427.902 203.012L422.285 215.02L422.679 215.77L428.313 203.288L427.902 203.012ZM432.841 190.265L428.137 202.471L428.534 202.738L433.179 190.236L432.841 190.265ZM436.736 177.452L433.037 189.666L433.388 189.637L436.996 177.277L436.736 177.452ZM439.573 164.537L436.927 176.624L437.24 176.414L439.818 164.255L439.573 164.537ZM441.305 151.664L439.722 163.477L440.06 163.088L441.627 151.158L441.305 151.664ZM441.86 138.985L441.363 150.483L441.801 149.793L442.351 138.038L441.86 138.985ZM440.356 112.492L439.485 114.795L441.098 125.543L441.88 123.778L440.356 112.492ZM437.573 100.275L436.561 103.449L439.237 113.798L440.186 111.29L437.573 100.275ZM433.552 88.455L432.479 92.6222L436.232 102.553L437.305 99.1851L433.552 88.455ZM428.247 77.1003L427.206 82.3481L432.08 91.8193L433.199 87.4773L428.247 77.1003ZM421.595 66.3014L420.697 72.6833L426.748 81.6453L427.822 76.235L421.595 66.3014ZM413.533 56.1805L412.895 63.7243L420.19 72.0804L421.108 65.5517L413.533 56.1805ZM392.745 37.7879L401.072 43.9198L394.983 37.6317L386.251 31.0437L392.745 37.7879ZM379.912 30.7563L391.021 36.8351L383.303 28.8259L371.679 22.241L379.912 30.7563ZM365.31 25.1679L378.613 30.2503L369.903 21.2414L355.998 15.6499L365.31 25.1679ZM318.7 7.93109L333.937 9.76474L313.591 4.05453L297.846 2.04596L318.7 7.93109ZM250.489 3.39856L268.23 1.39935L232.909 0.940155L215.073 2.81442L250.489 3.39856ZM227.481 8.73077L248.143 3.93896L210.333 3.31421L189.595 7.82489L227.481 8.73077ZM140.442 26.13L158.909 17.7334L134.874 25.5959L117.559 33.2803L140.442 26.13ZM117.737 39.481L138.229 27.4264L112.955 35.3264L93.7878 46.2845L117.737 39.481ZM96.0675 55.5339L116.402 40.4618L91.7141 47.4778L72.8037 61.0754L96.0675 55.5339ZM75.9713 74.1264L95.1861 56.3398L71.5829 61.9594L53.8204 77.8999L75.9713 74.1264ZM58.009 95.0087L75.3625 74.8168L53.0309 78.6215L37.082 96.6143L58.009 95.0087ZM42.7449 117.825L57.5778 95.6209L36.5493 97.2328L22.9879 116.934L42.7449 117.825ZM30.7119 142.134L42.4374 118.39L22.6297 117.497L11.9664 138.501L30.7119 142.134ZM22.3855 167.408L30.4963 142.683L11.7318 139.044L4.40417 160.882L22.3855 167.408ZM18.1462 193.055L22.246 167.973L4.26779 161.449L0.618256 183.597L18.1462 193.055ZM59.5626 255.84L55.6531 231.79L18.7994 219.119L22.9975 242.206L59.5626 255.84ZM67.331 278.133L59.7021 256.51L23.2385 242.916L31.1305 263.757L67.331 278.133ZM78.3938 297.418L67.6132 278.867L31.606 264.569L42.6118 282.533L78.3938 297.418ZM78.9042 298.259L43.4869 283.525L56.8675 298.404L92.101 313.534L78.9042 298.259ZM135.8 330.601L121.253 318.381L94.1334 314.724L109.565 327.18L135.8 330.601ZM136.647 331.297L110.894 327.933L127.525 337.261L152.466 340.482L136.647 331.297ZM188.578 341.963L172.213 335.533L154.736 340.98L172.235 347.666L188.578 341.963ZM189.427 342.277L173.288 347.913L191.422 351.917L206.485 346.176L189.427 342.277ZM235.192 336.755L218.712 335.39L208.13 345.873L225.96 347.43L235.192 336.755ZM252.666 336.127L235.926 336.799L226.743 347.418L244.767 346.732L252.666 336.127ZM270.226 333.502L253.427 336.08L245.577 346.621L263.56 343.845L270.226 333.502ZM287.706 329.013L271.007 333.368L264.388 343.642L282.147 338.943L287.706 329.013ZM288.498 328.795L282.985 338.643L300.379 332.17L304.968 322.783L288.498 328.795ZM318.804 302.655L303.491 309.429L305.769 321.841L321.847 314.363L318.804 302.655ZM333.853 294.575L319.343 302.399L322.38 314.084L337.573 305.448L333.853 294.575ZM347.826 285.698L334.37 294.276L338.082 305.128L352.161 295.658L347.826 285.698ZM360.525 276.277L348.319 285.364L352.644 295.3L365.435 285.247L360.525 276.277ZM372.05 266.402L360.991 275.911L365.889 284.857L377.486 274.336L372.05 266.402ZM382.481 256.155L372.486 266.006L377.909 273.92L388.389 263.027L382.481 256.155ZM391.884 245.593L382.886 255.733L388.78 262.588L398.205 251.398L391.884 245.593ZM400.313 234.764L392.257 245.145L398.565 250.938L406.979 239.515L400.313 234.764ZM407.806 223.693L400.654 234.295L407.308 239.035L414.751 227.429L407.806 223.693ZM414.392 212.392L408.114 223.201L415.049 226.928L421.543 215.174L414.392 212.392ZM420.075 200.859L414.665 211.877L421.808 214.656L427.368 202.77L420.075 200.859ZM424.85 189.075L420.31 200.323L427.6 202.232L432.229 190.221L424.85 189.075ZM428.662 177.068L425.045 188.519L432.424 189.669L436.099 177.536L428.662 177.068ZM431.442 164.852L428.811 176.499L436.252 176.966L438.936 164.702L431.442 164.852ZM433.108 152.636L431.541 164.272L439.044 164.121L440.683 151.886L433.108 152.636ZM433.56 140.622L433.153 152.048L440.74 151.302L441.261 139.257L433.56 140.622ZM441.809 137.813L442.411 136.654L441.94 125.09L441.254 126.64L441.809 137.813ZM438.946 115.154L430.935 117.949L432.757 128.414L440.63 126.371L438.946 115.154ZM436.059 103.849L427.914 107.504L430.8 117.384L438.834 114.579L436.059 103.849ZM432.017 93.0563L423.796 97.6795L427.716 106.957L435.886 103.29L432.017 93.0563ZM426.79 82.8167L418.566 88.4832L423.536 97.1578L431.784 92.5222L426.79 82.8167ZM420.329 73.1831L412.197 79.946L418.245 87.999L426.496 82.3138L420.329 73.1831ZM412.577 64.246L404.634 72.1241L411.819 79.5055L419.976 72.7207L412.577 64.246ZM403.981 46.8874L403.725 55.5807L412.349 63.2152L412.998 55.5433L403.981 46.8874ZM393.103 48.3993L403.15 55.1684L403.409 46.3625L392.858 38.5907L393.103 48.3993ZM380.934 42.3548L392.508 48.0775L392.26 38.1752L380.066 31.5029L380.934 42.3548ZM367.107 37.6629L380.327 42.1236L379.452 31.1937L365.501 25.8614L367.107 37.6629ZM338.576 11.0392L348.826 21.3133L364.239 24.9087L354.67 15.1251L338.576 11.0392ZM330.629 19.4827L347.897 21.207L337.489 10.7768L319.459 8.6058L330.629 19.4827ZM274.944 1.46805L298.157 8.09039L316.61 7.9436L293.976 1.5524L274.944 1.46805ZM276.448 10.9018L296.69 8.27472L272.819 1.46494L251.975 3.814L276.448 10.9018ZM254.079 16.5589L275.32 11.1798L250.494 3.98892L228.648 9.05255L254.079 16.5589ZM165.409 15.5999L204.122 16.9744L225.931 9.27121L187.214 8.34656L165.409 15.5999ZM180.781 28.1917L202.985 17.5116L163.858 16.1247L141.752 26.1707L180.781 28.1917ZM157.894 42.3704L179.902 28.7259L140.623 26.6923L118.802 39.5278L157.894 42.3704ZM135.965 59.4323L157.197 42.9015L117.943 40.0463L96.9712 55.587L135.965 59.4323ZM115.549 79.1931L135.404 59.9571L96.299 56.1024L76.764 74.1889L115.549 79.1931ZM97.2281 101.362L115.092 79.7148L76.2281 74.7043L58.7129 95.0836L97.2281 101.362ZM81.593 125.55L96.8634 101.887L58.2943 95.6022L43.3791 117.925L81.593 125.55ZM69.1922 151.255L81.3045 126.081L43.0588 118.449L31.2985 142.265L69.1922 151.255ZM60.517 177.908L68.9798 151.798L31.0734 142.805L22.9435 167.586L60.517 177.908ZM55.9448 204.877L60.3775 178.47L22.8072 168.148L18.7011 193.306L55.9448 204.877ZM55.6245 231.168L55.8814 205.462L18.663 193.899L18.7138 218.479L55.6245 231.168ZM90.4331 261.45L87.0436 238.212L56.2714 231.942L60.1904 256.041L90.4331 261.45ZM97.4817 283.045L90.5536 262.061L60.3743 256.661L68.0381 278.381L97.4817 283.045ZM107.733 301.849L97.7163 283.667L68.3773 279.018L79.2657 297.753L107.733 301.849ZM108.113 302.489L79.8079 298.416L93.2963 314.026L120.682 317.721L108.113 302.489ZM155.725 325.62L142.082 313.857L122.017 318.262L136.818 330.697L155.725 325.62ZM156.287 326.068L137.493 331.116L153.889 340.636L171.516 335.143L156.287 326.068ZM201.388 331.509L186.174 325.687L172.825 335.152L189.354 341.646L201.388 331.509ZM202.029 331.727L190.042 341.826L207.389 345.789L218.015 335.26L202.029 331.727ZM237.457 322.338L222.145 321.116L218.96 334.832L235.533 336.205L237.457 322.338ZM253.698 321.753L238.047 322.356L236.124 336.214L252.984 335.536L253.698 321.753ZM270.116 319.376L254.288 321.701L253.574 335.472L270.52 332.871L270.116 319.376ZM286.567 315.309L270.7 319.266L271.103 332.746L287.975 328.346L286.567 315.309ZM302.934 309.644L287.139 315.143L288.546 328.16L305.215 322.076L302.934 309.644ZM308.486 289.489L293.613 295.597L303.261 308.896L318.54 302.14L308.486 289.489ZM323.153 282.114L309.03 289.236L319.079 301.881L333.561 294.072L323.153 282.114ZM336.774 273.973L323.673 281.82L334.075 293.775L347.504 285.215L336.774 273.973ZM349.133 265.305L337.269 273.647L347.992 284.883L360.171 275.817L349.133 265.305ZM360.326 256.207L349.601 264.947L360.632 275.451L371.661 265.969L360.326 256.207ZM370.434 246.757L360.766 255.82L372.093 265.576L382.057 255.756L370.434 246.757ZM379.524 237.013L370.847 246.341L382.461 255.331L391.426 245.229L379.524 237.013ZM387.645 227.03L379.905 236.571L391.801 244.784L399.824 234.444L387.645 227.03ZM394.837 216.835L387.995 226.565L400.166 233.972L407.288 223.417L394.837 216.835ZM401.124 206.457L395.154 216.346L407.598 222.925L413.849 212.165L401.124 206.457ZM406.515 195.898L401.405 205.948L414.124 211.653L419.511 200.678L406.515 195.898ZM411.004 185.168L406.757 195.371L419.749 200.149L424.272 188.944L411.004 185.168ZM414.543 174.298L411.203 184.623L424.469 188.397L428.074 176.985L414.543 174.298ZM417.077 163.318L414.696 173.738L428.226 176.426L430.848 164.819L417.077 163.318ZM418.54 152.383L417.178 162.747L430.952 164.249L432.514 152.651L418.54 152.383ZM418.853 141.649L418.583 151.805L432.565 152.076L432.97 140.69L418.853 141.649ZM430.368 118.109L416.121 121.329L417.962 130.676L432.182 128.533L430.368 118.109ZM427.362 107.704L413.119 111.918L415.977 120.77L430.236 117.543L427.362 107.704ZM423.263 97.92L409.058 103.046L412.91 111.374L427.166 107.157L423.263 97.92ZM418.053 88.7674L403.919 94.7432L408.784 102.531L423 97.3983L418.053 88.7674ZM411.707 80.2646L397.678 87.04L403.58 94.2559L417.723 88.277L411.707 80.2646ZM404.168 72.4802L390.281 80.0053L397.274 86.5902L411.308 79.8148L404.168 72.4802ZM403.458 56.118L395.811 65.0988L404.202 71.7336L412.167 63.8337L403.458 56.118ZM392.886 48.9521L385.645 58.9888L395.331 64.7646L402.995 55.7619L392.886 48.9521ZM380.765 42.9171L374.04 53.9408L385.122 58.717L392.377 48.6585L380.765 42.9171ZM366.987 38.2346L360.886 50.1329L373.481 53.7315L380.216 42.6984L366.987 38.2346ZM351.505 34.5735L366.496 37.5161L364.88 25.6521L349.05 21.9598L351.505 34.5735ZM334.319 33.3459L350.895 34.5048L348.429 21.8412L330.884 20.0919L334.319 33.3459ZM310.974 20.0325L329.803 19.4921L318.522 8.50589L298.844 8.66519L310.974 20.0325ZM290.239 23.1375L310.225 20.1293L298.017 8.68704L277.091 11.4016L290.239 23.1375ZM268.938 28.957L289.554 23.3062L276.344 11.5172L254.694 16.9993L268.938 28.957ZM231.354 25.1523L253.166 16.8932L227.52 9.32428L205.1 17.243L231.354 25.1523ZM208.641 36.7289L230.591 25.5272L204.194 17.5741L181.634 28.4229L208.641 36.7289ZM186.38 51.2481L207.991 37.135L180.882 28.8008L158.658 42.5797L186.38 51.2481ZM165.073 68.5974L185.822 51.6792L158.03 42.9889L136.669 59.6229L165.073 68.5974ZM145.275 88.5394L164.597 69.0503L136.133 60.0602L116.205 79.3681L145.275 88.5394ZM127.556 110.743L144.865 89.0173L115.752 79.8304L97.8495 101.525L127.556 110.743ZM112.47 134.758L127.214 111.243L97.4754 102.015L82.186 125.706L112.47 134.758ZM100.519 160.046L112.191 135.28L81.8879 126.221L69.7693 151.405L100.519 160.046ZM92.12 186.061L100.31 160.588L69.5505 151.945L61.0846 178.059L92.12 186.061ZM87.5794 212.209L91.9805 186.625L60.9483 178.621L56.5124 205.031L87.5794 212.209ZM87.0182 237.615L87.516 212.788L56.468 205.616L56.2111 231.339L87.0182 237.615ZM114.109 260.679L111.211 239.117L87.6429 238.27L91.0324 261.508L114.109 260.679ZM120.409 280.793L114.23 261.255L91.1782 262.081L98.1127 283.091L120.409 280.793ZM129.728 298.402L120.631 281.351L98.3727 283.647L108.427 301.899L129.728 298.402ZM130.052 298.934L108.814 302.422L121.491 317.785L141.644 313.362L130.052 298.934ZM170.977 316.793L158.313 306.097L142.69 313.613L156.363 325.402L170.977 316.793ZM171.481 317.171L156.902 325.76L172.21 334.878L185.597 325.384L171.481 317.171ZM206.214 317.721L192.183 312.545L186.523 325.201L201.769 331.035L206.214 317.721ZM206.778 317.887L202.33 331.201L218.378 334.748L221.563 321.029L206.778 317.887ZM230.08 306.606L215.691 305.218L222.118 320.534L237.309 321.747L230.08 306.606ZM245.566 306.336L230.733 306.615L237.973 321.78L253.531 321.18L245.566 306.336ZM261.311 304.398L246.198 306.277L254.169 321.136L269.926 318.821L261.311 304.398ZM277.176 300.866L261.922 304.282L270.54 318.71L286.353 314.768L277.176 300.866ZM293.046 295.812L277.765 300.697L286.943 314.599L302.696 309.114L293.046 295.812ZM290.188 276.897L275.552 282.381L293.2 295.14L307.972 289.073L290.188 276.897ZM304.744 270.123L290.812 276.621L308.602 288.8L322.643 281.721L304.744 270.123ZM318.265 262.582L305.329 269.812L323.231 281.41L336.265 273.601L318.265 262.582ZM330.52 254.502L318.812 262.236L336.814 273.257L348.622 264.956L330.52 254.502ZM341.602 245.983L331.03 254.127L349.132 264.578L359.812 255.875L341.602 245.983ZM351.585 237.112L342.076 245.579L360.285 255.474L369.916 246.445L351.585 237.112ZM360.526 227.964L352.022 236.684L370.352 246.018L378.998 236.725L360.526 227.964ZM368.474 218.598L360.928 227.513L379.398 236.271L387.112 226.762L368.474 218.598ZM375.46 209.07L368.839 218.124L387.476 226.288L394.295 216.591L375.46 209.07ZM381.51 199.422L375.789 208.575L394.621 216.096L400.573 206.238L381.51 199.422ZM386.629 189.692L381.798 198.909L400.861 205.726L405.954 195.712L386.629 189.692ZM390.817 179.919L386.876 189.165L406.202 195.182L410.434 185.014L390.817 179.919ZM394.054 170.135L391.02 179.372L410.637 184.469L413.965 174.181L394.054 170.135ZM396.306 160.382L394.207 169.576L414.121 173.623L416.492 163.243L396.306 160.382ZM397.543 150.733L396.406 159.812L416.596 162.674L417.952 152.351L397.543 150.733ZM415.541 121.42L394.91 123.16L396.752 131.475L417.375 130.726L415.541 121.42ZM412.544 112.042L391.933 114.626L394.754 122.591L415.388 120.855L412.544 112.042ZM408.486 103.202L387.906 106.501L391.707 114.073L412.317 111.486L408.486 103.202ZM403.348 94.9306L382.806 98.8353L387.607 105.964L408.181 102.665L403.348 94.9306ZM397.105 87.2587L376.601 91.6913L382.429 98.3167L402.957 94.4183L397.105 87.2587ZM389.703 80.2615L369.248 85.1533L376.14 91.2008L396.618 86.7745L389.703 80.2615ZM395.371 65.4924L381.669 73.7203L389.812 79.5992L403.698 72.0773L395.371 65.4924ZM385.231 59.4198L371.762 68.2975L381.134 73.3643L394.829 65.1394L385.231 59.4198ZM373.653 54.4031L360.473 63.8774L371.162 67.9977L384.615 59.1293L373.653 54.4031ZM360.528 50.6327L347.698 60.6287L359.807 63.6431L372.961 54.1876L360.528 50.6327ZM351.432 35.1483L346.059 47.7808L360.3 49.9955L366.405 38.0878L351.432 35.1483ZM334.293 33.9238L329.776 47.0998L345.452 47.7151L350.826 35.0796L334.293 33.9238ZM315.823 34.2705L333.714 33.349L330.27 20.0575L311.262 20.6042L315.823 34.2705ZM296.408 37.488L315.229 34.3424L310.659 20.6479L290.561 23.6717L296.408 37.488ZM276.595 43.1139L295.829 37.6223L289.975 23.7904L269.295 29.46L276.595 43.1139ZM247.358 37.563L268.307 29.1882L254.016 17.1899L231.951 25.5459L247.358 37.563ZM225.854 48.9709L246.779 37.8503L231.332 25.8021L209.226 37.0788L225.854 48.9709ZM204.84 63.1152L225.321 49.3051L208.659 37.3911L186.957 51.5636L204.84 63.1152ZM184.789 79.8585L204.353 63.4932L186.444 51.9228L165.65 68.8785L184.789 79.8585ZM166.195 98.9446L184.348 80.274L165.19 69.2815L145.848 88.7893L166.195 98.9446ZM149.596 120.027L165.808 99.3975L145.439 89.236L128.13 110.959L149.596 120.027ZM135.467 142.677L149.26 120.514L127.778 111.44L113.041 134.946L135.467 142.677ZM124.259 166.379L135.188 143.196L112.752 135.458L101.093 160.202L124.259 166.379ZM116.326 190.646L124.049 166.921L100.878 160.743L92.6971 186.189L116.326 190.646ZM111.925 214.953L116.186 191.208L92.5544 186.75L88.1565 212.308L111.925 214.953ZM111.183 238.537L111.867 215.526L88.0994 212.884L87.6016 237.691L111.183 238.537ZM132.11 256.87L129.487 236.684L111.798 239.084L114.689 260.609L132.11 256.87ZM138.01 275.646L132.233 257.435L114.816 261.174L120.993 280.685L138.01 275.646ZM146.758 291.936L138.232 276.184L121.221 281.221L130.312 298.256L146.758 291.936ZM147.079 292.434L130.651 298.748L142.246 313.182L157.897 305.655L147.079 292.434ZM178.127 304.666L166.401 295.099L158.75 305.707L171.395 316.385L178.127 304.666ZM178.615 304.992L171.874 316.732L185.997 324.945L191.65 312.3L178.615 304.992ZM200.573 301.852L187.661 296.97L192.262 311.96L206.092 317.06L200.573 301.852ZM215.02 305.134L201.261 302.03L206.804 317.299L221.429 320.409L215.02 305.134ZM212.983 291.418L199.355 289.783L215.36 304.607L229.414 305.96L212.983 291.418ZM228.108 291.546L213.883 291.436L230.384 306.042L244.964 305.768L228.108 291.546ZM243.561 290.086L228.932 291.48L245.833 305.739L260.749 303.883L243.561 290.086ZM259.195 287.092L244.323 289.952L261.54 303.773L276.64 300.392L259.195 287.092ZM274.888 282.617L259.904 286.903L277.368 300.217L292.525 295.37L274.888 282.617ZM272.489 269.687L270.606 269.769H270.594H270.594H270.593H270.593H270.593H270.582L258.507 269.332L258.496 269.329H258.491L258.448 269.326L256.207 268.875L249.474 271.165L274.951 281.989L289.432 276.562L272.489 269.687ZM295.786 266.635L286.365 269.079L286.314 269.088L286.303 269.09L273.88 269.626L290.22 276.257L304.028 269.818L295.786 266.635ZM313.863 260.938L312.258 261.773L312.234 261.779L312.206 261.793L297.695 266.14H297.69L297.685 266.143L296.747 266.388L304.744 269.475L317.579 262.3L313.863 260.938ZM327.76 253.51L322.847 256.262L322.843 256.265L322.839 256.268L322.833 256.271H322.832L314.559 260.575L318.233 261.924L329.861 254.24L327.76 253.51ZM338.876 245.055L331.712 251.287L331.696 251.293L331.663 251.322L328.435 253.132L330.456 253.836L340.963 245.741L338.876 245.055ZM347.285 235.744H347.285L347.283 235.747L345.295 237.641L340.096 243.987L340.069 244.007L340.062 244.022L339.383 244.612L341.504 245.311L350.962 236.888L347.285 235.744ZM355.625 226.501L353.833 228.86L353.825 228.869L353.819 228.878L351.012 232.046L351.001 232.052L350.999 232.058L347.751 235.285L351.453 236.434L359.917 227.755L355.625 226.501ZM362.136 216.835L361.255 218.392L361.249 218.398L361.245 218.406L359.023 221.799L359.02 221.802L359.017 221.81L356.509 225.334L356.506 225.337L356.504 225.343L355.999 226.006L360.36 227.28L367.874 218.403L362.136 216.835ZM366.911 206.867L365.239 210.83L365.235 210.836L365.232 210.844L363.332 214.723L363.327 214.729L363.324 214.737L362.43 216.317L368.272 217.912L374.868 208.889L366.911 206.867ZM370.291 196.762L370.13 197.417L370.127 197.42L370.126 197.431L368.996 201.173L368.993 201.179L368.992 201.188L367.685 204.824H367.683L367.683 204.827L367.682 204.83L367.682 204.833L367.121 206.323L375.221 208.383L380.922 199.258L370.291 196.762ZM372.262 186.596L371.826 189.698L371.823 189.701V189.712L371.075 193.579L371.073 193.585L371.072 193.594L370.429 196.201L381.23 198.735L386.046 189.546L372.262 186.596ZM372.936 176.466L372.812 180.111L372.811 180.114L372.811 180.117L372.715 181.915L372.715 181.92L372.714 181.926L372.713 181.929L372.714 181.935L372.373 185.799L372.371 185.805L372.372 185.814L372.343 186.023L386.305 189.011L390.235 179.791L372.936 176.466ZM372.438 166.471L372.521 167.036L372.52 167.045L372.523 167.055L372.867 171.279L372.866 171.29L372.868 171.296L372.963 175.649L372.962 175.657L372.963 175.665L372.956 175.881L390.446 179.241L393.472 170.028L372.438 166.471ZM370.572 156.655L371.066 158.932V158.932L371.927 162.958V162.968L371.929 162.976L372.351 165.87L393.631 169.469L395.724 160.298L370.572 156.655ZM370.73 147.516L369.964 154.038L370.111 154.532L370.112 154.544L370.117 154.554L370.441 156.052L395.826 159.728L396.96 150.674L370.73 147.516ZM397.717 141.268L397.585 150.155L417.997 151.777L418.266 141.662L397.717 141.268ZM394.313 123.176L367.716 121.698L369.665 129.47L396.147 131.457L394.313 123.176ZM391.326 114.666L364.62 113.645L367.541 121.111L394.131 122.585L391.326 114.666ZM387.283 106.563L360.468 105.942L364.365 113.055L391.055 114.076L387.283 106.563ZM382.159 98.9196L355.238 98.6604L360.123 105.358L386.912 105.976L382.159 98.9196ZM375.923 91.8037L348.902 91.8631L354.79 98.0762L381.67 98.3386L375.923 91.8037ZM368.524 85.2938L341.427 85.6406L348.335 91.2852L375.288 91.2258L368.524 85.2938ZM381.082 74.0109L360.69 79.3181L368.693 84.6941L389.108 79.8085L381.082 74.0109ZM371.162 68.6318L350.863 74.3014L360.027 78.8933L380.357 73.6017L371.162 68.6318ZM359.856 64.2616L339.698 70.2468L350.073 73.9234L370.279 68.2788L359.856 64.2616ZM347.058 61.0692L327.115 67.3073L338.752 69.9219L358.769 63.9805L347.058 61.0692ZM345.732 48.3181L333.319 58.7545L346.964 60.4663L359.757 50.4953L345.732 48.3181ZM329.482 47.6683L317.574 58.4359L332.518 58.667L344.884 48.2712L329.482 47.6683ZM315.845 34.8484L312.334 48.3305L329.157 47.0998L333.67 33.9301L315.845 34.8484ZM296.481 38.0597L294.14 51.5636L311.711 48.3961L315.218 34.9297L296.481 38.0597ZM276.724 43.6793L275.725 56.874L293.523 51.6948L295.859 38.2158L276.724 43.6793ZM256.637 51.1919L276.037 43.3107L268.73 29.6443L247.754 38.0315L256.637 51.1919ZM236.832 61.722L256.104 51.448L247.214 38.2752L226.287 49.3989L236.832 61.722ZM217.522 74.6418L236.328 62.0282L225.777 49.6987L205.313 63.4995L217.522 74.6418ZM199.095 89.8389L217.052 75.0011L204.834 63.8493L185.296 80.1896L199.095 89.8389ZM181.96 107.129L198.661 90.245L184.855 80.5895L166.741 99.2226L181.96 107.129ZM166.547 126.252L181.567 107.579L166.338 99.6662L150.164 120.245L166.547 126.252ZM153.284 146.907L166.205 126.746L149.812 120.736L136.054 142.84L153.284 146.907ZM142.579 168.712L152.998 147.435L135.759 143.364L124.858 166.484L142.579 168.712ZM134.833 191.228L142.357 169.268L124.627 167.039L116.922 190.699L134.833 191.228ZM130.394 213.964L134.691 191.801L116.769 191.272L112.517 214.962L130.394 213.964ZM129.456 236.105L130.334 214.545L112.451 215.543L111.772 238.502L129.456 236.105ZM141.749 250.216L139.345 231.723L130.055 236.521L132.661 256.58L141.749 250.216ZM147.307 267.45L141.904 250.819L132.775 257.211L138.521 275.32L147.307 267.45ZM155.545 282.294L147.567 268L138.746 275.902L147.234 291.584L155.545 282.294ZM155.893 282.777L147.554 292.096L158.344 305.277L165.973 294.692L155.893 282.777ZM174.42 289.568L163.963 281.055L166.614 294.523L178.003 303.813L174.42 289.568ZM186.96 296.682L175.134 289.993L178.758 304.407L191.533 311.57L186.96 296.682ZM184.43 286.213L172.787 281.625L187.373 296.24L199.59 300.86L184.43 286.213ZM198.356 289.652L185.569 286.504L200.951 301.366L214.244 304.366L198.356 289.652ZM186.862 278.619L174.151 276.891L198.591 289.108L211.45 290.65L186.862 278.619ZM201.905 279.056L188.276 278.666L213.18 290.854L226.915 290.959L201.905 279.056ZM217.312 277.976L203.095 278.98L228.272 290.962L242.556 289.603L217.312 277.976ZM232.932 275.422L218.346 277.816L243.69 289.487L258.307 286.673L232.932 275.422ZM248.639 271.439L233.853 275.198L259.29 286.475L274.078 282.248L248.639 271.439ZM243.051 266.242L243.032 266.233L243.009 266.228L231.069 261.924L231.055 261.916L231.041 261.913L229.856 261.342L225.082 262.838L248.663 270.828L255.075 268.648L243.051 266.242ZM360.737 218.115L360.948 217.624L360.883 217.723L360.629 218.281L360.737 218.115ZM368.324 200.597L367.632 202.52L367.653 203.181L368.412 201.068L368.324 200.597ZM369.418 197.17L368.714 199.5L368.781 199.858L369.529 197.379L369.418 197.17ZM370.322 193.655L369.653 196.369L369.743 196.538L369.789 196.349L369.79 196.346L370.442 193.701L370.322 193.655ZM370.994 190.271L370.451 193.082L370.566 193.128L371.132 190.198L370.994 190.271ZM371.459 187.009L371.102 189.558L371.265 189.471L371.644 186.783L371.459 187.009ZM371.745 183.797L371.556 185.962L371.797 185.662L372.003 183.314L371.745 183.797ZM368.073 147.163L368.26 148.8L368.881 150.393L368.883 150.402L368.889 150.415L369.541 152.611L370.148 147.441L368.073 147.163ZM397.132 141.234L370.768 138.682L370.766 146.938L396.999 150.096L397.132 141.234ZM367.1 121.654L359.831 120.905L360.03 121.186L360.032 121.192L360.046 121.22L360.058 121.236L363.347 128.764L369.045 129.407L367.1 121.654ZM363.978 113.607L353.99 112.677L354.031 112.723L354.036 112.733L354.045 112.742H354.046L359.387 120.277L366.889 121.051L363.978 113.607ZM359.787 105.917L347.43 104.877L353.46 112.046L363.667 112.998L359.787 105.917ZM354.503 98.6416L339.108 97.4764L346.456 103.724L346.471 103.743L346.49 103.758L346.905 104.252L359.36 105.301L354.503 98.6416ZM348.094 91.8568L330.664 90.6761L338.287 96.7798L338.29 96.783L338.294 96.7861L338.359 96.8392L353.933 98.02L348.094 91.8568ZM340.514 85.6437L320.765 84.4536L325.531 86.5777L325.563 86.5996L325.595 86.6183L329.873 90.0419L347.342 91.2258L340.514 85.6437ZM359.906 79.4899L332.774 80.0928L340.71 85.0721L367.701 84.7253L359.906 79.4899ZM349.996 74.5169L322.912 75.3385L331.865 79.5368L358.821 78.937L349.996 74.5169ZM338.716 70.5123L311.83 71.5087L321.734 74.7949L348.512 73.9828L338.716 70.5123ZM325.971 67.6447L299.622 68.7598L310.245 70.9902L336.525 70.0156L325.971 67.6447ZM332.653 59.2543L313.039 65.6736L325.97 67.0605L345.692 60.888L332.653 59.2543ZM316.879 59.0013L297.767 65.4987L311.621 65.5299L330.893 59.2199L316.879 59.0013ZM312.078 48.9272L300.785 59.879L316.708 58.4327L328.552 47.7245L312.078 48.9272ZM293.928 52.1884L283.377 63.1465L299.851 59.9759L311.063 49.1021L293.928 52.1884ZM275.564 57.5237L265.898 68.2726L282.374 63.3495L292.816 52.5039L275.564 57.5237ZM257.3 64.2866L275.122 57.0708L276.119 43.9042L256.827 51.7417L257.3 64.2866ZM239.109 73.7859L256.722 64.5428L256.251 52.0259L237.086 62.2406L239.109 73.7859ZM221.429 85.3313L238.567 74.0921L236.549 62.5779L217.847 75.126L221.429 85.3313ZM204.563 98.8259L220.93 85.6812L217.356 75.5009L199.488 90.27L204.563 98.8259ZM188.841 114.163L204.116 99.2164L199.051 90.6792L182.423 107.488L188.841 114.163ZM174.614 131.169L188.448 114.591L182.036 107.925L167.08 126.524L174.614 131.169ZM162.251 149.643L165.301 145.073V145.07L165.323 145.035L170.707 136.967L170.71 136.961L174.265 131.638L166.737 126.996L153.87 147.072L162.251 149.643ZM152.13 169.331L161.959 150.158L153.572 147.588L143.204 168.765L152.13 169.331ZM144.691 189.834L151.895 169.896L142.957 169.328L135.474 191.167L144.691 189.834ZM140.328 210.699L144.533 190.44L135.293 191.778L131.022 213.806L140.328 210.699ZM139.298 231.095L140.268 211.327L130.924 214.449L130.052 235.869L139.298 231.095ZM141.33 241.04L139.919 230.339L139.875 231.261L141.432 243.251L141.33 241.04ZM146.305 256.117L142.015 243.135L142.351 250.301L147.114 264.962L146.305 256.117ZM153.744 269.291L153.74 269.283L147.012 257.388L147.928 267.452L155.386 280.813L153.744 269.291ZM163.246 280.447L154.46 270.147L156.179 282.213L165.84 293.63L163.246 280.447ZM159.556 274.229L156.746 271.93L163.728 280.112L171.027 286.056L159.556 274.229ZM171.417 281.075L161.417 275.308L174.864 289.178L185.502 295.189L171.417 281.075ZM159.911 273.766L159.927 273.781L171.728 280.583L178.973 283.44L159.911 273.766ZM172.353 276.638L161.195 273.769L184.7 285.693L196.054 288.489L172.353 276.638ZM158.075 272.268L158.795 272.553L167.863 274.886L155.281 269.984L158.075 272.268ZM162.225 269.16L153.633 267.903L154.226 268.951L172.534 276.085L184.519 277.717L162.225 269.16ZM177.277 269.803L164.058 269.242L187.008 278.052L200.251 278.43L177.277 269.803ZM192.709 268.989L178.736 269.731L202.02 278.474L215.995 277.491L192.709 268.989ZM208.369 266.751L193.933 268.82L217.395 277.386L231.809 275.02L208.369 266.751ZM224.133 263.126L209.436 266.516L232.984 274.823L247.644 271.095L224.133 263.126ZM217.475 255.378L209.802 257.662L224.151 262.524L229.093 260.976L217.475 255.378ZM264.182 264.563L248.414 265.046L258.554 268.75L273.588 268.133L264.182 264.563ZM300.292 264.336L292.003 263.926L276.869 268.148L286.252 268.509L300.292 264.336ZM304.899 258.023L293.165 263.405L301.934 263.842L312.614 258.506L304.899 258.023ZM317.175 254.668L314.518 257.781L322.528 255.756L324.73 252.8L317.175 254.668ZM331.407 247.787L327.632 249.853C327.587 249.876 327.538 249.888 327.49 249.888C327.403 249.888 327.325 249.844 327.268 249.774L323.43 251.863L325.383 252.029L332.776 247.915L331.407 247.787ZM335.86 245.04L335.852 245.043L335.842 245.052L332.289 247.289L333.635 247.414L339.272 242.524L335.86 245.04ZM358.86 220.388L357.969 222.226L358.522 221.496L359.276 219.841L358.86 220.388ZM362.749 212.052L362.041 213.131L361.329 215.977L362.251 214.569L362.749 212.052ZM367.34 198.281L366.755 199.902L367.343 201.595L368.09 199.517L367.34 198.281ZM368.137 195.755L367.59 197.568L368.322 198.773L369.007 196.503L368.137 195.755ZM368.794 193.186L368.313 195.139L369.171 195.875L369.766 193.466L368.794 193.186ZM369.304 190.632L368.919 192.622L369.889 192.898L370.364 190.443L369.304 190.632ZM369.668 188.109L369.399 190.027L370.471 189.834L370.806 187.446L369.668 188.109ZM369.891 185.625L369.737 187.396L370.901 186.718L371.098 184.463L369.891 185.625ZM372.192 180.015L372.2 179.773L371.856 180.64L371.795 182.465L372.13 181.833L372.192 180.015ZM371.193 162.343L371.242 163.943L371.355 164.463L371.346 163.049L371.337 163.008L371.193 162.343ZM370.181 138.616L366.269 138.132L367.664 143.589L367.665 143.608L367.671 143.627L368.006 146.569L370.179 146.863L370.181 138.616ZM360.727 125.14L364.197 133.056L364.048 131.831L360.476 123.653L360.727 125.14ZM355.083 117.203L359.942 124.016L359.511 121.464L354.418 114.279L355.083 117.203ZM331.709 80.1115L308.069 78.8371L311.146 80.1646H311.148H311.149L319.263 83.782L339.511 85.0065L331.709 80.1115ZM321.617 75.3728L297.224 74.192L299.553 75.2322L299.776 75.2729L299.809 75.2853L299.843 75.2916L306.533 78.1748L330.333 79.4587L321.617 75.3728ZM310.165 71.5681L286.209 70.5123L295.756 73.5423L319.594 74.6949L310.165 71.5681ZM297.268 68.8567L277.808 68.057L276.511 68.3131L284.076 69.8407L306.698 70.8371L297.268 68.8567ZM311.657 66.1078L286.856 67.2417L297.314 68.2788L322.118 67.2292L311.657 66.1078ZM296.042 66.0734L292.887 66.3889L299.608 66.0797L296.042 66.0734ZM300.057 60.5256L281.804 66.9137L295.965 65.4987L314.44 59.2199L300.057 60.5256ZM282.839 67.426H282.507L280.762 67.6009L287.315 67.8696L282.839 67.426ZM282.611 63.8837L266.058 69.7938L274.977 68.0289L274.981 68.0258L279.337 67.1636L296.172 61.2722L282.611 63.8837ZM265.091 69.119L259.799 71.2776L262.18 70.5623L272.057 67.0355L265.091 69.119ZM257.202 64.952L248.552 75.2416L264.816 68.6036L274.343 58.011L257.202 64.952ZM239.082 74.4544L231.573 84.0069L247.383 75.7258L255.847 65.6548L239.082 74.4544ZM221.482 85.9873L215.227 94.4839L230.302 84.6785L237.56 75.4478L221.482 85.9873ZM204.701 99.4632L199.814 106.513L213.827 95.3991L219.716 87.4023L204.701 99.4632ZM189.066 114.76L185.727 119.821L198.229 107.775L202.501 101.612L189.066 114.76ZM174.915 131.719L173.764 133.496L183.799 121.685L185.73 118.755L174.915 131.719ZM220.053 253.783L209.415 248.753L217.758 254.872L228.528 260.059L220.053 253.783ZM236.155 257.01L221.42 254.071L231.293 261.383L245.724 264.272L236.155 257.01ZM254.308 256.809L237.128 257.019L247.001 264.511L263.427 264.007L254.308 256.809ZM282.425 260.097L265.203 264.33L275.027 268.061L291.071 263.586L282.425 260.097ZM296.474 254.459L283.222 259.794L291.962 263.321L304.128 257.741L296.474 254.459ZM308.837 254.115L305.499 257.481L313.576 257.988L316.418 254.659L308.837 254.115ZM351.594 230.173L350.225 231.991L350.568 231.665L351.806 229.972L351.594 230.173ZM356.739 222.777L355.279 225.596L356.172 224.589L357.427 222.002L356.739 222.777ZM360.382 215.313L359.348 218.782L360.354 217.458L361.138 214.321L360.382 215.313ZM363.064 207.143L362.456 208.069L362.151 211.901L363.035 210.553L363.064 207.143ZM364.019 211.458L364.284 209.55L363.607 210.739L363.168 212.957L364.019 211.458ZM366.414 205.412L366.342 206.501L367.113 204.673L367.086 203.821L366.414 205.412ZM366.417 200.716L365.817 202.133L366.233 204.336L367.024 202.465L366.417 200.716ZM365.386 196.012L365.032 196.992L366.377 199.223L366.936 197.673L365.386 196.012ZM365.929 194.304L365.601 195.389L367.138 197.036L367.642 195.368L365.929 194.304ZM366.378 192.567L366.093 193.722L367.798 194.781L368.228 193.035L366.378 192.567ZM366.73 190.824L366.503 191.999L368.352 192.471L368.694 190.696L366.73 190.824ZM366.983 189.096L366.824 190.239L368.795 190.111L369.04 188.365L366.983 189.096ZM367.139 187.394L367.047 188.458L369.121 187.722L369.266 186.052L367.139 187.394ZM369.977 183.192L369.925 184.784L371.169 183.588L371.24 181.504L369.977 183.192ZM372.216 176.178L371.789 177.562L371.825 179.133L372.257 178.045L372.216 176.178ZM371.012 165.642L370.538 169.016L370.809 170.249L371.368 167.277L371.012 165.642ZM370.158 158.018L370.316 160.84L370.588 161.746L370.51 159.202L370.158 158.018ZM360.229 125.462L356.665 124.447L359.956 131.863L360.388 132.537L360.389 132.544L360.392 132.547L361.082 133.709L364.217 134.562L360.229 125.462ZM354.629 117.572L351.137 116.544L356.325 123.75L359.725 124.719L354.629 117.572ZM348.244 111.465L354.333 116.544L353.541 113.067L347.106 107.638L348.244 111.465ZM338.372 103.152L345.537 106.064L337.923 97.2422L329.812 93.8342L338.372 103.152ZM304.268 81.689L318.474 92.088L327.773 92.7034L314.75 82.5824L304.268 81.689ZM295.633 74.1171L292.255 73.9515L297.216 74.8231L295.633 74.1171ZM283.988 70.4154L269.917 69.7969L276.245 71.7524L284.065 72.5177L284.076 72.5208H284.087L287.707 73.1549L293.499 73.433L283.988 70.4154ZM257.808 74.0921L266.727 72.2178L255.913 73.0987L255.403 73.2018L254.182 73.5704L251.768 74.5544L257.808 74.0921ZM215.475 95.0149L206.107 106.657L219.569 106.882L230.794 92.7127L218.479 93.0626L215.475 95.0149ZM205.342 106.676L213.807 96.1582L198.718 108.125L205.342 106.676ZM192.072 114.516L186.431 124.641L195.873 123.766L204.941 107.357L197.906 108.894L192.072 114.516ZM173.792 142.918L178.162 131.072L177.585 132.106L173.45 143.299L173.792 142.918ZM170.584 158.542L173.545 144.064L172.917 144.764L170.219 157.963L170.584 158.542ZM169.712 172.873L170.428 159.389L170.152 158.952L169.49 171.481L169.712 172.873ZM175.723 205.325L180.089 212.069L176.158 197.842L172.185 192.648L175.723 205.325ZM210.623 241.866L198.518 236.431L206.99 246.967L219.211 252.745L210.623 241.866ZM227.04 245.142L211.527 242.07L220.372 253.274L235.581 256.306L227.04 245.142ZM245.921 245.422L227.801 245.177L236.425 256.449L253.841 256.236L245.921 245.422ZM273.753 252.925L255.08 256.679L264.302 263.958L281.821 259.649L273.753 252.925ZM288.896 247.897L274.419 252.725L282.5 259.46L295.93 254.054L288.896 247.897ZM300.971 250.717L297.023 254.066L304.774 257.385L308.218 253.914L300.971 250.717ZM310.432 253.65L315.752 250.99L313.008 250.531L307.707 253.053L308.795 253.533L310.432 253.65ZM328.876 246.661L326.698 247.007L321.737 250.339L324.182 249.934L328.876 246.661ZM331.928 245.893L330.21 246.437L326.047 249.341L327.998 248.715L331.928 245.893ZM348.935 232.259L346.562 235.296L347.655 234.435L349.81 231.572L348.935 232.259ZM354.535 224.865L352.544 228.467L353.707 227.362L355.443 224.007L354.535 224.865ZM358.644 217.263L357.244 221.33L358.345 220.094L359.461 216.349L358.644 217.263ZM361.183 209.736L360.563 214.115L361.481 212.91L361.798 208.936L361.183 209.736ZM362.439 202.06L362.099 202.572L362.403 207.085L363.06 206.09L362.439 202.06ZM364.266 205.168L363.659 206.233L363.631 209.515L364.486 208.011L364.266 205.168ZM365.388 203.021L364.783 204.251L364.995 206.983L365.819 205.304L365.388 203.021ZM364.755 197.664L364.391 198.523L365.52 201.333L366.117 199.922L364.755 197.664ZM362.54 193.564L362.451 193.812L364.608 196.442L364.928 195.555L362.54 193.564ZM362.833 192.674L362.743 192.977L365.119 194.958L365.408 194.001L362.833 192.674ZM369.371 183.768L367.2 185.726L367.17 186.686L369.32 185.333L369.371 183.768ZM371.225 178.572L369.926 180.821L369.96 182.241L371.269 180.492L371.225 178.572ZM372.03 172.585L371.546 174.581L371.662 175.984L372.172 174.331L372.03 172.585ZM371.321 173.024L371.876 170.731L371.631 169.052L371.128 171.724L371.321 173.024ZM370.195 170.19L368.963 174.271L369.188 175.282L370.526 171.698L370.195 170.19ZM370.173 162.407L369.779 166.485L370.135 167.665L370.65 163.999L370.173 162.407ZM368.872 154.16L369.191 157.973L369.63 159.087L369.434 155.594L368.872 154.16ZM366.31 145.723L367.149 149.028L367.561 149.846L366.838 146.775L366.31 145.723ZM363.353 137.538L363.354 137.545H363.355L363.359 137.551L363.363 137.56L363.37 137.57L365.315 141.449L365.318 141.459L365.324 141.468L367.069 145.779L367.198 145.81L364.486 135.233L361.505 134.421L363.353 137.538ZM355.902 124.169L349.282 118.187L349.557 118.799L351.167 120.339L351.17 120.342H351.172L351.176 120.352L351.196 120.367L351.198 120.37H351.198L351.201 120.374L354.124 123.947L354.124 123.95H354.126L357.891 128.655L355.902 124.169ZM350.188 116.225L345.238 112.121L348.663 116.844L354.308 121.945L350.188 116.225ZM347.845 111.886L344.746 110.959L350.547 115.766L353.551 116.65L347.845 111.886ZM340.386 108.303L347.536 111.137L346.305 107.001L338.711 103.915L340.386 108.303ZM329.179 102.684L337.508 103.074L328.561 93.3344L319.125 92.7096L329.179 102.684ZM291.743 84.3629L307.545 94.9368L317.707 92.2442L303.198 81.6266L291.743 84.3629ZM299.648 75.8414L289.084 74.8324L303.337 81.0299L313.178 81.8671L299.648 75.8414ZM274.197 76.9659L285.81 74.4044L271.275 71.8524L259.373 74.3545L274.197 76.9659ZM260.944 83.985L273.324 77.4001L257.896 74.6825L245.235 81.1986L260.944 83.985ZM248.228 95.1212L260.349 84.466L244.426 81.6422L232.062 92.2285L248.228 95.1212ZM236.69 109.956L247.792 95.6303L231.53 92.719L220.239 106.976L236.69 109.956ZM209.772 124.775L219.223 107.457L205.679 107.229L196.533 123.785L209.772 124.775ZM179.842 142.296L188.819 142.946L195.626 124.369L186.123 125.25L179.842 142.296ZM179.224 142.287L185.394 125.525L179.944 127.945L174.484 142.736L179.224 142.287ZM175.4 160.789L179.068 142.88L174.293 143.333L171.062 159.132L175.4 160.789ZM174.338 179.261L175.314 161.377L170.999 159.727L170.159 175.525L174.338 179.261ZM174.319 180.024L170.228 176.368L171.779 191.153L176.028 196.713L174.319 180.024ZM189.776 220.172L185.305 203.617L176.906 198.357L181.136 213.655L189.776 220.172ZM190.046 221.106L181.691 214.804L187.931 227.313L196.666 234.575L190.046 221.106ZM203.26 226.544L190.88 221.476L197.751 235.451L210.203 241.043L203.26 226.544ZM219.964 229.852L203.99 226.716L211.013 241.377L226.703 244.485L219.964 229.852ZM239.468 230.766L220.635 229.911L227.396 244.592L245.625 244.84L239.468 230.766ZM266.451 242.466L246.593 245.352L254.536 256.198L273.343 252.419L266.451 242.466ZM282.565 238.401L267.067 242.331L273.95 252.27L288.512 247.414L282.565 238.401ZM293.912 244.505L289.435 247.598L296.48 253.763L300.478 250.374L293.912 244.505ZM303.587 251.238L308.721 248.939L305.907 247.377L300.511 249.623L301.084 250.135L303.587 251.238ZM322.359 246.867L319.825 246.414L313.783 250.074L316.613 250.548L322.359 246.867ZM323.225 247.001L317.672 250.56L320.376 250.551L325.642 247.016L323.225 247.001ZM334.587 241.805L332.524 242.116L327.572 246.283L329.945 245.904L334.587 241.805ZM337.506 241.054L335.665 241.627L331.299 245.486L333.426 244.811L337.506 241.054ZM333.73 245.314L330.93 247.324L331.787 246.917L334.43 244.985L333.73 245.314ZM341.956 239.163L339.362 241.63L340.303 241.04L342.713 238.689L341.956 239.163ZM346.218 233.952L343.115 237.752L344.653 236.789L347.486 233.164L346.218 233.952ZM352.268 226.634L349.763 230.871L351.145 229.791L353.356 225.791L352.268 226.634ZM356.842 218.965L355.043 223.582L356.239 222.454L357.724 218.136L356.842 218.965ZM359.852 211.226L358.881 216.125L359.837 215.055L360.478 210.53L359.852 211.226ZM361.559 203.285L361.233 203.707L361.202 208.752L361.869 207.882L361.559 203.285ZM360.953 196.71L361.949 201.74L362.294 201.223L360.953 196.71ZM364.047 199.235L363.684 199.968L364.569 203.358L365.193 202.089L364.047 199.235ZM362.2 194.426L362.123 194.606L364.033 197.868L364.371 197.071L362.2 194.426ZM365.809 192.424L363.076 191.772L362.993 192.104L365.562 193.428L365.809 192.424ZM363.266 190.865L363.2 191.205L365.933 191.86L366.129 190.841L363.266 190.865ZM363.404 189.962L363.359 190.285L366.228 190.262L366.367 189.261L363.404 189.962ZM363.489 189.081L363.466 189.354L366.442 188.65L366.525 187.696L363.489 189.081ZM369.356 181.522L367.166 184.106L367.188 184.952L369.391 182.968L369.356 181.522ZM371.05 175.691L369.739 178.531L369.845 179.791L371.195 177.457L371.05 175.691ZM369.586 177.466L370.948 174.515L370.707 172.887L369.417 176.341L369.586 177.466ZM369.513 167.633L368.38 172.339L368.658 173.252L369.934 169.028L369.513 167.633ZM369.121 159.393L368.857 164.151L369.306 165.28L369.727 160.93L369.121 159.393ZM367.873 155.372L368.486 156.575L368.124 152.261L367.347 150.721L367.873 155.372ZM364.162 141.859L365.386 146.298L366.151 147.478L365.093 143.308L364.162 141.859ZM346.448 115.828L346.588 115.96L346.588 115.963H346.59L348.43 117.721L348.202 117.215L346.448 115.828ZM343.308 110.521L338.865 108.766L338.434 108.75L346.964 115.497L343.429 110.621L343.308 110.521ZM331.779 107.929L337.066 108.122H337.071L339.727 108.219L337.992 103.674L329.527 103.28L331.779 107.929ZM319.511 105.426L328.496 102.827L318.281 92.6909L308.092 95.3898L319.511 105.426ZM279.266 91.1165L296.524 101.372L306.946 95.2367L291.017 84.5753L279.266 91.1165ZM291.056 83.9319L302.353 81.2329L287.267 74.6731L275.163 77.347L291.056 83.9319ZM278.661 90.7885L290.366 84.2724L274.219 77.5813L261.689 84.2443L278.661 90.7885ZM266.752 101.569L278.14 91.2071L261.054 84.6191L248.881 95.321L266.752 101.569ZM255.923 115.86L266.348 102.04L248.42 95.774L237.301 110.121L255.923 115.86ZM227.01 127.917L236.368 110.487L219.867 107.497L210.387 124.865L227.01 127.917ZM202.425 144.876L209.533 125.337L196.257 124.344L189.415 143.014L202.425 144.876ZM184.608 163.247L188.666 143.514L179.671 142.864L175.961 160.974L184.608 163.247ZM183.39 183.582L184.529 163.824L175.895 161.554L174.902 179.706L183.39 183.582ZM183.384 184.216L174.94 180.361L176.7 197.545L185.207 202.872L183.384 184.216ZM198.492 208.336L185.984 203.893L190.524 220.708L203.048 225.832L198.492 208.336ZM215.437 211.653L199.139 208.488L203.715 226.073L219.775 229.227L215.437 211.653ZM235.411 213.335L216.06 211.726L220.401 229.32L239.293 230.181L235.411 213.335ZM260.898 229.064L240.095 230.743L246.253 244.816L266.177 241.921L260.898 229.064ZM277.802 226.294L261.498 228.985L266.765 241.811L282.304 237.868L277.802 226.294ZM288.03 235.544L283.115 238.174L289.044 247.161L293.537 244.057L288.03 235.544ZM296.901 246.396L302.166 244.386L299.574 241.651L293.933 243.591L294.162 243.946L296.901 246.396ZM315.921 244.915L313.386 243.458L306.535 247.062L309.367 248.634L315.921 244.915ZM316.533 245.235L310.065 248.904L312.931 249.914L319.101 246.175L316.533 245.235ZM328.646 241.959L326.39 241.526L320.476 245.942L323.058 246.405L328.646 241.959ZM329.421 242.084L323.963 246.428L326.479 246.443L331.615 242.119L329.421 242.084ZM339.79 236.224L337.965 236.483L333.199 241.43L335.367 241.101L339.79 236.224ZM342.417 235.561L340.71 236.079L336.447 240.778L338.483 240.146L342.417 235.561ZM338.818 240.638L335.177 243.99L336.888 243.181L340.28 239.954L338.818 240.638ZM343.47 235.232L339.754 239.559L341.588 238.7L344.998 234.525L343.47 235.232ZM349.955 228.066L346.948 232.814L348.507 231.845L351.192 227.304L349.955 228.066ZM354.991 220.399L352.767 225.511L354.054 224.511L355.94 219.669L354.991 220.399ZM358.474 212.52L357.119 217.906L358.115 216.969L359.116 211.921L358.474 212.52ZM360.642 204.371L360.328 204.717L359.933 210.265L360.61 209.512L360.642 204.371ZM360.562 197.757L361.149 202.86L361.487 202.424L360.562 197.757ZM361.818 195.24L361.761 195.354L363.395 199.235L363.743 198.531L361.818 195.24ZM361.326 192.671L362 193.338L362.056 193.183L361.326 192.671ZM361.377 191.996L362.243 192.604L362.3 192.415L361.377 191.996ZM363.525 188.217L363.519 188.429L366.572 187.038L366.599 186.154L363.525 188.217ZM369.218 179.328L367.038 182.543L367.102 183.279L369.329 180.652L369.218 179.328ZM366.507 179.648L366.63 180.189L368.806 176.267L368.563 175.173L366.507 179.648ZM368.046 173.251L366.11 178.339L366.253 178.802L368.348 174.239L368.046 173.251ZM368.663 165.247L367.671 170.562L368.005 171.391L369.175 166.535L368.663 165.247ZM367.862 156.64L367.777 162.038L368.327 163.107L368.605 158.101L367.862 156.64ZM366.369 153.057L367.157 154.263L366.588 149.228L365.596 147.697L366.369 153.057ZM361.837 138.685L363.42 143.927L364.473 145.192L363.102 140.219L361.837 138.685ZM362.845 137.832L362.508 137.307L363.63 139.95L363.869 140.322L362.845 137.832ZM336.718 111.833L339.419 112.627L335.113 108.628L333.093 108.553L336.718 111.833ZM331.63 108.5L329.906 109.019L332.566 111.346L335.706 111.702L332.189 108.522L331.63 108.5ZM322.736 110.565L331.179 108.032L328.894 103.315L319.886 105.92L322.736 110.565ZM309.778 111.368L318.951 105.708L307.457 95.6084L297.044 101.737L309.778 111.368ZM285.935 111.337L296.044 101.759L278.721 91.4664L267.326 101.831L285.935 111.337ZM276.297 124.444L285.551 111.793L266.907 102.268L256.491 116.075L276.297 124.444ZM246.803 133.112L255.613 116.372L236.96 110.621L227.6 128.055L246.803 133.112ZM219.701 148.081L226.777 128.464L210.132 125.406L203.012 144.973L219.701 148.081ZM197.992 166.159L202.271 145.435L189.25 143.574L185.178 163.385L197.992 166.159ZM196.631 187.472L197.912 166.733L185.106 163.961L183.967 183.809L196.631 187.472ZM196.628 188.074L183.993 184.42L185.829 203.224L198.407 207.69L196.628 188.074ZM213.753 191.377L197.231 188.208L199.013 207.874L215.354 211.048L213.753 191.377ZM234.009 193.925L214.35 191.467L215.951 211.138L235.333 212.75L234.009 193.925ZM257.486 213.178L236.017 213.352L239.894 230.178L260.734 228.497L257.486 213.178ZM274.935 211.994L258.08 213.152L261.319 228.43L277.645 225.733L274.935 211.994ZM283.622 224.147L278.369 226.134L282.85 237.656L287.766 235.026L283.622 224.147ZM290.976 239.02L296.477 237.344L294.317 233.475L288.393 235.028H288.394L290.976 239.02ZM309.98 240.661L307.666 238.148L300.154 241.415L302.742 244.147L309.98 240.661ZM310.419 241.092L303.221 244.56L305.957 246.71L312.867 243.076L310.419 241.092ZM322.885 240.126L320.665 238.805L313.951 243.114L316.492 244.572L322.885 240.126ZM323.461 240.432L317.13 244.837L319.718 245.785L325.722 241.298L323.461 240.432ZM334.547 236.309L332.62 235.91L326.943 241.043L329.224 241.482L334.547 236.309ZM335.259 236.428L330.023 241.517L332.272 241.552L337.157 236.48L335.259 236.428ZM344.463 229.966L342.951 230.161L338.497 235.823L340.38 235.558L344.463 229.966ZM346.723 229.416L345.276 229.841L341.293 235.299L343.102 234.749L346.723 229.416ZM347.618 229.14L344.117 234.293L345.818 233.507L348.974 228.523L347.618 229.14ZM353.107 221.555L350.437 227.089L351.808 226.245L354.116 220.94L353.107 221.555ZM357.06 213.608L355.295 219.433L356.332 218.633L357.723 213.102L357.06 213.608ZM359.393 205.59L358.606 211.601L359.295 210.961L359.697 205.31L359.393 205.59ZM360.086 198.746L360.305 203.876L360.634 203.512L360.086 198.746ZM361.726 194.045L361.773 193.934L361.27 193.434L361.726 194.045ZM362.505 191.638L361.449 191.394L362.453 191.848L362.505 191.638ZM361.562 190.827L362.629 191.071L362.67 190.856L361.562 190.827ZM361.731 190.253L362.767 190.28L362.795 190.079L361.731 190.253ZM361.955 189.631L362.866 189.48L362.881 189.308L361.955 189.631ZM363.51 187.379L363.515 187.524L366.613 185.444L366.592 184.638L363.51 187.379ZM366.915 181.685L369.134 178.411L368.954 177.206L366.818 181.054L366.915 181.685ZM367.402 171.462L365.628 177.138L365.79 177.533L367.761 172.351L367.402 171.462ZM367.647 163.064L366.844 168.958L367.234 169.706L368.254 164.242L367.647 163.064ZM366.549 160.165L367.204 161.155L367.292 155.538L366.406 154.182L366.549 160.165ZM364.694 151.061L365.653 152.195L364.836 146.535L363.637 145.098L364.694 151.061ZM359.319 136.102L361.261 141.949L362.57 143.139L360.877 137.538L359.319 136.102ZM359.535 133.04L361.389 137.229L362.315 138.351L360.629 134.374L359.535 133.04ZM358.639 131.032L358.648 131.041L357.467 129.058L357.38 128.951L358.639 131.032ZM351.635 121.848L350.75 120.745L350.705 120.702L351.635 121.848ZM340.689 113.011L342.679 113.982L339.071 110.568L336.915 109.506L340.689 113.011ZM341.809 117.562L344.457 118.315L340.351 113.504L337.457 112.655L341.809 117.562ZM337.965 117.144L340.933 117.453L336.424 112.364L333.187 111.999L337.965 117.144ZM322.727 111.174L322.428 111.361L323.875 112.517L327.534 111.708L325.799 110.249L322.727 111.174ZM313.639 116.2L313.864 116.06H313.864L322.204 110.815L319.341 106.151L310.191 111.796L313.639 116.2ZM300.435 120.448L309.316 111.749L296.545 102.087L286.459 111.643L300.435 120.448ZM291.928 132.3L300.059 120.898L286.063 112.08L276.835 124.697L291.928 132.3ZM268.151 140.187L275.994 124.947L256.17 116.569L247.372 133.284L268.151 140.187ZM239.868 152.445L246.573 133.649L227.354 128.589L220.283 148.2L239.868 152.445ZM215.23 169.425L219.548 148.64L202.85 145.532L198.565 166.275L215.23 169.425ZM213.756 190.789L215.147 169.998L198.489 166.85L197.212 187.617L213.756 190.789ZM234.014 193.343L235.47 173.46L215.729 170.102L214.338 190.882L234.014 193.343ZM256.422 195.523L234.601 193.981L235.923 212.773L257.413 212.599L256.422 195.523ZM274.13 196.145L257.011 195.552L258 212.578L274.867 211.42L274.13 196.145ZM280.986 210.708L275.516 211.909L278.212 225.575L283.459 223.588L280.986 210.708ZM286.194 229.253L291.979 227.993L290.414 223.105L284.254 224.161L286.194 229.253ZM304.857 234.138L302.94 230.603L294.889 233.297L297.041 237.155L304.857 234.138ZM305.162 234.641L297.365 237.65L299.758 240.955L307.298 237.676L305.162 234.641ZM317.611 236.224L315.599 233.972L308.211 237.88L310.516 240.382L317.611 236.224ZM318.034 236.646L310.968 240.789L313.412 242.771L320.169 238.433L318.034 236.646ZM329.526 234.621L327.65 233.463L321.176 238.433L323.392 239.751L329.526 234.621ZM330.075 234.921L323.986 240.013L326.253 240.882L331.994 235.692L330.075 234.921ZM335.03 235.817L339.999 229.972L338.437 229.623L333.095 235.416L335.03 235.817ZM340.664 230.091L335.756 235.863L337.682 235.919L342.214 230.155L340.664 230.091ZM348.561 223.076L347.416 223.21L343.375 229.524L344.915 229.323L348.561 223.076ZM350.414 222.654L349.302 222.968L345.717 229.108L347.218 228.668L350.414 222.654ZM351.203 222.413L348.079 228.293L349.522 227.638L352.27 221.941L351.203 222.413ZM355.623 214.478L353.427 220.681L354.502 220.03L356.307 214.071L355.623 214.478ZM358.433 206.326L357.233 212.747L357.934 212.212L358.734 206.099L358.433 206.326ZM359.537 199.651L359.424 204.772L359.744 204.475L359.537 199.651ZM361.423 194.72L361.455 194.656L361.175 194.283L361.423 194.72ZM361.021 195.2L361.092 195.363L361.103 195.342L361.021 195.2ZM362.206 188.93L362.923 188.682L362.928 188.551L362.206 188.93ZM363.447 186.576L363.454 186.652L366.565 183.885L366.503 183.166L363.447 186.576ZM363.365 184.784L366.199 180.937L366.073 180.381L363.365 184.784ZM363.36 183.678L365.881 179.578L365.732 179.098L363.36 183.678ZM366.637 169.826L365.065 176.056L365.246 176.396L367.052 170.62L366.637 169.826ZM366.475 161.113L365.904 167.541L366.354 168.209L367.177 162.173L366.475 161.113ZM365.18 158.554L365.944 159.443L365.797 153.27L364.767 152.051L365.18 158.554ZM362.857 149.399L363.982 150.405L362.884 144.211L361.481 142.936L362.857 149.399ZM356.619 134.074L358.927 140.384L360.462 141.403L358.437 135.302L356.619 134.074ZM356.566 129.888L358.927 134.946L360.298 136.211L358.154 131.366L356.566 129.888ZM355.897 128.467L357.06 129.551L354.76 125.753L353.43 124.506L355.897 128.467ZM345.855 116.547L348.966 120.302L350.486 121.357L347.543 117.728L345.855 116.547ZM344.441 114.848L344.777 115.082L342.769 113.164L342.354 112.873L344.441 114.848ZM345.487 118.621L347.695 119.68L344.066 115.301L341.646 114.123L345.487 118.621ZM346.397 123.975L348.87 124.65L345.117 119.105L342.364 118.321L346.397 123.975ZM342.894 123.632L345.612 123.882L341.482 118.09L338.46 117.778L342.894 123.632ZM333.99 117.393L337.197 117.175L332.318 111.918L328.826 112.114L333.99 117.393ZM329.922 118.321L333.306 117.528L328.074 112.18L324.392 112.995L329.922 118.321ZM314.96 116.622L318.842 114.492L318.209 114.014L314.538 116.322L314.96 116.622ZM313.756 116.812L311.408 119.143L314.441 116.966L314.007 116.656L313.756 116.812ZM304.911 124.766L313.181 116.563L309.732 112.158L300.891 120.817L304.911 124.766ZM296.966 135.914L302.172 128.548L302.172 128.545H302.173L304.531 125.209L300.514 121.264L292.426 132.606L296.966 135.914ZM284.722 146.469L291.629 132.8L276.525 125.19L268.706 140.387L284.722 146.469ZM261.912 157.782L267.924 140.725L247.135 133.818L240.443 152.579L261.912 157.782ZM256.43 194.944L257.873 176.928L236.051 173.554L234.598 193.402L256.43 194.944ZM274.141 195.569L275.517 179.476L258.454 177.015L257.017 194.976L274.141 195.569ZM280.648 204.193L280.647 204.19L280.647 204.187L280.272 195.837L274.717 196.139L275.45 211.33L280.914 210.132L280.648 204.193ZM282.867 217.394L288.939 216.646L288.095 210.934L281.716 211.4L282.867 217.394ZM300.833 225.517L299.455 221.063L290.991 222.989L292.549 227.854L300.833 225.517ZM301.028 226.061L292.754 228.395L294.627 232.777L302.692 230.074L301.028 226.061ZM313.091 230.295L311.433 227.141L303.492 230.393L305.398 233.911L313.091 230.295ZM313.389 230.795L305.708 234.403L307.833 237.423L315.24 233.504L313.389 230.795ZM324.961 231.121L323.269 229.169L316.111 233.67L318.11 235.907L324.961 231.121ZM325.372 231.543L318.542 236.315L320.667 238.092L327.171 233.096L325.372 231.543ZM335.762 228.462L334.252 227.49L328.113 233.067L329.978 234.22L335.762 228.462ZM336.291 228.755L330.538 234.482L332.454 235.252L337.841 229.407L336.291 228.755ZM344.932 223.015L343.762 222.73L338.843 229.119L340.403 229.471L344.932 223.015ZM345.563 223.131L341.075 229.529L342.636 229.593L346.729 223.198L345.563 223.131ZM352.04 215.628L351.295 215.703L347.751 222.59L348.908 222.456L352.04 215.628ZM353.456 215.337L352.728 215.534L349.635 222.273L350.772 221.953L353.456 215.337ZM354.174 215.121L351.533 221.633L352.643 221.141L354.882 214.816L354.174 215.121ZM357.459 206.911L355.828 213.681L356.541 213.256L357.76 206.736L357.459 206.911ZM358.51 205.54L358.825 205.304L358.934 200.391L358.51 205.54ZM362.461 188.141L362.938 187.891L362.935 187.806L362.461 188.141ZM363.338 185.822L366.427 182.377L366.33 181.743L363.336 185.811L363.338 185.822ZM363.246 182.628L365.478 178.316L365.308 177.902L363.246 182.628ZM364.804 176.809L363.025 181.671L364.992 177.164L364.804 176.809ZM365.754 168.364L364.428 175.102L364.628 175.394L366.225 169.063L365.754 168.364ZM365.155 159.419L364.858 166.325L365.371 166.91L365.954 160.349L365.155 159.419ZM363.683 157.222L364.556 157.986L364.132 151.32L362.959 150.271L363.683 157.222ZM360.874 148.097L362.156 148.925L360.743 142.283L359.151 141.231L360.874 148.097ZM353.751 132.6L356.438 139.26L358.173 140.028L355.8 133.54L353.751 132.6ZM353.47 127.496L356.264 133.131L357.974 134.29L355.433 128.842L353.47 127.496ZM352.927 126.418L354.682 127.624L351.784 122.966L349.812 121.598L352.927 126.418ZM349.751 124.909L351.914 125.928L348.562 120.739L346.146 119.583L349.751 124.909ZM350.417 131.01L352.638 131.588L349.351 125.381L346.818 124.691L350.417 131.01ZM347.284 130.741L349.697 130.926L346.036 124.5L343.289 124.25L347.284 130.741ZM339.273 123.903L342.185 123.666L337.684 117.718L334.452 117.94L339.273 123.903ZM335.571 124.797L338.628 124.035L333.76 118.015L330.368 118.812L335.571 124.797ZM325.805 119.933L329.307 118.537L323.731 113.167L319.921 114.629L325.805 119.933ZM321.682 122.229L325.25 120.214L319.333 114.885L315.453 117.012L321.682 122.229ZM317.598 125.197L321.178 122.563L314.927 117.331L311.034 120.127L317.598 125.197ZM309.738 133.053L313.189 129.232L306.29 124.356L304.375 126.44L302.832 128.623L309.738 133.053ZM306.056 137.873L309.367 133.506L302.496 129.101L299.119 133.881L306.056 137.873ZM297.287 136.473L295.673 139.688L302.601 143.227L305.725 138.351L298.783 134.355L297.287 136.473ZM290.234 149.218L291.854 145.991H291.854L295.022 139.681L295.022 139.678H295.023L296.663 136.414L292.128 133.109L285.258 146.707L290.234 149.218ZM279.172 162.256L284.497 147.003L268.476 140.922L262.483 157.925L279.172 162.256ZM257.956 176.355L261.757 158.339L240.285 153.135L236.131 172.981L257.956 176.355ZM275.602 178.906L279.017 162.814L262.326 158.482L258.537 176.442L275.602 178.906ZM280.282 195.255L281.596 180.204L276.099 179.552L274.73 195.561L280.282 195.255ZM281.221 203.888L287.558 203.754L287.514 197.484L280.924 197.268L281.221 203.888ZM287.581 204.333L281.247 204.467L281.51 210.327L281.607 210.83L288.032 210.362L287.581 204.333ZM298.14 215.086L297.41 209.896L288.68 210.879L289.52 216.562L298.14 215.086ZM298.242 215.657L289.626 217.129L290.838 222.43L299.307 220.504L298.242 215.657ZM309.566 222.497L308.383 218.54L300.023 220.917L301.392 225.34L309.566 222.497ZM309.758 223.044L301.588 225.884L303.241 229.87L311.191 226.614L309.758 223.044ZM321.073 225.858L319.686 223.134L311.967 226.902L313.611 230.027L321.073 225.858ZM321.366 226.358L313.911 230.525L315.748 233.213L322.919 228.703L321.366 226.358ZM331.937 225.412L330.58 223.795L323.753 228.834L325.426 230.769L331.937 225.412ZM332.34 225.834L325.842 231.179L327.627 232.721L333.786 227.126L332.34 225.834ZM341.515 221.712L340.387 220.958L334.672 227.071L336.165 228.028L341.515 221.712ZM342.03 222.005L336.701 228.299L338.239 228.947L343.188 222.52L342.03 222.005ZM349.285 215.514L348.527 215.313L344.11 222.221L345.27 222.5L349.285 215.514ZM349.89 215.633L345.903 222.573L347.068 222.64L350.645 215.689L349.89 215.633ZM354.853 207.699L354.536 207.725L351.558 215.095L352.301 215.022L354.853 207.699ZM355.812 207.536L355.502 207.615L352.975 214.868L353.711 214.67L355.812 207.536ZM356.481 207.341L354.404 214.391L355.129 214.08L356.783 207.213L356.481 207.341ZM357.576 206.172L357.885 205.991L358.296 200.99L357.576 206.172ZM362.708 187.254L362.906 187.114L362.903 187.082L362.708 187.254ZM364.221 175.832L362.706 180.838L364.427 176.133L364.221 175.832ZM364.76 167.097L363.719 174.285L363.942 174.534L365.287 167.699L364.76 167.097ZM363.716 165.325L364.293 165.817L364.594 158.792L363.698 158.007L363.716 165.325ZM362.068 156.182L363.049 156.798L362.312 149.718L361 148.868L362.068 156.182ZM358.761 147.166L360.19 147.778L358.433 140.778L356.665 139.994L358.761 147.166ZM353.814 138.588L355.725 139.057L352.988 132.275L350.735 131.691L353.814 138.588ZM351.078 138.391L353.141 138.516L350.024 131.532L347.6 131.344L351.078 138.391ZM344.05 131.025L346.619 130.776L342.58 124.213L339.658 124.45L344.05 131.025ZM340.745 131.866L343.433 131.154L339.011 124.534L335.957 125.297L340.745 131.866ZM331.826 126.315L334.982 125.006L329.747 118.983L326.248 120.38L331.826 126.315ZM328.077 128.458L331.288 126.593L325.687 120.633L322.129 122.641L328.077 128.458ZM324.367 131.213L327.585 128.792L321.622 122.96L318.055 125.581L324.367 131.213ZM317.228 138.469L320.33 134.98L313.656 129.585L310.222 133.387L317.228 138.469ZM313.885 142.908L316.861 138.922L309.85 133.834L306.556 138.179L313.885 142.908ZM310.746 147.828L313.556 143.386L306.223 138.657L303.116 143.505L310.746 147.828ZM290.637 149.718L289.623 152.632L296.544 155.288L299.158 149.571L292.258 146.488L290.637 149.718ZM285.039 164.026L290.005 149.752L285.034 147.241L279.737 162.416L285.039 164.026ZM281.681 179.631L284.882 164.583L279.582 162.974L276.185 178.982L281.681 179.631ZM287.95 189.89L288.734 183.361L281.994 182.392L281.389 189.317L287.95 189.89ZM287.529 196.905L287.899 190.466L281.339 189.893L280.846 195.537L280.898 196.689L287.529 196.905ZM296.971 203.844L288.168 204.31L288.616 210.306L297.349 209.32L296.971 203.844ZM307.232 213.102L306.617 208.496L297.991 209.817L298.716 214.973L307.232 213.102ZM307.331 213.672L298.818 215.543L299.876 220.359L308.24 217.978L307.331 213.672ZM318.063 218.976L317.079 215.567L308.943 218.365L310.115 222.288L318.063 218.976ZM318.251 219.527L310.304 222.835L311.725 226.375L319.448 222.605L318.251 219.527ZM328.701 220.882L327.589 218.633L320.203 222.861L321.574 225.552L328.701 220.882ZM328.989 221.386L321.865 226.056L323.401 228.371L330.235 223.326L328.989 221.386ZM338.449 219.169L337.434 217.918L331.036 223.428L332.371 225.022L338.449 219.169ZM338.849 219.59L332.776 225.442L334.203 226.719L339.929 220.591L338.849 219.59ZM346.71 214.455L345.974 213.943L340.766 220.513L341.873 221.252L346.71 214.455ZM347.216 214.749L342.392 221.531L343.532 222.037L347.97 215.101L347.216 214.749ZM353 207.554L352.667 207.46L348.822 214.793L349.563 214.987L353 207.554ZM353.588 207.676L350.168 215.072L350.913 215.127L353.913 207.705L353.588 207.676ZM356.394 201.662L354.735 207.129L355.041 207.103L356.394 201.662ZM356.629 206.652L356.935 206.524L357.645 201.418L356.629 206.652ZM357.006 201.633L355.678 206.972L355.985 206.896L357.006 201.633ZM363.563 174.984L362.298 180.163L363.789 175.236L363.563 174.984ZM363.662 166.043L362.947 173.614L363.194 173.819L364.248 166.542L363.662 166.043ZM362.487 164.548L363.128 164.938L363.11 157.521L362.117 156.898L362.487 164.548ZM360.35 155.45L361.434 155.892L360.35 148.478L358.907 147.859L360.35 155.45ZM356.536 146.629L358.098 146.985L355.974 139.713L354.049 139.241L356.536 146.629ZM354.219 146.491L355.896 146.566L353.387 139.113L351.324 138.985L354.219 146.491ZM348.255 138.676L350.443 138.429L346.937 131.325L344.369 131.575L348.255 138.676ZM345.374 139.45L347.66 138.807L343.754 131.669L341.076 132.378L345.374 139.45ZM337.404 133.271L340.175 132.075L335.365 125.475L332.219 126.777L337.404 133.271ZM334.062 135.233L336.878 133.546L331.678 127.036L328.483 128.892L334.062 135.233ZM330.756 137.742L333.579 135.567L327.99 129.214L324.79 131.622L330.756 137.742ZM320.736 134.562L323.919 131.594L317.596 125.953L314.07 129.173L320.736 134.562ZM324.401 144.311L327.12 141.196L320.771 135.361L317.69 138.829L324.401 144.311ZM321.424 148.315L324.036 144.767L317.323 139.278L314.367 143.239L321.424 148.315ZM318.63 152.745L321.097 148.796L314.038 143.717L311.248 148.128L318.63 152.745ZM307.853 153.176L310.454 148.331L302.821 144.005L299.947 149.303L307.853 153.176ZM305.239 158.894L307.596 153.698L299.688 149.821L297.087 155.506L305.239 158.894ZM290.133 175.696L291.717 169.249L284.87 167.459L283.407 174.338L290.133 175.696ZM297.362 190.568L298.089 184.644L289.315 183.442L288.535 189.936L297.362 190.568ZM296.953 196.992L297.309 191.144L288.484 190.513L288.116 196.916L296.953 196.992ZM296.937 197.568L288.101 197.495L288.145 203.734L296.951 203.265L296.937 197.568ZM306.252 203.061L297.556 203.803L297.932 209.241L306.559 207.917L306.252 203.061ZM316.091 210.719L315.59 206.754L307.195 208.394L307.804 212.96L316.091 210.719ZM316.188 211.292L307.901 213.533L308.802 217.801L316.939 215.002L316.188 211.292ZM326.211 214.999L325.428 212.183L317.631 215.36L318.602 218.729L326.211 214.999ZM326.397 215.555L318.785 219.285L319.968 222.328L327.354 218.098L326.397 215.555ZM335.872 215.433L335.04 213.696L328.089 218.325L329.182 220.536L335.872 215.433ZM336.159 215.945L329.467 221.051L330.692 222.957L337.092 217.443L336.159 215.945ZM344.415 212.465L343.746 211.613L337.863 217.519L338.855 218.741L344.415 212.465ZM344.813 212.895L339.252 219.171L340.309 220.149L345.522 213.573L344.813 212.895ZM351.281 206.78L350.944 206.535L346.316 213.472L347.026 213.966L351.281 206.78ZM351.783 207.079L347.532 214.257L348.263 214.6L352.12 207.245L351.783 207.079ZM353.81 207.114L354.118 207.143L355.825 201.519L353.81 207.114ZM355.324 201.182L352.914 206.928L353.223 207.015L355.324 201.182ZM362.836 174.279L361.817 179.66L363.082 174.483L362.836 174.279ZM362.472 165.218L362.116 173.094L362.391 173.255L363.114 165.608L362.472 165.218ZM361.181 164.004L361.886 164.28L361.513 156.551L360.429 156.107L361.181 164.004ZM358.544 155.035L359.722 155.281L358.264 147.619L356.702 147.26L358.544 155.035ZM356.665 154.944L357.929 154.978L356.074 147.153L354.406 147.078L356.665 154.944ZM351.832 146.763L353.607 146.532L350.695 138.982L348.517 139.228L351.832 146.763ZM349.396 147.453L351.25 146.897L347.924 139.332L345.657 139.972L349.396 147.453ZM342.464 140.715L344.818 139.66L340.506 132.566L337.752 133.753L342.464 140.715ZM339.556 142.468L341.947 140.993L337.226 134.015L334.431 135.689L339.556 142.468ZM336.681 144.695L339.078 142.802L333.947 136.017L331.148 138.173L336.681 144.695ZM327.523 140.775L330.314 138.123L324.341 131.994L321.179 134.943L327.523 140.775ZM331.158 150.496L333.47 147.803L327.536 141.606L324.841 144.695L331.158 150.496ZM328.572 154.019L330.795 150.955L324.478 145.151L321.889 148.668L328.572 154.019ZM326.146 157.908L328.246 154.5L321.564 149.153L319.119 153.067L326.146 157.908ZM316.053 157.554L318.339 153.248L310.956 148.631L308.373 153.445L316.053 157.554ZM313.724 162.689L315.797 158.075L308.117 153.963L305.776 159.126L313.724 162.689ZM302.938 164.915L305.016 159.428L296.864 156.041L294.574 162.046L302.938 164.915ZM300.98 171.168L302.75 165.462L294.385 162.593L292.439 168.842L300.98 171.168ZM299.385 177.58L300.825 171.725L292.283 169.399L290.708 175.813L299.385 177.58ZM298.175 184.071L299.264 178.144L290.587 176.378L289.402 182.872L298.175 184.071ZM306.65 191.091L307.305 185.84L298.67 184.72L297.948 190.606L306.65 191.091ZM306.263 196.852L306.596 191.667L297.896 191.182L297.542 196.989L306.263 196.852ZM306.233 202.482L306.244 197.429L297.524 197.568L297.537 203.224L306.233 202.482ZM315.294 201.994L306.836 203L307.14 207.816L315.534 206.174L315.294 201.994ZM324.601 207.976L324.208 204.699L316.165 206.631L316.661 210.548L324.601 207.976ZM324.696 208.552L316.752 211.127L317.494 214.79L325.29 211.615L324.696 208.552ZM333.906 210.623L333.32 208.441L325.971 211.947L326.74 214.714L333.906 210.623ZM334.09 211.185L326.919 215.281L327.859 217.781L334.806 213.154L334.09 211.185ZM342.5 209.585L341.945 208.392L335.525 213.352L336.335 215.046L342.5 209.585ZM342.787 210.108L336.616 215.573L337.525 217.033L343.404 211.129L342.787 210.108ZM349.76 205.389L349.438 204.964L344.149 211.182L344.79 211.996L349.76 205.389ZM350.159 205.828L345.184 212.445L345.865 213.096L350.492 206.16L350.159 205.828ZM352.056 206.567L352.366 206.719L354.891 200.702L352.056 206.567ZM354.542 200.079L351.248 206.038L351.556 206.259L354.542 200.079ZM362.047 173.726L361.275 179.369L362.314 173.882L362.047 173.726ZM361.234 172.731L361.54 172.844L361.899 164.906L361.2 164.634L361.234 172.731ZM359.808 163.703L360.576 163.85L359.819 155.894L358.65 155.647L359.808 163.703ZM358.382 163.649L359.209 163.656L358.045 155.559L356.798 155.528L358.382 163.649ZM354.731 155.191L356.068 154.991L353.8 147.091L352.042 147.319L354.731 155.191ZM352.76 155.772L354.158 155.325L351.463 147.438L349.633 147.984L352.76 155.772ZM346.94 148.556L348.849 147.666L345.101 140.169L342.77 141.215L346.94 148.556ZM344.487 150.068L346.427 148.837L342.253 141.487L339.888 142.946L344.487 150.068ZM342.063 151.983L344.011 150.408L339.41 143.28L337.041 145.151L342.063 151.983ZM333.871 147.378L336.242 145.079L330.705 138.554L327.939 141.184L333.871 147.378ZM337.411 156.94L339.294 154.707L333.861 148.244L331.577 150.905L337.411 156.94ZM335.235 159.938L337.047 157.402L331.215 151.367L329.02 154.394L335.235 159.938ZM333.192 163.244L334.908 160.426L328.696 154.885L326.621 158.251L333.192 163.244ZM323.907 162.124L325.856 158.413L318.83 153.573L316.564 157.84L323.907 162.124ZM321.881 166.621L323.651 162.647L316.31 158.363L314.254 162.936L321.881 166.621ZM311.67 168.092L313.502 163.224L305.555 159.662L303.49 165.111L311.67 168.092ZM309.917 173.7L311.482 168.639L303.302 165.658L301.544 171.324L309.917 173.7ZM308.487 179.447L309.763 174.258L301.389 171.882L299.96 177.696L308.487 179.447ZM307.393 185.267L308.365 180.012L299.838 178.263L298.758 184.149L307.393 185.267ZM315.683 191.452L316.257 186.934L307.887 185.913L307.237 191.118L315.683 191.452ZM315.326 196.489L315.628 192.028L307.182 191.694L306.851 196.835L315.326 196.489ZM315.277 201.414L315.305 197.068L306.831 197.414L306.82 202.421L315.277 201.414ZM323.976 200.664L315.877 201.915L316.115 206.046L324.155 204.117L323.976 200.664ZM332.649 204.903L332.36 202.36L324.781 204.548L325.168 207.769L332.649 204.903ZM332.741 205.488L325.255 208.357L325.84 211.368L333.184 207.865L332.741 205.488ZM341.048 205.904L340.656 204.394L333.854 208.171L334.425 210.294L341.048 205.904ZM341.232 206.48L334.6 210.876L335.298 212.794L341.711 207.836L341.232 206.48ZM348.499 203.411L348.22 202.794L342.412 208.007L342.943 209.148L348.499 203.411ZM348.789 203.949L343.222 209.698L343.813 210.676L349.094 204.469L348.789 203.949ZM350.498 205.345L350.799 205.642L354.279 199.346L350.498 205.345ZM354.096 198.543L349.814 204.496L350.104 204.874L354.096 198.543ZM361.202 173.336L360.703 179.226L361.493 173.444L361.202 173.336ZM360.309 172.529L360.647 172.587L360.613 164.446L359.86 164.302L360.309 172.529ZM359.348 172.492L359.719 172.488L359.269 164.234L358.466 164.228L359.348 172.492ZM356.915 163.847L357.795 163.701L356.206 155.556L354.893 155.75L356.915 163.847ZM355.421 164.299L356.346 163.989L354.321 155.882L352.953 156.317L355.421 164.299ZM350.773 156.687L352.216 155.987L349.086 148.194L347.206 149.071L350.773 156.687ZM348.791 157.934L350.261 156.973L346.693 149.356L344.784 150.568L348.791 157.934ZM346.833 159.503L348.313 158.281L344.307 150.914L342.393 152.464L346.833 159.503ZM339.695 154.279L341.624 152.37L336.603 145.538L334.26 147.813L339.695 154.279ZM343.08 163.552L344.519 161.819L339.659 155.181L337.808 157.373L343.08 163.552ZM341.325 165.992L342.714 164.021L337.446 157.848L335.664 160.34L341.325 165.992ZM339.678 168.677L340.996 166.487L335.34 160.84L333.653 163.61L339.678 168.677ZM331.307 166.821L332.902 163.753L326.333 158.762L324.407 162.428L331.307 166.821ZM329.599 170.633L331.051 167.347L324.155 162.955L322.405 166.883L329.599 170.633ZM318.562 176.251L319.905 171.896L312.032 168.846L310.481 173.863L318.562 176.251ZM317.31 181.275L318.407 176.809L310.326 174.421L309.061 179.567L317.31 181.275ZM316.346 186.361L317.188 181.839L308.94 180.131L307.976 185.339L316.346 186.361ZM324.34 191.644L324.822 187.908L316.84 187.001L316.272 191.47L324.34 191.644ZM324.022 195.907L324.283 192.22L316.214 192.046L315.916 196.457L324.022 195.907ZM323.962 200.079L324 196.489L315.893 197.036L315.865 201.333L323.962 200.079ZM332.183 199.087L324.558 200.562L324.735 203.96L332.31 201.772L332.183 199.087ZM340.225 202.151L333.295 205.264L333.727 207.577L340.521 203.803L340.225 202.151ZM347.553 200.911L347.347 200.094L341.182 204.086L341.557 205.532L347.553 200.911ZM347.737 201.502L341.73 206.131L342.188 207.429L347.984 202.223L347.737 201.502ZM349.202 203.498L349.476 203.966L354.016 197.653L349.202 203.498ZM360.311 173.116L360.109 179.296L360.627 173.17L360.311 173.116ZM359.513 179.532L359.725 173.066L359.383 173.07L359.513 179.532ZM358.358 172.624L358.764 172.549L357.88 164.272L357.031 164.413L358.358 172.624ZM357.351 172.927L357.788 172.773L356.461 164.561L355.571 164.859L357.351 172.927ZM353.917 165.005L354.877 164.522L352.408 156.538L350.999 157.222L353.917 165.005ZM352.417 165.961L353.402 165.298L350.486 157.52L349.053 158.457L352.417 165.961ZM350.936 167.159L351.934 166.315L348.574 158.82L347.132 160.011L350.936 167.159ZM344.923 161.382L346.392 159.899L341.955 152.864L340.059 154.738L344.923 161.382ZM348.097 170.242L349.082 169.038L344.856 162.326L343.454 164.014L348.097 170.242ZM346.77 172.096L347.727 170.721L343.089 164.502L341.736 166.423L346.77 172.096ZM345.526 174.134L346.439 172.6L341.411 166.933L340.124 169.07L345.526 174.134ZM338.157 171.58L339.387 169.192L333.366 164.128L331.797 167.146L338.157 171.58ZM336.78 174.669L337.901 172.111L331.545 167.679L330.116 170.911L336.78 174.669ZM328.091 174.635L329.378 171.172L322.186 167.423L320.637 171.565L328.091 174.635ZM326.797 178.787L327.903 175.185L320.451 172.114L319.123 176.42L326.797 178.787ZM325.734 183.035L326.643 179.343L318.969 176.978L317.884 181.394L325.734 183.035ZM324.912 187.338L325.612 183.599L317.761 181.959L316.93 186.43L324.912 187.338ZM332.505 191.671L332.888 188.758L325.406 187.972L324.93 191.65L332.505 191.671ZM332.236 195.121L332.448 192.249L324.87 192.229L324.613 195.857L332.236 195.121ZM332.17 198.499L332.212 195.703L324.587 196.442L324.549 199.974L332.17 198.499ZM339.942 199.774L332.931 202.183L333.212 204.664L340.133 201.554L339.942 199.774ZM347.054 198.581L340.773 201.889L341.057 203.475L347.211 199.491L347.054 198.581ZM353.342 195.712L353.318 195.61L347.863 199.745L348.049 200.484L353.342 195.712ZM353.791 196.977L348.67 202.366L348.921 202.922L353.8 196.998L353.791 196.977ZM358.934 179.925L358.797 173.131L358.428 173.2L358.934 179.925ZM358.387 180.469L357.852 173.364L357.457 173.504L358.387 180.469ZM356.337 173.4L356.802 173.158L355.024 165.097L354.103 165.56L356.337 173.4ZM355.324 174.042L355.814 173.704L353.585 165.876L352.642 166.509L355.324 174.042ZM354.324 174.847L354.833 174.409L352.156 166.89L351.202 167.696L354.324 174.847ZM349.491 168.591L350.489 167.565L346.691 160.426L345.26 161.87L349.491 168.591ZM352.407 176.92L352.931 176.27L349.388 169.585L348.446 170.736L352.407 176.92ZM351.511 178.167L352.029 177.414L348.076 171.242L347.161 172.558L351.511 178.167ZM350.669 179.54L351.173 178.685L346.831 173.084L345.956 174.556L350.669 179.54ZM344.376 176.334L345.232 174.656L339.837 169.597L338.636 171.928L344.376 176.334ZM343.333 178.674L344.118 176.87L338.384 172.467L337.288 174.967L343.333 178.674ZM335.56 177.911L336.558 175.211L329.898 171.455L328.63 174.865L335.56 177.911ZM334.513 181.269L335.373 178.461L328.445 175.416L327.356 178.962L334.513 181.269ZM333.649 184.705L334.358 181.827L327.203 179.52L326.308 183.157L333.649 184.705ZM332.978 188.185L333.527 185.272L326.186 183.722L325.497 187.402L332.978 188.185ZM340.078 191.534L340.352 189.471L333.472 188.816L333.098 191.665L340.078 191.534ZM339.863 194.141L340.019 192.113L333.036 192.244L332.829 195.051L339.863 194.141ZM339.801 196.698L339.838 194.728L332.8 195.639L332.759 198.371L339.801 196.698ZM339.812 197.292L332.764 198.965L332.888 201.586L339.893 199.18L339.812 197.292ZM346.862 196.98L340.51 199.567L340.693 201.275L346.964 197.976L346.862 196.98ZM353.155 194.839L347.597 198.281L347.74 199.107L353.179 194.987L353.155 194.839ZM353.88 195.159L353.823 195.209L353.825 195.217L353.88 195.159ZM353.531 196.326L348.222 201.109L348.444 201.758L353.55 196.384L353.531 196.326ZM357.883 181.123L356.9 173.76L356.482 173.978L357.883 181.123ZM357.429 181.857L355.95 174.316L355.511 174.619L357.429 181.857ZM356.968 182.465L356.981 182.453L355.012 175.023L354.555 175.417L356.968 182.465ZM353.348 175.809L353.868 175.266L350.753 168.13L349.798 169.11L353.348 175.809ZM355.968 183.498L356.029 183.422L353.202 176.863L352.728 177.452L355.968 183.498ZM355.499 184.126L355.579 184.01L352.348 177.981L351.878 178.665L355.499 184.126ZM355.057 184.824L355.152 184.661L351.54 179.212L351.079 179.994L355.057 184.824ZM349.891 181.021L350.37 180.073L345.664 175.096L344.842 176.707L349.891 181.021ZM349.185 182.595L349.631 181.563L344.589 177.257L343.833 178.993L349.185 182.595ZM341.615 183.666L342.222 181.679L335.91 178.705L335.069 181.452L341.615 183.666ZM340.957 186.267L341.46 184.225L334.916 182.011L334.223 184.827L340.957 186.267ZM340.443 188.898L340.834 186.832L334.1 185.395L333.564 188.246L340.443 188.898ZM346.968 191.234L347.129 190.038L340.937 189.523L340.672 191.513L346.968 191.234ZM346.815 192.988L346.908 191.816L340.608 192.095L340.458 194.051L346.815 192.988ZM346.764 194.705L346.789 193.579L340.427 194.641L340.391 196.541L346.764 194.705ZM346.774 195.304L340.393 197.143L340.47 198.956L346.814 196.372L346.774 195.304ZM353.045 194.021L347.427 196.736L347.52 197.644L353.064 194.213L353.045 194.021ZM353.691 194.49L353.699 194.536L354.034 194.237L353.691 194.49ZM356.46 182.942L356.498 182.901L354.092 175.875L353.624 176.364L356.46 182.942ZM356.258 184.071L356.261 184.08L356.258 184.071H356.258ZM355.838 184.667L356.013 184.987L355.862 184.632L355.838 184.667ZM355.445 185.319L355.831 185.872L355.488 185.243L355.445 185.319ZM354.649 185.575L354.752 185.371L350.783 180.553L350.343 181.423L354.649 185.575ZM354.277 186.378L354.385 186.131L350.087 181.984L349.675 182.939L354.277 186.378ZM348.56 184.245L348.963 183.146L343.615 179.546L342.939 181.385L348.56 184.245ZM348.02 185.953L348.371 184.798L342.754 181.941L342.169 183.861L348.02 185.953ZM347.573 187.699L347.865 186.512L342.016 184.42L341.53 186.39L347.573 187.699ZM347.22 189.465L347.449 188.263L341.408 186.957L341.03 188.95L347.22 189.465ZM353.015 191.676L353.04 191.371L347.499 191.781L347.413 192.869L353.015 191.676ZM352.981 192.552L352.987 192.276L347.378 193.469L347.355 194.513L352.981 192.552ZM352.989 193.163L347.354 195.127L347.391 196.108L352.997 193.399L352.989 193.163ZM353.607 193.733L353.616 193.823L354.234 193.37L353.607 193.733ZM355.083 186.014L355.698 186.701L355.14 185.901L355.083 186.014ZM354.754 186.753L355.62 187.487L354.821 186.596L354.754 186.753ZM353.947 187.222L354.051 186.937L349.456 183.5L349.082 184.519L353.947 187.222ZM353.662 188.094L353.757 187.78L348.898 185.08L348.571 186.154L353.662 188.094ZM353.425 188.985L353.507 188.653L348.418 186.715L348.145 187.824L353.425 188.985ZM353.101 190.786L353.146 190.46L347.714 190.082L347.564 191.196L353.101 190.786ZM354.934 191.17L353.633 191.319L353.616 191.528L354.934 191.17ZM354.709 191.83L353.578 192.136L353.574 192.313L354.709 191.83ZM353.574 193.082L354.468 192.564L353.569 192.945L353.574 193.082ZM354.462 187.518L355.555 188.194L354.532 187.326L354.462 187.518ZM354.21 188.31L355.493 188.836L354.277 188.086L354.21 188.31ZM353.732 190.495L353.701 190.728L355.135 190.568L353.732 190.495ZM353.998 189.113L355.412 189.43L354.056 188.871L353.998 189.113ZM353.828 189.922L355.292 189.995L353.874 189.677L353.828 189.922ZM347.809 189.509L353.238 189.887L353.302 189.549L348.023 188.388L347.809 189.509ZM336.095 178.153L342.41 181.126L343.111 179.218L337.071 175.514L336.095 178.153ZM312.218 168.297L320.092 171.347L321.66 167.158L314.034 163.473L312.218 168.297ZM282.203 179.994L282.044 181.816L288.82 182.79L290.012 176.261L283.286 174.904L282.203 179.994ZM285.508 164.461L284.99 166.893L291.872 168.691L293.829 162.409L286.988 160.206L285.508 164.461ZM287.179 159.659L294.018 161.861L296.32 155.825L289.433 153.179L287.179 159.659ZM292.518 145.97L299.416 149.053L302.306 143.727L295.413 140.203L292.518 145.97ZM306.714 123.944L313.601 128.814L317.142 125.578L310.563 120.495L306.714 123.944ZM353.419 131.813L355.408 132.722L352.492 126.837L350.218 125.771L353.419 131.813ZM284.06 223.606L290.263 222.544L289.045 217.216L282.976 217.961L284.06 223.606ZM215.806 169.528L235.551 172.887L239.713 153.004L220.121 148.756L215.806 169.528ZM318.736 113.682L319.423 114.201L323.224 112.739L321.908 111.689L318.736 113.682ZM288.186 234.484L294.062 232.942L292.18 228.543L286.402 229.8L288.186 234.484ZM326.465 110.05L328.272 111.568L331.715 111.374L329.248 109.215L326.465 110.05ZM293.609 243.091L299.192 241.168L296.792 237.854L291.303 239.527L293.609 243.091ZM363.048 199.919L361.399 196.003L361.369 196.055L362.699 200.53L363.048 199.919ZM300.032 249.195L305.357 246.978L302.625 244.828L297.387 246.83L300.032 249.195ZM364.171 204.155L363.271 200.708L362.918 201.324L363.528 205.281L364.171 204.155ZM307.006 252.745L312.207 250.272L309.382 249.277L304.301 251.552L307.006 252.745ZM283.995 73.0894L278.761 72.5802L287.34 74.0858L292.436 74.5732L283.995 73.0894ZM365.644 208.147L365.733 206.806L365.069 208.159L364.844 209.78L365.644 208.147ZM313.318 253.856C313.361 253.839 313.406 253.827 313.456 253.83L314.197 253.891C314.215 253.81 314.263 253.737 314.343 253.696L319.275 251.133L316.748 251.142L311.567 253.731L313.318 253.856ZM196.619 238.052L204.583 244.906L197.322 235.872L189.779 229.605L196.619 238.052ZM181.764 217.411L184.662 222.072L180.622 213.966L178.07 210.021L181.764 217.411ZM184.249 122.051L181.237 125.6L180.394 127.111L185.698 124.756L190.629 115.907L184.249 122.051ZM230.654 85.1439L219.409 92.4566L231.295 92.1192L243.495 81.6734L236.485 82.0889L230.654 85.1439ZM247.696 76.2162L237.733 81.436L244.259 81.0487L256.442 74.7762L250.018 75.2697L247.696 76.2162ZM262.344 71.1183L258.34 72.3209L271.246 71.2682L271.272 71.2713H271.299L273.38 71.4744L268.371 69.925L262.344 71.1183ZM271.573 69.2909L280.341 69.6751L275.036 68.6068L271.573 69.2909ZM322.252 252.343C322.09 252.329 321.971 252.189 321.985 252.029C321.999 251.872 322.141 251.753 322.303 251.767L322.645 251.796C322.648 251.697 322.697 251.601 322.792 251.552L325.287 250.193L324.414 250.472L319.258 253.231C319.214 253.254 319.165 253.266 319.119 253.266C319.014 253.266 318.913 253.21 318.86 253.114C318.783 252.975 318.836 252.797 318.978 252.721L322.615 250.778L320.563 251.118L315.085 253.964L316.987 254.118L323.681 252.466L322.252 252.343ZM177.391 263.4L163.465 263.999L177.385 269.224L191.323 268.485L177.391 263.4ZM193.058 261.351L178.647 263.243L192.785 268.401L207.191 266.338L193.058 261.351ZM208.83 257.941L194.145 261.121L208.417 266.155L223.09 262.774L208.83 257.941ZM151.711 264.502L162.362 268.593L175.539 269.152L161.969 264.057L151.147 263.51L151.711 264.502ZM153.271 267.266L159.765 268.218L152.158 265.297L153.271 267.266ZM162.628 150.127L152.574 169.748L145.189 190.172L140.874 210.952L140.084 227.062L141.91 240.95L146.866 255.942L150.807 262.914L162.035 263.481L177.413 262.82L193.036 260.772L208.774 257.362L216.884 254.95L206.627 247.429L206.615 247.417L206.609 247.414L196.21 238.468L196.194 238.444L196.175 238.43L187.465 227.676L187.455 227.656L187.442 227.647L181.256 217.702L181.25 217.688L181.244 217.679L175.187 205.572L175.178 205.534L175.168 205.52L171.211 191.339V191.336L171.208 191.31L171.205 191.301L170.263 184.466V184.461L170.26 184.458L168.903 171.527V171.504L168.9 171.482L169.616 158.003L169.623 157.984V157.961L172.356 144.573L172.365 144.554L172.369 144.533L177.036 131.885L177.052 131.866L177.058 131.844L177.065 131.835L179.23 127.961L171.31 137.282L165.815 145.354L162.628 150.127ZM325.256 87.09L316.835 83.4664L328.851 92.8033L336.299 95.9333L325.256 87.09ZM346.054 104.146L340.787 99.6693L346.755 106.582L351.394 110.493L346.054 104.146ZM369.167 130.004L363.614 129.376L364.604 131.641L364.608 131.663L364.619 131.685L366.115 137.532L370.139 138.029L369.167 130.004ZM243.188 265.678L254.853 268.014L246.826 265.081L234.928 262.701L243.188 265.678ZM396.249 132.044L369.765 130.057L370.738 138.098L397.102 140.653L396.249 132.044ZM339.638 243.618L340.425 242.294L333.958 247.906L332.939 249.448L339.638 243.618ZM331.31 250.853L332.834 248.549L325.648 252.547L323.753 255.09L331.31 250.853ZM320.364 256.9L313.809 258.558L304.581 263.167L312.014 261.246L320.364 256.9ZM270.591 269.192L272.53 269.108H272.541L279.243 268.817L275.013 268.654L265.978 269.024L270.591 269.192ZM417.458 131.3L396.839 132.05L397.695 140.69L418.248 141.084L417.458 131.3ZM432.25 129.108L418.042 131.247L418.836 141.071L432.963 140.109L432.25 129.108ZM440.683 126.955L432.83 128.992L433.547 140.037L441.265 138.669L440.683 126.955ZM0.726074 205.869L18.124 218.121L18.0764 193.675L0.589722 184.239L0.726074 205.869ZM288.876 337.503L293.672 335.283L282.46 339.455L277.399 341.765L288.876 337.503ZM166.607 348.716L185.033 351.099L172.185 348.259L153.271 345.818L166.607 348.716ZM91.4668 321.387L122.039 334.849L109.312 327.712L78.7426 314.34L91.4668 321.387ZM36.2988 277.735L48.7631 290.263L42.1932 282.961L30.7087 271.633L36.2988 277.735ZM-3.05176e-05 183.753L0.00311279 183.739V183.713V183.704L3.74463 161.011L3.75415 160.988L3.75732 160.966L11.253 138.622L11.2625 138.604L11.2689 138.582L22.1858 117.075H22.1889V117.072L22.2016 117.056L22.2079 117.037L36.1466 96.7924L36.1561 96.783L36.1656 96.7674L52.6567 78.1655L52.6789 78.1498L52.6821 78.1404L71.2437 61.4846L71.2532 61.4815L71.2659 61.4659V61.4628L91.4097 46.981L91.4224 46.9748L91.4351 46.9623L112.692 34.8109L112.704 34.8047L112.717 34.7953L134.652 25.0617L134.662 25.0586L134.678 25.0523L134.989 24.9493L156.898 17.7709L187.075 7.78116H187.094L187.109 7.7749L210.242 2.74258H210.257L210.274 2.73633L232.866 0.365387H232.88H232.886L232.897 0.362274H232.898H232.901H232.902L254.425 0.471588H254.426H254.428L294.022 0.974518L294.039 0.980774L294.056 0.977661L313.688 3.48288L313.705 3.48914H313.723L331.555 8.04044H331.559H331.562L354.903 14.5878L354.918 14.5941L354.934 14.5972L370.182 20.7291L370.198 20.7385L370.218 20.7447L383.633 28.3448L383.648 28.3573L383.665 28.3667L395.357 37.1881L395.375 37.2069L395.385 37.2131L405.453 47.0467H405.453L405.457 47.0498L413.512 55.2309L413.515 55.2372L413.528 55.2496L413.531 55.2528L421.646 65.2862L421.647 65.2925L421.656 65.305L421.666 65.3143L428.381 76.0257L428.387 76.0413L428.397 76.0569L433.775 87.3242L433.779 87.3399L433.787 87.3524L437.892 99.0852L437.893 99.1008L437.9 99.1133L440.778 111.243L440.778 111.255L440.783 111.271L442.472 123.782L442.471 123.794L442.475 123.807L443 136.708L442.998 136.72L443 136.733L442.999 136.739L442.383 149.896L442.38 149.909L442.381 149.921L440.63 163.247L440.627 163.254L440.627 163.269L437.79 176.646L437.786 176.653L437.785 176.667L433.895 189.986L433.891 189.992L433.889 190.006L428.956 203.285L428.951 203.291L428.948 203.303L422.967 216.556L422.961 216.562L422.958 216.573L415.923 229.762L415.918 229.768L415.914 229.78L407.81 242.858L407.805 242.861L407.8 242.873L398.608 255.774L398.601 255.78L398.597 255.791L388.287 268.442L388.277 268.448L388.275 268.456L376.807 280.77L376.796 280.778L376.793 280.784L364.115 292.658L364.109 292.661L364.1 292.673L350.144 303.994L350.136 303.996L350.132 303.999L350.128 304.005H350.127L334.809 314.628H334.807L334.799 314.634L334.789 314.643L318.265 324.296L318.254 324.299L318.242 324.308L300.72 332.658H300.719H300.717L289.114 338.032H289.103L289.092 338.041L270.134 345.082L270.118 345.085L270.106 345.091L250.702 350.229L250.682 350.232L250.671 350.238L230.967 353.307H230.937L230.934 353.31L211.122 354.125L211.11 354.128L211.086 354.125L191.419 352.505H191.415H191.406L166.515 349.286H166.509L166.49 349.284L146.549 344.951L146.533 344.943L146.508 344.939L127.328 337.811L127.319 337.805L127.312 337.803L91.2163 321.911L91.2036 321.902L91.1941 321.899L73.0352 311.841L73.013 311.82L72.994 311.814L56.5092 298.87L56.4933 298.855L56.4838 298.847L56.4807 298.844L35.8771 278.139V278.133L35.8676 278.131L22.5504 263.589L22.5472 263.571L22.5187 263.548L11.8206 246.559L11.8079 246.527L11.7952 246.513L4.20758 227.216L4.20123 227.179L4.19489 227.164L0.148987 206.073V206.067V206.041L0.142639 206.02L-3.05176e-05 183.753Z" fill="white"/>
</svg>
