<svg width="437" height="440" viewBox="0 0 437 440" fill="none" xmlns="http://www.w3.org/2000/svg">
<path d="M267.878 387.876C174.816 415.874 76.8735 363.489 49.5512 271.103C22.229 178.717 75.7135 80.7749 168.775 52.7769C261.837 24.7788 359.78 77.1637 387.102 169.55C414.424 261.936 360.939 359.878 267.878 387.876ZM169.595 55.5482C78.0716 83.0834 25.4682 179.406 52.3399 270.269C79.2117 361.131 175.532 412.645 267.059 385.109C358.587 357.572 411.186 261.251 384.315 170.392C357.445 79.5337 261.122 28.0118 169.595 55.5482Z" fill="#D7D7D7"/>
<path d="M244.114 302.317C198.533 316.03 150.562 290.373 137.18 245.122C123.798 199.872 149.994 151.901 195.575 138.188C241.156 124.475 289.127 150.132 302.509 195.382C315.892 240.632 289.696 288.603 244.114 302.317ZM196.393 140.955C152.351 154.206 127.037 200.561 139.967 244.284C152.898 288.007 199.253 312.8 243.296 299.549C287.339 286.299 312.652 239.944 299.722 196.221C286.791 152.498 240.436 127.705 196.393 140.955Z" fill="#D7D7D7"/>
<path d="M255.827 347.117C162.831 375.091 70.2873 340.768 49.5341 270.603C28.7808 200.438 87.5569 120.595 180.553 92.62C273.549 64.6452 366.092 98.9684 386.846 169.133C407.599 239.299 348.823 319.142 255.827 347.117ZM181.371 95.3851C89.9122 122.897 32.0178 201.126 52.3196 269.765C72.6214 338.404 163.547 371.865 255.009 344.351C346.471 316.838 404.363 238.614 384.06 169.971C363.757 101.329 272.833 67.8715 181.371 95.3851Z" fill="#D7D7D7"/>
<path d="M242.99 303.656C150.076 331.589 63.4814 317.143 49.9587 271.452C36.4361 225.761 101.028 165.862 193.942 137.929C286.856 109.996 373.45 124.443 386.973 170.134C400.496 215.825 335.904 275.723 242.99 303.656ZM194.759 140.69C103.381 168.162 39.669 226.444 52.7418 270.615C65.8147 314.786 150.791 328.368 242.173 300.895C333.555 273.423 397.261 215.138 384.19 170.971C371.118 126.803 286.14 113.218 194.759 140.69Z" fill="#D7D7D7"/>
</svg>
