<svg width="613" height="625" viewBox="0 0 613 625" fill="none" xmlns="http://www.w3.org/2000/svg">
<path d="M205.266 518.308C119.92 473.932 95.9681 345.447 151.877 231.882C207.785 118.318 322.7 62.0364 408.046 106.412C493.392 150.787 517.342 279.278 461.436 392.837C405.53 506.396 290.612 562.683 205.266 518.308ZM406.368 109.819C322.878 66.409 210.221 121.95 155.237 233.636C100.254 345.322 123.452 471.495 206.942 514.905C290.431 558.315 403.088 502.774 458.07 391.093C513.052 279.412 489.858 153.23 406.368 109.819Z" fill="#D7D7D7"/>
<path d="M205.689 518.811C145.928 487.749 142.849 369.997 198.835 256.315C254.821 142.633 348.982 75.4237 408.748 106.488C468.514 137.553 471.585 255.307 415.602 368.984C359.618 482.661 265.45 549.873 205.689 518.811ZM407.068 109.899C349.166 79.8034 257.261 146.269 202.201 258.071C147.141 369.873 149.459 485.307 207.366 515.405C265.273 545.504 357.174 479.036 412.231 367.238C467.289 255.441 464.975 139.997 407.068 109.899Z" fill="#D7D7D7"/>
<path d="M206.602 519.62C169.689 500.45 185.456 394.773 242.5 279.037C299.543 163.3 373.142 87.6592 410.055 106.83C446.968 126.001 431.201 231.677 374.158 347.414C317.114 463.15 243.515 538.791 206.602 519.62ZM408.372 110.245C373.931 92.3579 301.038 168.865 245.872 280.794C190.705 392.723 173.847 498.326 208.283 516.21C242.719 534.095 315.617 457.59 370.781 345.666C425.945 233.742 442.808 128.129 408.372 110.245Z" fill="#D7D7D7"/>
<path d="M204.075 518.724C186.85 509.793 230.12 398.5 279.578 298.321C329.036 198.142 390.898 96.4888 408.123 105.42C425.348 114.351 382.078 225.644 332.62 325.822C283.162 426.001 221.3 527.655 204.075 518.724ZM406.435 108.839C396.98 103.937 347.567 169.217 282.96 300.081C218.353 430.944 196.306 510.407 205.761 515.309C215.216 520.212 264.629 454.931 329.233 324.073C393.838 193.214 415.895 113.744 406.435 108.839Z" fill="#D7D7D7"/>
<path d="M229.713 468.649C117.679 410.398 61.0475 292.896 103.474 206.717C145.901 120.539 271.564 97.8201 383.598 156.071C495.632 214.322 552.263 331.824 509.837 418.002C467.41 504.181 341.746 526.9 229.713 468.649ZM381.924 159.472C271.743 102.184 148.332 124.164 106.829 208.468C65.3248 292.771 121.199 407.962 231.385 465.253C341.57 522.543 464.974 500.566 506.478 416.262C547.981 331.958 492.11 216.762 381.924 159.472Z" fill="#D7D7D7"/>
<path d="M253.189 420.929C141.27 362.759 74.3265 266.477 103.965 206.295C133.604 146.113 248.768 144.483 360.687 202.653C472.605 260.824 539.549 357.106 509.91 417.288C480.271 477.47 365.107 479.1 253.189 420.929ZM359.014 206.05C248.946 148.841 136.033 149.732 107.316 208.043C78.5994 266.353 144.784 360.332 254.857 417.543C364.929 474.754 477.837 473.86 506.554 415.55C535.271 357.239 469.087 263.261 359.014 206.05Z" fill="#D7D7D7"/>
<path d="M274.953 376.685C161.264 317.642 86.5044 242.387 104.754 205.361C123.004 168.334 226.356 185.579 340.045 244.622C453.735 303.665 528.494 378.92 510.245 415.946C491.995 452.973 388.643 435.728 274.953 376.685ZM338.377 248.007C228.432 190.909 125.129 172.558 108.104 207.1C91.0787 241.642 166.672 316.199 276.622 373.3C386.571 430.401 489.87 448.749 506.895 414.207C523.92 379.665 448.326 305.107 338.377 248.007Z" fill="#D7D7D7"/>
<path d="M293.313 339.382C195.149 288.487 95.3938 225.123 103.875 207.945C112.356 190.768 221.265 235.59 319.429 286.485C417.593 337.38 517.348 400.744 508.867 417.921C500.387 435.099 391.477 390.277 293.313 339.382ZM317.763 289.86C189.531 223.376 111.876 200.251 107.22 209.68C102.565 219.109 166.748 269.523 294.979 336.007C423.211 402.491 500.864 425.621 505.522 416.187C510.179 406.753 445.995 356.344 317.763 289.86Z" fill="#D7D7D7"/>
</svg>
