<svg viewBox="0 0 90 90" fill="none" xmlns="http://www.w3.org/2000/svg">
<path d="M44.6341 90C20.0231 90 0 69.8127 0 45C0 20.1872 20.0231 0 44.6341 0C69.2452 0 89.2683 20.1872 89.2683 45C89.2683 69.8127 69.2452 90 44.6341 90ZM44.6341 0.744312C20.43 0.744312 0.737186 20.5975 0.737186 45.001C0.737186 69.4046 20.4289 89.2567 44.6341 89.2567C68.8393 89.2567 88.5311 69.4036 88.5311 45.001C88.5311 20.5985 68.8393 0.744312 44.6341 0.744312Z" fill="white"/>
<path d="M45.0099 67.1337C32.9555 67.1337 23.1484 57.2463 23.1484 45.0931C23.1484 32.9399 32.9555 23.0525 45.0099 23.0525C57.0642 23.0525 66.8713 32.9399 66.8713 45.0931C66.8713 57.2463 57.0642 67.1337 45.0099 67.1337ZM45.0099 23.7957C33.3624 23.7957 23.8856 33.3502 23.8856 45.0931C23.8856 56.8361 33.3624 66.3905 45.0099 66.3905C56.6573 66.3905 66.1341 56.8361 66.1341 45.0931C66.1341 33.3502 56.6573 23.7957 45.0099 23.7957Z" fill="white"/>
<path d="M44.6341 79.0818C20.0231 79.0818 0 63.7379 0 44.8775C0 26.0171 20.0231 10.6731 44.6341 10.6731C69.2452 10.6731 89.2683 26.0171 89.2683 44.8775C89.2683 63.7379 69.2452 79.0818 44.6341 79.0818ZM44.6341 11.4164C20.43 11.4164 0.737186 26.4273 0.737186 44.8775C0.737186 63.3276 20.4289 78.3386 44.6341 78.3386C68.8393 78.3386 88.5311 63.3287 88.5311 44.8775C88.5311 26.4262 68.8393 11.4164 44.6341 11.4164Z" fill="white"/>
<path d="M44.6341 67.4318C20.0231 67.4318 0 57.4249 0 45.1248C0 32.8247 20.0231 22.8177 44.6341 22.8177C69.2452 22.8177 89.2683 32.8247 89.2683 45.1248C89.2683 57.4249 69.2452 67.4318 44.6341 67.4318ZM44.6341 23.561C20.43 23.561 0.737186 33.2338 0.737186 45.1248C0.737186 57.0158 20.4289 66.6886 44.6341 66.6886C68.8393 66.6886 88.5311 57.0147 88.5311 45.1248C88.5311 33.2349 68.8393 23.561 44.6341 23.561Z" fill="white"/>
<path d="M45.3659 90C57.2036 90 68.5564 85.2589 76.927 76.8198C85.2975 68.3807 90 56.9347 90 45C90 33.0653 85.2975 21.6193 76.927 13.1802C68.5564 4.74106 57.2036 3.68519e-07 45.3659 -1.95102e-06L45.3659 45L45.3659 90Z" fill="white"/>
</svg>
