<svg width="432" height="433" viewBox="0 0 432 433" fill="none" xmlns="http://www.w3.org/2000/svg">
<path d="M386.494 83.3495L383.251 79.2823C379.894 75.1767 376.23 71.0903 372.239 67.0423C331.049 25.2767 267.969 -0.258389 215.019 0.0293844L209.033 0.144489C263.595 -1.71645 329.994 24.4326 372.93 67.944C377.937 73.028 382.465 78.1695 386.494 83.3303" fill="#D7D7D7"/>
<path d="M414.789 131.561L413.197 127.916C406.06 111.916 394.664 95.4936 378.971 79.5701C320.84 20.634 224.686 -10.1386 158.958 7.83769L154.795 9.02714C221.194 -10.5799 319.939 20.5189 379.354 80.7404C395.853 97.4696 407.652 114.755 414.789 131.542" fill="#D7D7D7"/>
<path d="M428.432 177.164L427.722 173.461C422.657 148.367 407.424 121.259 381.87 95.3592C314.646 27.1951 201.359 -6.85813 128.84 19.3101C123.334 21.2862 118.231 23.5692 113.511 26.1016L110.02 28.0393C115.238 25.104 120.955 22.4948 127.19 20.2502C200.208 -6.09069 314.262 28.1927 381.966 96.8364C408.288 123.523 423.712 151.456 428.451 177.202" fill="#D7D7D7"/>
<path d="M431.828 222.287L431.905 218.622C432.25 186.411 415.329 149.307 380.758 114.256C308.738 41.2385 187.374 4.7488 109.675 32.778C96.3796 37.5742 85.2332 43.9436 76.2355 51.5792L73.377 54.054C82.6241 45.9196 94.2309 39.1473 108.178 34.1209C186.223 5.9766 308.124 42.6198 380.47 115.964C415.732 151.724 432.711 189.595 431.809 222.306" fill="#D7D7D7"/>
<path d="M425.995 266.259L426.82 262.69C435.05 225.452 418.167 179.216 375.519 135.974C300.429 59.8479 173.905 21.8234 92.9253 51.0228C72.2248 58.4858 56.4931 69.6322 45.8071 83.3686L43.5625 86.3039C54.2869 72.0304 70.3255 60.4618 91.6591 52.7687C172.831 23.4925 299.643 61.6129 374.905 137.911C418.167 181.768 434.973 228.714 426.014 266.259" fill="#D7D7D7"/>
<path d="M411.299 308.178L412.872 304.763C430.791 264.82 415.501 210.603 365.946 160.377C289.686 83.0617 161.185 44.4425 78.9395 74.1024C51.2748 84.0785 32.3585 100.52 22.3439 120.875L20.7324 124.233C30.5935 103.302 49.7017 86.4191 77.9227 76.2319C160.188 46.5529 288.688 85.1913 364.967 162.507C415.04 213.27 430.139 268.1 411.318 308.158" fill="#D7D7D7"/>
<path d="M388.449 346.221L390.655 343.228C419.739 303.055 407.442 242.239 352.362 186.392C276.946 109.921 149.846 71.7234 68.4826 101.057C34.487 113.316 13.8632 135.436 6.86068 162.602L5.95898 166.19C12.597 138.468 33.2975 115.868 67.792 103.417C148.983 74.1406 275.795 112.261 351.077 188.56C406.579 244.829 418.531 306.125 388.468 346.202" fill="#D7D7D7"/>
<path d="M358.541 378.586L361.323 376.092C402.705 338.394 394.781 272.475 335.615 212.483C262.942 138.794 140.485 101.997 62.0955 130.257C22.5362 144.53 1.75895 172.655 0.224152 206.478L0.0898438 210.162C1.06827 175.821 21.7688 147.197 61.7502 132.77C139.814 104.606 261.753 141.269 334.099 214.632C393.553 274.911 401.055 341.214 358.541 378.567" fill="#D7D7D7"/>
<path d="M321.744 404.697L325.178 402.721C380.22 370.548 378.071 300.907 316.219 238.21C248.055 169.106 133.175 134.573 59.6588 161.087C15.38 177.049 -3.80491 211.524 2.81389 251.505L3.44696 255.246C-3.9776 214.805 15.0155 179.811 59.6204 163.715C132.657 137.374 246.769 171.658 314.492 240.321C376.536 303.228 378.109 373.157 321.744 404.697Z" fill="#D7D7D7"/>
<path d="M277.351 423.537L281.533 422.251C282.953 421.791 284.353 421.311 285.754 420.812C352.709 396.659 356.661 326.077 294.598 263.151C232.535 200.224 127.958 168.799 61.0023 192.934C12.7906 210.315 -2.74919 251.793 15.4957 297.146L17.0113 300.849C-2.34629 255.15 12.7906 213.097 61.2709 195.6C127.593 171.677 231.211 202.814 292.699 265.165C354.186 327.497 350.273 397.445 283.95 421.349C281.802 422.136 279.595 422.846 277.351 423.517" fill="#D7D7D7"/>
<path d="M223.154 432.477H223.345L227.911 432.246C240.574 431.517 252.545 429.273 263.404 425.359C322.205 404.16 325.678 342.154 271.173 286.882C216.669 231.611 124.812 204.003 66.0099 225.222C13.8077 244.042 5.21286 295.036 42.0863 344.917L45.2326 349.08C6.21044 298.892 13.9803 246.882 66.5662 227.908C124.62 206.958 215.326 234.22 269.14 288.801C322.973 343.363 319.539 404.582 261.485 425.532C249.84 429.733 236.871 431.997 223.134 432.477" fill="#D7D7D7"/>
<path d="M69.0225 373.944C24.1298 328.437 26.9883 277.367 75.4111 259.908C123.834 242.45 199.48 265.184 244.373 310.691C289.265 356.198 286.407 407.268 237.984 424.726C189.561 442.184 113.915 419.45 69.0225 373.944C68.6963 373.733 68.3702 373.522 68.0441 373.311C113.723 419.623 190.693 442.76 239.979 424.995C289.246 407.229 292.162 355.277 246.483 308.964C200.804 262.652 123.834 239.515 74.5477 257.28C25.2809 275.045 22.3648 326.998 68.0441 373.311C68.3702 373.522 68.6963 373.733 69.0225 373.944Z" fill="#D7D7D7"/>
<path d="M82.6622 379.584C47.8224 344.245 50.0286 304.628 87.6311 291.065C125.214 277.501 183.939 295.151 218.798 330.49C253.638 365.828 251.432 405.445 213.83 419.009C176.246 432.573 117.521 414.922 82.6622 379.584C82.2401 379.488 81.818 379.373 81.396 379.258C117.118 415.479 177.321 433.57 215.844 419.661C254.367 405.771 256.65 365.138 220.928 328.916C185.206 292.695 125.003 274.604 86.48 288.494C47.9566 302.403 45.6736 343.017 81.396 379.238C81.818 379.354 82.2401 379.469 82.6622 379.565" fill="#D7D7D7"/>
<path d="M99.678 381.33C75.8311 357.157 77.3467 330.029 103.074 320.744C128.801 311.458 168.993 323.545 192.84 347.718C216.687 371.891 215.171 399.018 189.444 408.304C163.717 417.589 123.525 405.503 99.678 381.33C99.16 381.33 98.642 381.33 98.1432 381.33C122.949 406.462 164.734 419.028 191.478 409.378C218.222 399.728 219.814 371.526 195.008 346.394C170.202 321.243 128.417 308.696 101.673 318.346C74.9294 327.996 73.3371 356.198 98.1432 381.33C98.6612 381.33 99.16 381.33 99.678 381.33Z" fill="#D7D7D7"/>
<path d="M119.938 378.97C107.89 366.749 108.657 353.07 121.645 348.37C134.634 343.689 154.931 349.79 166.979 361.991C179.027 374.212 178.26 387.891 165.272 392.591C152.284 397.272 131.986 391.172 119.938 378.97C119.324 379.085 118.729 379.219 118.134 379.334C131.18 392.572 153.185 399.172 167.267 394.107C181.349 389.023 182.174 374.193 169.128 360.955C156.082 347.718 134.077 341.118 119.995 346.183C105.914 351.267 105.089 366.097 118.134 379.334C118.729 379.219 119.324 379.104 119.938 378.97Z" fill="#D7D7D7"/>
<path d="M141.195 373.022C141.866 373.694 142.979 374.039 143.689 373.771C144.398 373.521 144.437 372.754 143.784 372.082C143.132 371.411 142 371.066 141.29 371.334C140.581 371.584 140.542 372.351 141.195 373.022Z" fill="#D7D7D7"/>
<path d="M265.036 70.5916C253.046 58.4284 253.813 44.7879 266.744 40.126C279.674 35.464 299.895 41.5265 311.886 53.6897C323.876 65.853 323.109 79.4934 310.178 84.1554C297.248 88.8173 277.027 82.7549 265.036 70.5916C265.746 70.2463 266.456 69.901 267.166 69.5556C278.14 80.6829 296.653 86.2465 308.49 81.9683C320.327 77.69 321.037 65.2006 310.044 54.0734C299.07 42.9461 280.557 37.3825 268.72 41.6608C256.883 45.939 256.173 58.4284 267.166 69.5556C266.456 69.901 265.746 70.2463 265.036 70.5916Z" fill="#D7D7D7"/>
<path d="M239.194 84.8267C215.404 60.7112 216.92 33.6413 242.589 24.3942C268.259 15.1278 308.355 27.1952 332.145 51.3106C355.934 75.4261 354.418 102.496 328.749 111.743C303.08 120.99 262.983 108.942 239.194 84.8267C239.904 84.3854 240.633 83.9441 241.362 83.522C264.211 106.678 302.677 118.247 327.329 109.364C351.963 100.482 353.421 74.5052 330.591 51.349C307.761 28.1928 269.276 16.6242 244.623 25.5069C219.99 34.3895 218.532 60.3658 241.362 83.522C240.633 83.9441 239.923 84.3854 239.194 84.8267Z" fill="#D7D7D7"/>
<path d="M213.254 102.055C178.452 66.7739 180.678 27.1954 218.203 13.67C255.729 0.125423 314.377 17.7564 349.16 53.0375C383.961 88.3186 381.736 127.897 344.21 141.422C306.684 154.967 248.036 137.336 213.254 102.055C213.963 101.537 214.692 101.019 215.402 100.52C249.321 134.9 306.473 152.089 343.04 138.89C379.625 125.691 381.793 87.1291 347.874 52.7497C313.955 18.3703 256.803 1.18064 220.237 14.3799C183.651 27.5791 181.503 66.1408 215.402 100.52C214.692 101.038 213.963 101.537 213.254 102.055Z" fill="#D7D7D7"/>
<path d="M187.643 121.854C142.789 76.3854 145.648 25.3727 194.032 7.91438C242.416 -9.5439 317.986 13.1903 362.84 58.6585C407.694 104.127 404.836 155.14 356.452 172.598C308.067 190.056 232.498 167.341 187.643 121.854C188.353 121.278 189.063 120.683 189.773 120.108C233.821 164.77 308.048 187.082 355.55 169.931C403.071 152.799 405.872 102.707 361.823 58.0446C317.775 13.3821 243.548 -8.92997 196.027 8.22135C148.506 25.3535 145.705 75.4453 189.754 120.108C189.044 120.683 188.334 121.278 187.624 121.854" fill="#D7D7D7"/>
<path d="M386.494 83.3495C425.612 133.556 417.88 185.624 365.275 204.598C307.26 225.529 216.63 198.286 162.836 143.744C163.507 143.111 164.179 142.477 164.85 141.844C217.935 195.677 307.394 222.555 364.661 201.912C417.612 182.804 424.499 129.739 383.232 79.2823L386.475 83.3495" fill="#D7D7D7"/>
<path d="M162.857 143.744C109.062 89.2201 112.496 28.0394 170.511 7.10866C182.214 2.88798 195.26 0.624147 209.054 0.144524L215.04 0.0294189C199.73 0.106159 185.284 2.35079 172.449 6.97435C115.182 27.6365 111.806 88.0115 164.89 141.825C164.219 142.458 163.547 143.091 162.876 143.724" fill="#D7D7D7"/>
<path d="M414.793 131.561C434.208 177.279 419.09 219.371 370.61 236.848C304.326 260.752 200.766 229.635 139.316 167.322C139.95 166.65 140.583 165.979 141.216 165.307C202.09 227.025 304.652 257.855 370.303 234.162C419.013 216.589 433.728 173.941 413.2 127.897L414.793 131.542" fill="#D7D7D7"/>
<path d="M139.315 167.341C77.866 105.028 81.7797 35.1378 148.064 11.2334C150.27 10.4468 152.515 9.69864 154.798 9.02716L158.961 7.83771C155.872 8.68184 152.841 9.64107 149.886 10.6962C84.2354 34.3704 80.3601 103.609 141.215 165.308C140.582 165.979 139.948 166.651 139.315 167.322" fill="#D7D7D7"/>
<path d="M428.432 177.164C435.895 217.625 416.941 252.657 372.297 268.753C299.279 295.094 185.225 260.81 117.521 192.167C118.097 191.457 118.673 190.766 119.267 190.056C186.491 258.22 299.778 292.274 372.297 266.105C417.248 249.894 435.991 214.344 427.723 173.423L428.432 177.126" fill="#D7D7D7"/>
<path d="M117.521 192.186C55.5922 129.413 53.9232 59.6371 110.001 28.0395L113.492 26.1018C56.0719 57.0279 57.1271 127.091 119.248 190.075C118.672 190.785 118.078 191.476 117.502 192.186" fill="#D7D7D7"/>
<path d="M431.829 222.287C430.889 256.666 410.169 285.309 370.188 299.736C292.144 327.881 170.243 291.238 97.8965 217.894C98.4145 217.165 98.9133 216.455 99.4313 215.726C171.451 288.743 292.815 325.233 370.514 297.204C410.898 282.643 431.541 253.501 431.925 218.623L431.848 222.287" fill="#D7D7D7"/>
<path d="M97.8943 217.874C38.4978 157.653 30.9773 91.4073 73.376 54.0351L76.2345 51.5602C32.6656 88.5487 39.7256 155.178 99.4291 215.706C98.9111 216.435 98.3931 217.145 97.8943 217.874Z" fill="#D7D7D7"/>
<path d="M425.995 266.259C419.376 294.019 398.676 316.638 364.162 329.089C282.991 358.366 156.178 320.245 80.916 243.947C81.3381 243.218 81.7793 242.489 82.2206 241.779C157.31 317.905 283.835 355.929 364.815 326.73C399.789 314.106 420.566 291.007 426.82 262.709L425.995 266.278" fill="#D7D7D7"/>
<path d="M80.9177 243.947C25.4349 187.696 13.4635 126.381 43.5454 86.3232L45.7901 83.3879C14.6913 123.331 26.3365 185.126 82.2222 241.779C81.781 242.508 81.3589 243.237 80.9177 243.947Z" fill="#D7D7D7"/>
<path d="M411.301 308.178C401.459 329.147 382.331 346.068 354.072 356.255C271.807 385.934 143.307 347.296 67.0273 269.98C67.3727 269.251 67.6988 268.542 68.0633 267.832C144.323 345.147 272.824 383.766 355.07 354.106C383.885 343.708 403.205 326.327 412.855 304.782L411.282 308.197" fill="#D7D7D7"/>
<path d="M67.0278 269.98C16.9168 219.179 1.83745 164.329 20.7154 124.252L22.3269 120.894C2.56647 161.068 17.454 216.512 68.0638 267.832C67.7185 268.561 67.3732 269.271 67.0278 269.98Z" fill="#D7D7D7"/>
<path d="M388.45 346.221C377.725 360.495 361.667 372.083 340.353 379.776C259.162 409.052 132.331 370.932 57.0684 294.633C57.2794 293.981 57.5096 293.328 57.7398 292.657C133.156 369.128 260.256 407.325 341.619 377.992C363.547 370.087 379.931 358.058 390.656 343.229L388.45 346.221Z" fill="#D7D7D7"/>
<path d="M57.0695 294.614C13.7691 250.719 -3.03693 203.735 5.9608 166.19L6.8625 162.602C-2.88345 200.454 13.8458 248.129 57.7409 292.638C57.5107 293.29 57.2997 293.962 57.0695 294.614Z" fill="#D7D7D7"/>
<path d="M358.544 378.586C349.316 386.701 337.729 393.435 323.8 398.462C245.737 426.606 123.798 389.963 51.4512 316.6C51.5471 316.024 51.643 315.449 51.7581 314.873C124.431 388.562 246.888 425.359 325.278 397.081C339.858 391.824 351.868 384.687 361.326 376.073L358.544 378.567" fill="#D7D7D7"/>
<path d="M51.4307 316.6C16.1305 280.801 -0.848242 242.891 0.0726343 210.162L0.206943 206.478C-1.28948 239.668 15.7276 278.364 51.7377 314.873C51.6226 315.449 51.5266 316.024 51.4307 316.6Z" fill="#D7D7D7"/>
<path d="M321.746 404.697C316.604 407.575 310.964 410.145 304.844 412.352C231.807 438.693 117.695 404.39 49.9719 335.746C49.9719 335.267 49.9528 334.768 49.9336 334.269C118.098 403.392 232.977 437.906 306.513 411.392C313.323 408.937 319.558 406.04 325.18 402.74L321.746 404.716" fill="#D7D7D7"/>
<path d="M49.9729 335.727C23.6128 309.003 8.16897 281.012 3.44948 255.246L2.81641 251.505C7.19057 277.923 22.8262 306.758 49.9537 334.25C49.9537 334.749 49.9538 335.247 49.9921 335.727" fill="#D7D7D7"/>
<path d="M277.351 423.537C210.913 443.24 111.996 412.122 52.5227 351.823C52.3884 351.421 52.2733 351.018 52.1582 350.615C112.936 412.237 214.482 443.662 281.533 422.251L277.351 423.537Z" fill="#D7D7D7"/>
<path d="M52.5233 351.804C35.9667 335.017 24.1488 317.693 17.0312 300.849L15.5156 297.146C22.614 314.777 34.8156 332.984 52.178 350.576C52.2931 350.979 52.4082 351.401 52.5425 351.785" fill="#D7D7D7"/>
<path d="M223.346 432.457H223.154C168.515 434.414 101.944 408.246 58.9312 364.619C58.701 364.312 58.4708 364.005 58.2598 363.679C102.711 408.745 171.988 435.431 227.931 432.227L223.365 432.438" fill="#D7D7D7"/>
<path d="M58.9307 364.62C53.8659 359.478 49.2998 354.298 45.2518 349.08L42.1055 344.917C46.7674 351.209 52.1392 357.502 58.2592 363.699C58.4894 364.025 58.7005 364.332 58.9307 364.639" fill="#D7D7D7"/>
</svg>
