<svg viewBox="0 0 90 90" fill="none" xmlns="http://www.w3.org/2000/svg">
<path d="M45 90C20.1873 90 0 69.8127 0 45C0 20.1873 20.1873 0 45 0C69.8127 0 90 20.1873 90 45C90 69.8127 69.8127 90 45 90ZM45 0.743254C20.5975 0.743254 0.744312 20.5964 0.744312 45C0.744312 69.4036 20.5975 89.2567 45 89.2567C69.4025 89.2567 89.2557 69.4036 89.2557 45C89.2557 20.5964 69.4025 0.743254 45 0.743254Z" fill="white"/>
<path d="M45 79.0807C20.1873 79.0807 0 63.7367 0 44.8764C0 26.016 20.1873 10.672 45 10.672C69.8127 10.672 90 26.016 90 44.8764C90 63.7367 69.8127 79.0807 45 79.0807ZM45 11.4153C20.5975 11.4153 0.744312 26.4251 0.744312 44.8764C0.744312 63.3276 20.5975 78.3374 45 78.3374C69.4025 78.3374 89.2557 63.3276 89.2557 44.8764C89.2557 26.4251 69.4025 11.4153 45 11.4153Z" fill="white"/>
<path d="M45 67.432C20.1873 67.432 0 57.425 0 45.1249C0 32.8248 20.1873 22.8179 45 22.8179C69.8127 22.8179 90 32.8248 90 45.1249C90 57.425 69.8127 67.432 45 67.432ZM45 23.5611C20.5975 23.5611 0.744312 33.235 0.744312 45.1249C0.744312 57.0148 20.5975 66.6887 45 66.6887C69.4025 66.6887 89.2557 57.0148 89.2557 45.1249C89.2557 33.235 69.4025 23.5611 45 23.5611Z" fill="white"/>
<path d="M45 90C20.1873 90 0 69.8127 0 45C0 20.1873 20.1873 0 45 0C69.8127 0 90 20.1873 90 45C90 69.8127 69.8127 90 45 90ZM45 0.743254C20.5975 0.743254 0.744312 20.5964 0.744312 45C0.744312 69.4036 20.5975 89.2567 45 89.2567C69.4025 89.2567 89.2557 69.4036 89.2557 45C89.2557 20.5964 69.4025 0.743254 45 0.743254Z" fill="white"/>
<path d="M45.0914 67.4064C32.9382 67.4064 23.0508 57.519 23.0508 45.3658C23.0508 33.2127 32.9382 23.3252 45.0914 23.3252C57.2446 23.3252 67.132 33.2127 67.132 45.3658C67.132 57.519 57.2446 67.4064 45.0914 67.4064ZM45.0914 24.0684C33.3485 24.0684 23.794 33.6229 23.794 45.3658C23.794 57.1087 33.3485 66.6632 45.0914 66.6632C56.8343 66.6632 66.3888 57.1087 66.3888 45.3658C66.3888 33.6229 56.8343 24.0684 45.0914 24.0684Z" fill="white"/>
<path d="M44.8782 90C26.0178 90 10.6738 69.8127 10.6738 45C10.6738 20.1873 26.0178 0 44.8782 0C63.7386 0 79.0825 20.1873 79.0825 45C79.0825 69.8127 63.7386 90 44.8782 90ZM44.8782 0.743254C26.428 0.743254 11.4171 20.5964 11.4171 45C11.4171 69.4036 26.428 89.2567 44.8782 89.2567C63.3283 89.2567 78.3393 69.4036 78.3393 45C78.3393 20.5964 63.3294 0.743254 44.8782 0.743254Z" fill="white"/>
<path d="M45.1215 90C32.8214 90 22.8145 69.8127 22.8145 45C22.8145 20.1873 32.8214 0 45.1215 0C57.4216 0 67.4285 20.1873 67.4285 45C67.4285 69.8127 57.4216 90 45.1215 90ZM45.1215 0.743254C33.2316 0.743254 23.5577 20.5964 23.5577 45C23.5577 69.4036 33.2305 89.2567 45.1215 89.2567C57.0125 89.2567 66.6853 69.4036 66.6853 45C66.6853 20.5964 57.0125 0.743254 45.1215 0.743254Z" fill="white"/>
<path d="M45 90C56.9347 90 68.3807 85.2589 76.8198 76.8198C85.2589 68.3807 90 56.9347 90 45C90 33.0653 85.2589 21.6193 76.8198 13.1802C68.3807 4.74106 56.9347 3.56768e-07 45 -1.96701e-06L45 45L45 90Z" fill="white"/>
</svg>
