<svg viewBox="0 0 90 90" fill="none" xmlns="http://www.w3.org/2000/svg">
<path d="M45 90C20.1872 90 0 69.8127 0 45C0 20.1872 20.1872 0 45 0C69.8127 0 90 20.1872 90 45C90 69.8127 69.8127 90 45 90ZM45 0.744309C20.5975 0.744309 0.744306 20.5975 0.744306 45C0.744306 69.4025 20.5975 89.2557 45 89.2557C69.4025 89.2557 89.2557 69.4025 89.2557 45C89.2557 20.5975 69.4025 0.744309 45 0.744309Z" fill="white"/>
<path d="M45.272 90C26.4591 90 11.1543 69.8127 11.1543 45C11.1543 20.1872 26.4591 0 45.272 0C64.0848 0 79.3907 20.1872 79.3907 45C79.3907 69.8127 64.0858 90 45.272 90ZM45.272 0.744309C26.8694 0.744309 11.8976 20.5975 11.8976 45C11.8976 69.4025 26.8694 89.2557 45.272 89.2557C63.6746 89.2557 78.6464 69.4025 78.6464 45C78.6464 20.5975 63.6746 0.744309 45.272 0.744309Z" fill="white"/>
<path d="M45.3645 90C31.8306 90 20.8203 69.8127 20.8203 45C20.8203 20.1872 31.8306 0 45.3645 0C58.8985 0 69.9098 20.1872 69.9098 45C69.9098 69.8127 58.8985 90 45.3645 90ZM45.3645 0.744309C32.2408 0.744309 21.5636 20.5975 21.5636 45C21.5636 69.4025 32.2408 89.2557 45.3645 89.2557C58.4882 89.2557 69.1655 69.4025 69.1655 45C69.1655 20.5975 58.4882 0.744309 45.3645 0.744309Z" fill="white"/>
<path d="M45.3669 90C37.4406 90 31.2324 70.2335 31.2324 45C31.2324 19.7665 37.4406 0 45.3669 0C53.2931 0 59.5014 19.7665 59.5014 45C59.5014 70.2335 53.2921 90 45.3669 90ZM45.3669 0.744309C37.983 0.744309 31.9757 20.5975 31.9757 45C31.9757 69.4025 37.983 89.2557 45.3669 89.2557C52.7508 89.2557 58.7581 69.4025 58.7581 45C58.7581 20.5975 52.7508 0.744309 45.3669 0.744309Z" fill="white"/>
<path d="M45.2746 90C41.4674 90 39.4121 66.8154 39.4121 45C39.4121 23.1846 41.4664 0 45.2746 0C49.0828 0 51.1371 23.1846 51.1371 45C51.1371 66.8154 49.0828 90 45.2746 90ZM45.2746 0.744309C43.1823 0.744309 40.1564 16.5038 40.1564 45C40.1564 73.4962 43.1833 89.2557 45.2746 89.2557C47.3658 89.2557 50.3938 73.4962 50.3938 45C50.3938 16.5038 47.3669 0.744309 45.2746 0.744309Z" fill="white"/>
<path d="M45 90C56.9347 90 68.3807 85.2589 76.8198 76.8198C85.2589 68.3807 90 56.9347 90 45C90 33.0653 85.2589 21.6193 76.8198 13.1802C68.3807 4.74106 56.9347 3.56768e-07 45 -1.96701e-06L45 45L45 90Z" fill="white"/>
</svg>
