<svg viewBox="0 0 289 289" fill="none" xmlns="http://www.w3.org/2000/svg">
<path d="M144.306 288.806C64.7365 288.806 0 224.07 0 144.5C0 64.9304 64.7365 0.193848 144.306 0.193848C223.876 0.193848 288.612 64.9304 288.612 144.5C288.612 224.07 223.876 288.806 144.306 288.806ZM144.306 2.57732C66.052 2.57732 2.38686 66.2425 2.38686 144.5C2.38686 222.757 66.052 286.423 144.306 286.423C222.56 286.423 286.225 222.757 286.225 144.5C286.225 66.2425 222.56 2.57732 144.306 2.57732Z" fill="white"/>
<path d="M144.306 253.79C64.7365 253.79 0 204.585 0 144.103C0 83.6218 64.7365 34.4167 144.306 34.4167C223.876 34.4167 288.612 83.6218 288.612 144.103C288.612 204.585 223.876 253.79 144.306 253.79ZM144.306 36.8002C66.052 36.8002 2.38686 84.9339 2.38686 144.103C2.38686 203.273 66.052 251.406 144.306 251.406C222.56 251.406 286.225 203.273 286.225 144.103C286.225 84.9339 222.56 36.8002 144.306 36.8002Z" fill="white"/>
<path d="M144.306 216.434C64.7365 216.434 0 184.344 0 144.9C0 105.456 64.7365 73.3657 144.306 73.3657C223.876 73.3657 288.612 105.456 288.612 144.9C288.612 184.344 223.876 216.434 144.306 216.434ZM144.306 75.7492C66.052 75.7492 2.38686 106.771 2.38686 144.9C2.38686 183.029 66.052 214.051 144.306 214.051C222.56 214.051 286.225 183.029 286.225 144.9C286.225 106.771 222.56 75.7492 144.306 75.7492Z" fill="white"/>
<path d="M144.306 288.806C64.7365 288.806 0 224.07 0 144.5C0 64.9304 64.7365 0.193848 144.306 0.193848C223.876 0.193848 288.612 64.9304 288.612 144.5C288.612 224.07 223.876 288.806 144.306 288.806ZM144.306 2.57732C66.052 2.57732 2.38686 66.2425 2.38686 144.5C2.38686 222.757 66.052 286.423 144.306 286.423C222.56 286.423 286.225 222.757 286.225 144.5C286.225 66.2425 222.56 2.57732 144.306 2.57732Z" fill="white"/>
<path d="M144.602 216.353C105.629 216.353 73.9219 184.646 73.9219 145.673C73.9219 106.7 105.629 74.9932 144.602 74.9932C183.575 74.9932 215.282 106.7 215.282 145.673C215.282 184.646 183.575 216.353 144.602 216.353ZM144.602 77.3766C106.944 77.3766 76.3053 108.016 76.3053 145.673C76.3053 183.33 106.944 213.969 144.602 213.969C182.259 213.969 212.898 183.33 212.898 145.673C212.898 108.016 182.259 77.3766 144.602 77.3766Z" fill="white"/>
<path d="M143.909 288.806C83.4277 288.806 34.2227 224.07 34.2227 144.5C34.2227 64.9304 83.4277 0.193848 143.909 0.193848C204.391 0.193848 253.596 64.9304 253.596 144.5C253.596 224.07 204.391 288.806 143.909 288.806ZM143.909 2.57732C84.7431 2.57732 36.6061 66.2425 36.6061 144.5C36.6061 222.757 84.7431 286.423 143.909 286.423C203.075 286.423 251.212 222.757 251.212 144.5C251.212 66.2425 203.079 2.57732 143.909 2.57732Z" fill="white"/>
<path d="M144.702 288.806C105.258 288.806 73.168 224.07 73.168 144.5C73.168 64.9304 105.258 0.193848 144.702 0.193848C184.146 0.193848 216.236 64.9304 216.236 144.5C216.236 224.07 184.146 288.806 144.702 288.806ZM144.702 2.57732C106.574 2.57732 75.5514 66.2425 75.5514 144.5C75.5514 222.757 106.57 286.423 144.702 286.423C182.834 286.423 213.853 222.757 213.853 144.5C213.853 66.2425 182.834 2.57732 144.702 2.57732Z" fill="white"/>
</svg>
