<svg viewBox="0 0 289 289" fill="none" xmlns="http://www.w3.org/2000/svg">
<path d="M144.306 288.806C64.7365 288.806 0 224.069 0 144.5C0 64.9304 64.7365 0.193848 144.306 0.193848C223.876 0.193848 288.612 64.9304 288.612 144.5C288.612 224.069 223.876 288.806 144.306 288.806ZM144.306 2.58071C66.0519 2.58071 2.38339 66.2458 2.38339 144.503C2.38339 222.761 66.0486 286.423 144.306 286.423C222.563 286.423 286.229 222.757 286.229 144.503C286.229 66.2492 222.563 2.58071 144.306 2.58071Z" fill="white"/>
<path d="M145.52 215.478C106.547 215.478 74.8398 183.771 74.8398 144.798C74.8398 105.826 106.547 74.1184 145.52 74.1184C184.493 74.1184 216.2 105.826 216.2 144.798C216.2 183.771 184.493 215.478 145.52 215.478ZM145.52 76.5018C107.862 76.5018 77.2232 107.141 77.2232 144.798C77.2232 182.456 107.862 213.095 145.52 213.095C183.177 213.095 213.816 182.456 213.816 144.798C213.816 107.141 183.177 76.5018 145.52 76.5018Z" fill="white"/>
<path d="M144.306 253.793C64.7365 253.793 0 204.588 0 144.106C0 83.625 64.7365 34.4199 144.306 34.4199C223.876 34.4199 288.612 83.625 288.612 144.106C288.612 204.588 223.876 253.793 144.306 253.793ZM144.306 36.8034C66.0519 36.8034 2.38339 84.9404 2.38339 144.106C2.38339 203.273 66.0486 251.41 144.306 251.41C222.563 251.41 286.229 203.276 286.229 144.106C286.229 84.937 222.563 36.8034 144.306 36.8034Z" fill="white"/>
<path d="M144.306 216.434C64.7365 216.434 0 184.344 0 144.9C0 105.456 64.7365 73.3657 144.306 73.3657C223.876 73.3657 288.612 105.456 288.612 144.9C288.612 184.344 223.876 216.434 144.306 216.434ZM144.306 75.7492C66.0519 75.7492 2.38339 106.768 2.38339 144.9C2.38339 183.032 66.0486 214.051 144.306 214.051C222.563 214.051 286.229 183.029 286.229 144.9C286.229 106.771 222.563 75.7492 144.306 75.7492Z" fill="white"/>
</svg>
