<svg width="19" height="19" viewBox="0 0 19 19" fill="none" xmlns="http://www.w3.org/2000/svg">
<path d="M16.4424 8.7215C16.7979 9.1865 16.7979 9.81425 16.4424 10.2785C15.3226 11.7403 12.6361 14.75 9.49964 14.75C6.36314 14.75 3.67664 11.7403 2.55689 10.2785C2.38393 10.0558 2.29004 9.78194 2.29004 9.5C2.29004 9.21806 2.38393 8.94415 2.55689 8.7215C3.67664 7.25975 6.36314 4.25 9.49964 4.25C12.6361 4.25 15.3226 7.25975 16.4424 8.7215V8.7215Z" stroke="white" stroke-width="1.25" stroke-linecap="round" stroke-linejoin="round"/>
<path d="M9.5 11.75C10.7426 11.75 11.75 10.7426 11.75 9.5C11.75 8.25736 10.7426 7.25 9.5 7.25C8.25736 7.25 7.25 8.25736 7.25 9.5C7.25 10.7426 8.25736 11.75 9.5 11.75Z" stroke="white" stroke-width="1.25" stroke-linecap="round" stroke-linejoin="round"/>
</svg>
