<svg  viewBox="0 0 369 95" fill="none" xmlns="http://www.w3.org/2000/svg">
<g clip-path="url(#clip0_265_2558)">
<path d="M114.033 71.8362C115.149 70.7198 116.489 70.1617 118.163 70.1617C119.782 70.1617 121.177 70.7198 122.238 71.8362C123.354 72.9525 123.856 74.2921 123.856 75.9108C123.856 77.5295 123.298 78.8691 122.238 79.9854C121.121 81.1018 119.782 81.6599 118.163 81.6599C116.544 81.6599 115.149 81.1018 114.033 79.9854C112.916 78.8691 112.414 77.5295 112.414 75.9108C112.414 74.2921 112.972 72.9525 114.033 71.8362ZM118.163 79.5389C119.168 79.5389 119.949 79.204 120.619 78.5342C121.289 77.8644 121.624 76.9713 121.624 75.9666C121.624 74.9061 121.289 74.0689 120.619 73.3991C119.949 72.7293 119.168 72.3943 118.163 72.3943C117.158 72.3943 116.377 72.7293 115.707 73.3991C115.037 74.0689 114.758 74.9619 114.758 75.9666C114.758 77.0271 115.093 77.8644 115.707 78.5342C116.377 79.1482 117.158 79.5389 118.163 79.5389Z" fill="#1646D0"/>
<path d="M131.614 81.8832V80.6552C127.986 80.5436 126.256 78.1993 126.256 75.7992C126.256 74.5154 126.702 73.399 127.651 72.4502C128.6 71.5013 129.884 70.9989 131.614 70.9431V69.9384H133.903V70.9431C135.633 70.9989 136.917 71.5013 137.866 72.4502C138.815 73.399 139.261 74.5154 139.261 75.7992C139.261 78.1993 137.531 80.4878 133.903 80.6552V81.8832H131.614ZM131.614 73.0083C129.716 73.0083 128.6 74.1247 128.6 75.7992C128.6 77.4179 129.716 78.5342 131.614 78.59V73.0083ZM133.903 78.59C135.801 78.5342 136.917 77.4737 136.917 75.7992C136.917 74.1247 135.801 73.0083 133.903 73.0083V78.59Z" fill="#1646D0"/>
<path d="M140.771 70.385H150.036V72.4502H146.52V81.4925H144.231V72.4502H140.715V70.385H140.771Z" fill="#1646D0"/>
<path d="M150.145 81.4366L154.889 70.3291H157.066L161.81 81.4366H159.41L158.294 78.8691H153.605L152.489 81.4366H150.145ZM154.331 76.9713H157.568L155.949 73.1199L154.331 76.9713Z" fill="#1646D0"/>
<path d="M163.486 79.2598C163.71 79.3156 163.989 79.3714 164.268 79.3714C164.882 79.3714 165.272 78.9807 165.496 78.1434C165.719 77.362 165.831 75.7991 165.886 73.5665L165.942 70.3291H173.757V81.3808H171.468V72.3385H168.119L168.063 74.5712C168.007 77.1387 167.673 78.9249 167.17 79.9296C166.668 80.9343 165.719 81.3808 164.435 81.3808C164.045 81.3808 163.71 81.325 163.486 81.2134V79.2598Z" fill="#1646D0"/>
<path d="M176.883 81.4367V70.385H179.171V74.0131H181.627C182.967 74.0131 183.972 74.348 184.753 75.0736C185.534 75.7434 185.925 76.6365 185.925 77.7528C185.925 78.8691 185.534 79.7622 184.753 80.432C183.972 81.1018 182.911 81.4367 181.627 81.4367H176.883ZM179.171 79.4273H181.46C182.799 79.4273 183.581 78.8133 183.581 77.697C183.581 76.5807 182.799 75.9667 181.46 75.9667H179.171V79.4273Z" fill="#1646D0"/>
<path d="M188.27 81.4367V70.385H190.558L193.795 74.962L197.033 70.385H199.265V81.4367H197.033V73.8456L194.465 77.4179H193.126L190.558 73.8456V81.4367H188.27Z" fill="#1646D0"/>
<path d="M203.507 71.8362C204.624 70.7198 205.963 70.1617 207.638 70.1617C209.256 70.1617 210.652 70.7198 211.712 71.8362C212.829 72.9525 213.331 74.2921 213.331 75.9108C213.331 77.5295 212.773 78.8691 211.712 79.9854C210.596 81.1018 209.256 81.6599 207.638 81.6599C206.019 81.6599 204.624 81.1018 203.507 79.9854C202.391 78.8691 201.889 77.5295 201.889 75.9108C201.889 74.2921 202.391 72.9525 203.507 71.8362ZM207.582 79.5389C208.587 79.5389 209.368 79.204 210.038 78.5342C210.708 77.8644 211.043 76.9713 211.043 75.9666C211.043 74.9061 210.708 74.0689 210.038 73.3991C209.368 72.7293 208.587 72.3943 207.582 72.3943C206.577 72.3943 205.796 72.7293 205.126 73.3991C204.456 74.0689 204.177 74.9619 204.177 75.9666C204.177 77.0271 204.512 77.8644 205.126 78.5342C205.796 79.1482 206.633 79.5389 207.582 79.5389Z" fill="#1646D0"/>
<path d="M214.893 79.2598C215.116 79.3156 215.395 79.3714 215.674 79.3714C216.288 79.3714 216.679 78.9807 216.902 78.1434C217.125 77.362 217.237 75.7991 217.293 73.5665L217.349 70.3291H225.163V81.3808H222.93V72.3385H219.581L219.525 74.5712C219.47 77.1387 219.135 78.9249 218.632 79.9296C218.13 80.9343 217.237 81.3808 215.897 81.3808C215.507 81.3808 215.172 81.325 214.948 81.2134V79.2598H214.893Z" fill="#1646D0"/>
<path d="M229.406 71.8362C230.522 70.7198 231.862 70.1617 233.536 70.1617C235.211 70.1617 236.55 70.7198 237.611 71.8362C238.727 72.9525 239.23 74.2921 239.23 75.9108C239.23 77.5295 238.671 78.8691 237.611 79.9854C236.495 81.1018 235.155 81.6599 233.536 81.6599C231.918 81.6599 230.522 81.1018 229.406 79.9854C228.289 78.8691 227.787 77.5295 227.787 75.9108C227.787 74.2921 228.289 72.9525 229.406 71.8362ZM233.536 79.5389C234.541 79.5389 235.322 79.204 235.992 78.5342C236.662 77.8644 236.997 76.9713 236.997 75.9666C236.997 74.9061 236.662 74.0689 235.992 73.3991C235.322 72.7293 234.541 72.3943 233.536 72.3943C232.532 72.3943 231.75 72.7293 231.08 73.3991C230.41 74.0689 230.131 74.9619 230.131 75.9666C230.131 77.0271 230.466 77.8644 231.08 78.5342C231.694 79.1482 232.532 79.5389 233.536 79.5389Z" fill="#1646D0"/>
<path d="M241.908 81.4367V70.385H249.89V72.4502H244.197V81.4925H241.908V81.4367Z" fill="#1646D0"/>
<path d="M252.291 81.4367V70.385H254.524V81.4367H252.291Z" fill="#1646D0"/>
<path d="M263.79 81.4367V77.1388C263.008 77.4179 262.171 77.5295 261.278 77.5295C258.654 77.5295 257.203 76.3016 257.203 73.9015V70.385H259.492V73.5666C259.492 74.962 260.217 75.4643 261.613 75.4643C262.45 75.4643 263.176 75.2969 263.79 75.0178V70.4408H266.022V81.4925H263.79V81.4367Z" fill="#1646D0"/>
<path d="M269.258 81.4367V70.385H271.546V74.5154H276.514V70.385H278.802V81.4367H276.514V76.5807H271.546V81.4367H269.258Z" fill="#1646D0"/>
<path d="M281.928 81.4367V70.385H284.216V77.5854L289.575 70.385H291.528V81.4367H289.296V74.1805L283.881 81.4367H281.928Z" fill="#1646D0"/>
<path d="M294.713 81.4366V70.3849H297.001V77.5853L302.36 70.3849H304.313V81.4366H302.081V74.1805L296.666 81.4366H294.713ZM298.285 67.0917C298.285 67.7615 298.732 68.2639 299.513 68.2639C300.239 68.2639 300.741 67.8174 300.741 67.0917H302.416C302.416 68.7662 301.188 69.7709 299.513 69.7709C297.839 69.7709 296.611 68.7104 296.611 67.0917H298.285Z" fill="#1646D0"/>
<path d="M320.834 83.6693V81.3808H312.238V70.3291H314.527V79.3714H319.16V70.3291H321.448V79.3714H322.955V83.6693H320.834Z" fill="#1646D0"/>
<path d="M325.355 81.4367V70.385H333.505V72.4502H327.644V74.5713H332.333V76.5807H327.644V79.4273H333.672V81.4925H325.355V81.4367Z" fill="#1646D0"/>
<path d="M336.24 81.4367V70.385H338.529V74.5154H343.552V70.385H345.785V81.4367H343.552V76.5807H338.529V81.4367H336.24Z" fill="#1646D0"/>
<path d="M348.127 70.385H357.393V72.4502H353.876V81.4925H351.643V72.4502H348.127V70.385Z" fill="#1646D0"/>
<path d="M359.738 81.4367V70.385H364.594C365.766 70.385 366.715 70.7199 367.385 71.3339C368.055 71.9479 368.446 72.7293 368.446 73.734C368.446 74.7387 368.111 75.5201 367.385 76.1341C366.715 76.7481 365.766 77.083 364.594 77.083H362.027V81.4367H359.738ZM362.027 75.1294H364.427C365.543 75.1294 366.157 74.6271 366.157 73.734C366.157 72.8409 365.487 72.3386 364.427 72.3386H362.027V75.1294Z" fill="#1646D0"/>
<path d="M81.4922 81.3807C64.8588 80.5993 49.2859 73.064 36.8388 59.9471C40.2995 61.1751 43.9275 61.8449 47.5556 61.8449C69.38 61.8449 87.1297 38.9042 87.1297 10.661V7.87012H32.4293C36.783 9.32135 41.0251 11.1633 45.1555 13.4518H81.4364C80.934 24.8384 77.3059 35.0528 71.6684 42.6997C56.4305 20.5963 34.4387 7.92593 10.7166 7.92593H7.92578V62.7379C9.37702 58.44 11.219 54.4212 13.5075 50.6815V13.6192C30.085 14.4007 45.6579 21.9359 58.1608 34.997C54.7002 33.7691 51.1279 33.0993 47.4998 33.0993C25.6755 33.0993 7.92578 56.0399 7.92578 84.2832V87.074H62.7378C58.3283 85.6228 54.0304 83.7808 49.8999 81.4923H13.6191C14.1214 70.1057 17.7495 59.8913 23.387 52.2444C30.2525 62.2356 38.7366 70.5523 48.1696 76.4688C59.4446 83.5017 71.5568 87.074 84.283 87.074H87.0739V32.262C85.6226 36.5599 83.7807 40.5787 81.4922 44.3184V81.3807ZM27.2942 47.5C32.9875 41.9183 39.9646 38.6251 47.4998 38.6251C54.8118 38.6251 61.8447 41.7509 67.7055 47.5C62.0122 53.0816 55.0351 56.3748 47.4998 56.3748C40.132 56.3748 33.1549 53.3049 27.2942 47.5ZM53.0815 47.5C53.0815 44.43 50.5697 41.9183 47.4998 41.9183C44.4299 41.9183 41.9181 44.43 41.9181 47.5C41.9181 50.5699 44.4299 53.0816 47.4998 53.0816C50.5697 53.0816 53.0815 50.5699 53.0815 47.5Z" fill="#1646D0"/>
<path d="M81.4922 81.3807C64.8588 80.5993 49.2859 73.064 36.8388 59.9471C40.2995 61.1751 43.9275 61.8449 47.5556 61.8449C69.38 61.8449 87.1297 38.9042 87.1297 10.661V7.87012H32.4293C36.783 9.32135 41.0251 11.1633 45.1555 13.4518H81.4364C80.934 24.8384 77.3059 35.0528 71.6684 42.6997C56.4305 20.5963 34.4387 7.92593 10.7166 7.92593H7.92578V62.7379C9.37702 58.44 11.219 54.4212 13.5075 50.6815V13.6192C30.085 14.4007 45.6579 21.9359 58.1608 34.997C54.7002 33.7691 51.1279 33.0993 47.4998 33.0993C25.6755 33.0993 7.92578 56.0399 7.92578 84.2832V87.074H62.7378C58.3283 85.6228 54.0304 83.7808 49.8999 81.4923H13.6191C14.1214 70.1057 17.7495 59.8913 23.387 52.2444C30.2525 62.2356 38.7366 70.5523 48.1696 76.4688C59.4446 83.5017 71.5568 87.074 84.283 87.074H87.0739V32.262C85.6226 36.5599 83.7807 40.5787 81.4922 44.3184V81.3807ZM27.2942 47.5C32.9875 41.9183 39.9646 38.6251 47.4998 38.6251C54.8118 38.6251 61.8447 41.7509 67.7055 47.5C62.0122 53.0816 55.0351 56.3748 47.4998 56.3748C40.132 56.3748 33.1549 53.3049 27.2942 47.5ZM53.0815 47.5C53.0815 44.43 50.5697 41.9183 47.4998 41.9183C44.4299 41.9183 41.9181 44.43 41.9181 47.5C41.9181 50.5699 44.4299 53.0816 47.4998 53.0816C50.5697 53.0816 53.0815 50.5699 53.0815 47.5Z" fill="#1646D0"/>
<path d="M112.75 58.2168H141.83V50.3466H120.564V39.7973H137.533V31.9271H120.564V21.3778H141.83V13.5076H112.75V58.2168ZM206.913 19.9823C210.932 19.9823 214.448 21.3219 217.35 23.9453L222.932 18.3637C218.467 14.2332 213.053 12.1122 206.913 12.1122C200.382 12.1122 194.689 14.4565 190.056 19.0335C185.423 23.6662 183.079 29.3037 183.079 35.8343C183.079 42.3648 185.423 48.0581 190.056 52.6351C194.689 57.2679 200.326 59.6122 206.913 59.6122C213.053 59.6122 218.467 57.4911 222.932 53.3607L217.35 47.779C214.392 50.4024 210.876 51.742 206.913 51.742C202.559 51.742 198.764 50.1792 195.638 47.0534C192.568 43.9835 190.949 40.188 190.949 35.7785C190.949 31.4248 192.512 27.685 195.638 24.5593C198.708 21.5452 202.503 19.9823 206.913 19.9823ZM229.407 58.2168H237.221V13.5634H229.407V58.2168ZM363.423 18.5869C360.074 15.2379 355.943 13.5076 351.143 13.5076H335.179V58.1609H343.05V48.2814H351.087C355.887 48.2814 360.018 46.5511 363.367 43.2021C366.716 39.8531 368.446 35.6668 368.446 30.9224C368.502 26.1222 366.772 21.9917 363.423 18.5869ZM357.841 37.6204C355.999 39.4624 353.711 40.4112 351.087 40.4112H342.994V21.3778H351.087C353.711 21.3778 355.943 22.3266 357.841 24.1686C359.683 26.0105 360.632 28.299 360.632 30.9224C360.632 33.49 359.683 35.7785 357.841 37.6204ZM267.585 35.2203L251.399 13.5076H245.259V58.1609H253.129V28.8572L265.911 45.9929H269.427L282.154 28.9688V58.1609H290.024V13.5076H283.94L267.585 35.2203ZM297.838 58.2168H326.919V50.3466H305.652V39.7973H322.621V31.9271H305.652V21.3778H326.919V13.5076H297.838V58.2168ZM183.47 13.5076H173.702L157.906 35.1645V13.5076H150.036V58.1609H157.906V36.5041L173.702 58.1609H183.414L167.115 35.8343L183.47 13.5076Z" fill="#1646D0"/>
</g>
<defs>
<clipPath id="clip0_265_2558">
<rect width="368.502" height="95" fill="white"/>
</clipPath>
</defs>
</svg>
