<svg width="125" height="19" viewBox="0 0 125 19" fill="none" xmlns="http://www.w3.org/2000/svg">
<g clip-path="url(#clip0_28_745)">
<mask id="mask0_28_745" style="mask-type:luminance" maskUnits="userSpaceOnUse" x="0" y="0" width="125" height="19">
<path d="M124.5 0.109375H0V18.8782H124.5V0.109375Z" fill="white"/>
</mask>
<g mask="url(#mask0_28_745)">
<path d="M32.7014 6.91024L26.3763 11.2333H32.7014V13.2729H22.7539V11.2458L29.079 6.92276H22.7539V4.87695H32.7014V6.9165V6.91024Z" fill="white"/>
<path d="M44.9453 9.0434V13.2852H42.4803V12.2341C40.985 12.9598 39.3334 13.4228 37.3501 13.4228C34.9853 13.4228 33.5088 12.6595 33.5088 10.7701C33.5088 8.59295 35.9112 7.8985 38.6014 7.8985C40.0466 7.8985 41.3854 8.12372 42.4866 8.49284C42.4866 6.89749 40.4157 6.76611 39.2708 6.76611C38.1259 6.76611 36.8184 6.85995 35.0854 7.38548L34.2095 5.59619C35.93 5.03938 37.6192 4.72656 39.3897 4.72656C42.9057 4.72656 44.914 5.84644 44.939 9.03714L44.9453 9.0434ZM42.4803 10.0069C41.6169 9.73159 40.4595 9.49385 38.8954 9.49385C37.0561 9.49385 35.955 9.80041 35.955 10.6638C35.955 11.5271 36.7683 11.6147 38.0446 11.6147C39.3209 11.6147 41.2103 11.1956 42.4803 10.6638V10.0069Z" fill="white"/>
<path d="M57.8577 8.62437L57.8327 13.279H55.3677V9.5503C55.3677 7.761 54.7671 6.83507 52.7463 6.83507C51.0947 6.83507 49.3116 7.67967 48.5609 8.56181V13.279H46.1084V1.86133H48.5609V6.35334C49.7683 5.4149 51.4325 4.73296 53.4783 4.73296C55.7118 4.73296 57.8327 5.53376 57.8577 8.62437Z" fill="white"/>
<path d="M70.1513 9.0434V13.2852H67.6864V12.2341C66.1911 12.9598 64.5394 13.4228 62.5562 13.4228C60.1913 13.4228 58.7148 12.6595 58.7148 10.7701C58.7148 8.59295 61.1173 7.8985 63.8075 7.8985C65.2527 7.8985 66.5915 8.12372 67.6926 8.49284C67.6926 6.89749 65.6218 6.76611 64.4769 6.76611C63.332 6.76611 62.0244 6.85995 60.2914 7.38548L59.4155 5.59619C61.136 5.03938 62.8252 4.72656 64.5957 4.72656C68.1118 4.72656 70.12 5.84644 70.1451 9.03714L70.1513 9.0434ZM67.6864 10.0069C66.823 9.73159 65.6656 9.49385 64.1015 9.49385C62.2622 9.49385 61.1611 9.80041 61.1611 10.6638C61.1611 11.5271 61.9744 11.6147 63.2569 11.6147C64.5394 11.6147 66.4288 11.1956 67.6926 10.6638V10.0069H67.6864Z" fill="white"/>
<path d="M80.3183 5.01435V7.06016C79.5175 6.85995 78.8731 6.77237 78.1536 6.77237C76.7772 6.77237 75.2006 7.07892 73.7054 8.24885V13.2852H71.2529V4.87046H73.7054V6.29689C74.9754 5.1645 76.4582 4.72656 78.0347 4.72656C79.042 4.72656 79.7427 4.87046 80.3183 5.01435Z" fill="white"/>
<path d="M80.5557 9.07547C80.5557 5.97861 82.908 4.71484 86.4053 4.71484C89.9026 4.71484 92.2549 5.97861 92.2549 9.07547C92.2549 12.1723 89.89 13.4236 86.4053 13.4236C82.9205 13.4236 80.5557 12.1598 80.5557 9.07547ZM89.7899 9.07547C89.7899 7.3112 88.6638 6.7669 86.4053 6.7669C84.1468 6.7669 83.0081 7.32371 83.0081 9.07547C83.0081 10.8272 84.1343 11.3715 86.4053 11.3715C88.6763 11.3715 89.7899 10.821 89.7899 9.07547Z" fill="white"/>
<path d="M103.792 4.87109L99.5 13.2795H95.9965L91.7422 4.87109H94.4699L97.7795 11.5528L101.07 4.87109H103.798H103.792Z" fill="white"/>
<path d="M106.638 1.86133V3.36284H104.905V1.86133H106.638ZM106.638 3.98221V9.92567H104.905V3.98221H106.638Z" fill="white"/>
<path d="M111.443 3.88184C113.67 3.88184 115.247 4.60756 115.535 6.35932H113.764C113.526 5.59606 112.713 5.32078 111.456 5.32078C109.96 5.32078 109.053 5.71493 109.053 6.95367C109.053 8.19241 109.96 8.57405 111.456 8.57405C112.713 8.57405 113.539 8.31128 113.764 7.54802H115.535C115.247 9.29978 113.683 10.0255 111.443 10.0255C108.966 10.0255 107.308 9.13086 107.308 6.95367C107.308 4.77648 108.972 3.88184 111.443 3.88184Z" fill="white"/>
<path d="M124.5 6.63487L124.475 9.91942H122.729V7.29804C122.729 6.03427 122.297 5.38361 120.877 5.38361C119.72 5.38361 118.45 5.97796 117.912 6.60985V9.94444H116.179V1.86133H117.912V5.02701C118.763 4.35758 119.945 3.88211 121.39 3.88211C122.992 3.88211 124.475 4.43892 124.5 6.63487Z" fill="white"/>
<path d="M5.83741 8.46832C5.83741 8.46832 5.681 7.88649 5.64346 7.5987C5.60593 7.31091 5.65598 7.0982 5.56213 7.07317C5.46829 7.06066 5.27434 7.36096 4.72379 7.36096C4.17324 7.36096 3.61017 7.12322 3.34741 6.74159C3.08464 6.35996 2.42773 5.19629 2.42773 5.19629C2.42773 5.19629 3.24105 6.06591 3.74155 6.15976C4.01683 6.22232 4.32964 6.07842 4.9365 6.10971C5.54336 6.14724 6.2253 6.27863 6.2253 6.9543C6.2253 7.62998 5.83115 8.46832 5.83115 8.46832H5.83741Z" fill="white"/>
<path d="M5.61841 9.04395C5.61841 9.04395 5.86866 9.80721 6.41922 10.1388C6.96977 10.4704 7.47027 10.4391 7.47027 10.4391V12.9854C7.47027 12.9854 6.86341 12.9604 6.34414 13.1043C5.68723 13.2857 5.19924 13.8425 5.19924 13.8175C5.19924 13.7925 4.39844 12.3035 4.39844 12.3035C4.39844 12.3035 5.51206 12.804 6.2065 12.6851C6.88844 12.5662 7.30761 11.9844 7.30761 11.6028C7.30761 11.2211 6.42547 10.9333 6.02507 10.5079C5.64344 10.07 5.61841 9.04395 5.61841 9.04395Z" fill="white"/>
<path d="M9.13438 8.38681C9.13438 8.38681 9.29079 7.81749 9.31581 7.5297C9.35335 7.25442 9.3033 7.04171 9.39714 7.0292C9.49099 7.01668 9.68493 7.30447 10.2105 7.30447C10.736 7.30447 11.2991 7.07925 11.5618 6.69761C11.8121 6.31598 12.5441 5.18359 12.5441 5.18359C12.5441 5.18359 11.7683 5.9844 11.1677 6.13455C10.9049 6.19711 10.6046 6.05322 9.99775 6.07199C9.39089 6.09701 8.74023 6.24091 8.74023 6.90407C8.74023 7.56724 9.13438 8.38055 9.13438 8.38055V8.38681Z" fill="white"/>
<path d="M9.32842 9.04395C9.32842 9.04395 9.07817 9.80721 8.52762 10.1388C7.97707 10.4704 7.47656 10.4266 7.47656 10.4266V12.9729C7.47656 12.9729 8.08342 12.9479 8.60269 13.0918C9.2596 13.2732 9.74759 13.83 9.74759 13.805C9.74759 13.78 10.5484 12.291 10.5484 12.291C10.5484 12.291 9.43478 12.7915 8.74033 12.6726C8.0584 12.5537 7.63923 11.9719 7.63923 11.5903C7.63923 11.2086 8.52136 10.9208 8.92176 10.4954C9.3034 10.0637 9.32842 9.04395 9.32842 9.04395Z" fill="white"/>
<path d="M7.47675 0.109375C7.47675 0.109375 6.62589 0.62239 5.73125 0.897666C4.8366 1.17294 4.17969 1.14792 4.17969 1.14792L5.59361 3.29382C5.59361 3.29382 6.3819 3.45023 6.65718 3.60038C6.93245 3.75679 7.49552 4.21975 7.49552 4.21975V0.109375H7.483H7.47675Z" fill="white"/>
<path d="M4.84211 3.26222C4.84211 3.26222 3.83485 3.6939 3.40942 4.13184C2.97774 4.56978 2.51477 5.28925 2.51477 5.28925L0.406407 4.48219V2.28624C0.406407 1.51046 0.25 0.822266 0.25 0.822266C0.25 0.822266 1.32608 1.17887 2.04555 1.21641C2.76502 1.25395 3.05281 1.2039 3.05281 1.2039L4.84837 3.26222H4.84211Z" fill="white"/>
<path d="M0.419171 5.4584C0.419171 5.4584 0.131382 7.4917 0.0813317 8.22994C0.0312814 8.96818 0 9.96918 0 9.96918C0 9.96918 0.800804 9.41237 1.35136 9.12459C1.90191 8.8368 2.87163 8.51773 2.87163 8.51773C2.87163 8.51773 2.54631 8.05476 2.43995 7.47918C2.32108 6.83479 2.43995 5.94014 2.43995 5.94014L0.419171 5.45215V5.4584Z" fill="white"/>
<path d="M3.42179 8.94336C3.42179 8.94336 2.27689 9.49391 1.43855 10.0883C0.600206 10.6826 0.00585938 11.1581 0.00585938 11.1581C0.00585938 11.1581 0.018372 12.6721 0.493849 13.6231C0.969327 14.574 2.17679 15.575 2.17679 15.575C2.17679 15.575 2.73985 14.3488 3.24036 13.6231C3.74086 12.8973 4.42279 12.3343 4.42279 12.3343C4.42279 12.3343 3.89727 11.4521 3.99111 10.8703C4.10998 10.082 4.49161 9.69411 4.49161 9.69411C4.49161 9.69411 4.135 9.32499 3.91604 9.1811C3.69081 9.02469 3.41553 8.94336 3.41553 8.94336H3.42179Z" fill="white"/>
<path d="M5.31763 12.9346C5.31763 12.9346 4.35416 14.1358 4.06637 14.8115C3.77858 15.4871 3.12793 16.3755 3.12793 16.3755C3.12793 16.3755 4.67323 17.3327 5.5366 17.852C6.50632 18.4338 7.46353 18.8906 7.46353 18.8906V15.1493C7.46353 15.1493 6.92549 16.069 6.19351 16.069C4.76082 16.0565 5.31763 12.9346 5.31763 12.9346Z" fill="white"/>
<path d="M7.47598 0.109375C7.47598 0.109375 8.31433 0.62239 9.20897 0.897666C10.1036 1.17294 10.7605 1.14792 10.7605 1.14792L9.35912 3.29382C9.35912 3.29382 8.58334 3.45023 8.30807 3.60038C8.03279 3.75679 7.46973 4.21975 7.46973 4.21975V0.109375H7.47598Z" fill="white"/>
<path d="M10.0916 3.26301C10.0916 3.26301 11.0989 3.69469 11.5243 4.13263C11.956 4.57057 12.419 5.27753 12.419 5.27753L14.5085 4.47673V2.28703C14.5085 1.51125 14.665 0.810547 14.665 0.810547C14.665 0.810547 13.5889 1.16715 12.8694 1.20469C12.1499 1.24223 11.8621 1.19218 11.8621 1.19218L10.0791 3.26301H10.0916Z" fill="white"/>
<path d="M14.5023 5.45898C14.5023 5.45898 14.7901 7.49853 14.8401 8.23677C14.8902 8.97501 14.9214 9.97602 14.9214 9.97602C14.9214 9.97602 14.1206 9.41921 13.5701 9.13142C13.0195 8.84363 12.0498 8.52456 12.0498 8.52456C12.0498 8.52456 12.3876 8.0616 12.494 7.48602C12.6129 6.84162 12.494 5.94697 12.494 5.94697L14.5023 5.45898Z" fill="white"/>
<path d="M11.5052 8.94336C11.5052 8.94336 12.6501 9.49391 13.4884 10.0883C14.3268 10.6701 14.9211 11.1581 14.9211 11.1581C14.9211 11.1581 14.9086 12.6721 14.4331 13.6231C13.9577 14.574 12.7502 15.575 12.7502 15.575C12.7502 15.575 12.1871 14.3488 11.6866 13.6231C11.1861 12.9098 10.5042 12.3343 10.5042 12.3343C10.5042 12.3343 11.0172 11.4521 10.9234 10.8703C10.8045 10.082 10.4229 9.69411 10.4229 9.69411C10.4229 9.69411 10.7795 9.32499 10.9984 9.1811C11.2487 9.02469 11.5114 8.94336 11.5114 8.94336H11.5052Z" fill="white"/>
<path d="M9.69678 12.9346C9.69678 12.9346 10.6602 14.1358 10.948 14.8115C11.2358 15.4871 11.8865 16.3755 11.8865 16.3755C11.8865 16.3755 10.2473 17.3327 9.38397 17.852C8.41424 18.4338 7.45703 18.8906 7.45703 18.8906V15.1493C7.45703 15.1493 7.99507 16.069 8.72706 16.069C10.2223 16.0565 9.69678 12.9346 9.69678 12.9346Z" fill="white"/>
</g>
<path d="M115.116 10.1191H105.105V13.2473H115.116V10.1191Z" fill="#157DFF"/>
<path d="M125.751 10.1191H115.115V13.2473H125.751V10.1191Z" fill="#FEEA00"/>
</g>
<defs>
<clipPath id="clip0_28_745">
<rect width="124.5" height="18.7814" fill="white" transform="translate(0 0.109375)"/>
</clipPath>
</defs>
</svg>
