<svg width="289" height="289" viewBox="0 0 289 289" fill="none" xmlns="http://www.w3.org/2000/svg">
<g opacity="0.3">
<path d="M144.306 288.612C64.7365 288.612 0 223.876 0 144.306C0 64.7365 64.7365 0 144.306 0C223.876 0 288.612 64.7365 288.612 144.306C288.612 223.876 223.876 288.612 144.306 288.612ZM144.306 2.38686C66.0519 2.38686 2.38339 66.052 2.38339 144.309C2.38339 222.567 66.0486 286.229 144.306 286.229C222.563 286.229 286.229 222.564 286.229 144.309C286.229 66.0554 222.563 2.38686 144.306 2.38686Z" fill="white"/>
<path d="M145.52 215.284C106.547 215.284 74.8398 183.577 74.8398 144.604C74.8398 105.632 106.547 73.9246 145.52 73.9246C184.493 73.9246 216.2 105.632 216.2 144.604C216.2 183.577 184.493 215.284 145.52 215.284ZM145.52 76.308C107.862 76.308 77.2232 106.947 77.2232 144.604C77.2232 182.262 107.862 212.901 145.52 212.901C183.177 212.901 213.816 182.262 213.816 144.604C213.816 106.947 183.177 76.308 145.52 76.308Z" fill="white"/>
<path d="M144.306 253.599C64.7365 253.599 0 204.394 0 143.913C0 83.4311 64.7365 34.2261 144.306 34.2261C223.876 34.2261 288.612 83.4311 288.612 143.913C288.612 204.394 223.876 253.599 144.306 253.599ZM144.306 36.6095C66.0519 36.6095 2.38339 84.7466 2.38339 143.913C2.38339 203.079 66.0486 251.216 144.306 251.216C222.563 251.216 286.229 203.082 286.229 143.913C286.229 84.7432 222.563 36.6095 144.306 36.6095Z" fill="white"/>
<path d="M144.306 216.24C64.7365 216.24 0 184.15 0 144.706C0 105.262 64.7365 73.1719 144.306 73.1719C223.876 73.1719 288.612 105.262 288.612 144.706C288.612 184.15 223.876 216.24 144.306 216.24ZM144.306 75.5553C66.0519 75.5553 2.38339 106.574 2.38339 144.706C2.38339 182.838 66.0486 213.857 144.306 213.857C222.563 213.857 286.229 182.835 286.229 144.706C286.229 106.578 222.563 75.5553 144.306 75.5553Z" fill="white"/>
</g>
</svg>
