<svg width="331" height="331" viewBox="0 0 331 331" fill="none" xmlns="http://www.w3.org/2000/svg">
<mask id="mask0_2_598" style="mask-type:luminance" maskUnits="userSpaceOnUse" x="1" y="1" width="330" height="330">
<path d="M17.5151 237.568C31.1382 265.688 69.9129 280.778 123.562 274.07C69.9129 280.778 31.1339 265.692 17.5151 237.568C14.9032 231.781 11.3416 224.055 9.52269 217.975C7.85637 212.408 5.76178 204.946 4.46011 199.285C3.62059 195.643 2.93375 190.699 2.38255 187.006C1.44127 180.697 0.928188 172.171 1.01299 165.794C1.11899 158.123 1.82283 147.875 3.02699 140.299C4.08698 133.608 5.95259 124.721 8.07259 118.289C9.30219 114.558 10.8752 109.55 12.355 105.912C14.3732 100.951 17.3539 94.4557 19.7326 89.6561C22.6115 83.8515 27.1611 76.4485 30.9347 71.1824C35.3655 65.0005 41.9035 57.2116 47.0254 51.5894C50.9644 47.2646 56.7053 41.9137 61.3396 38.3394C64.2525 36.0922 68.06 32.9885 71.1001 30.9194C75.3995 27.9981 81.2167 24.2033 85.7832 21.7186C94.1826 17.1479 100.657 14.1375 110.43 10.5844C113.661 9.40993 118.033 8.02769 121.348 7.12457C125.228 6.06458 130.477 4.94098 134.399 4.05058C137.647 3.31282 142.061 2.71074 145.368 2.30794C148.913 1.87546 153.657 1.46418 157.223 1.25218C160.335 1.06986 164.494 0.997783 167.611 1.02746C170.748 1.06138 174.933 1.20554 178.062 1.46418C180.967 1.70586 184.834 2.07898 187.721 2.46482C190.566 2.84642 194.361 3.39762 197.168 4.01242C199.886 4.61026 203.545 5.28018 206.225 6.0349C208.849 6.7769 212.368 7.69697 214.972 8.51105C217.558 9.32089 220.988 10.4572 223.511 11.4409C228.535 13.3998 235.103 16.3466 239.979 18.6446C242.472 19.8191 245.644 21.689 248.069 23.0034C251.838 25.047 260.217 30.5039 263.876 33.3405C266.331 35.24 269.685 37.678 272 39.7428C276.473 43.7327 282.307 49.215 286.488 53.5101C289.044 56.1389 292.173 59.9083 294.48 62.7618C296.528 65.2973 299.055 68.8292 300.984 71.458C303.549 74.9518 306.534 79.921 308.726 83.6607C310.507 86.7008 312.631 90.8941 314.213 94.0402C317.066 99.7091 320.14 107.629 322.205 113.633C324.096 119.124 326.182 126.616 327.268 132.323C328.671 139.688 330.274 149.61 330.486 157.106C330.664 163.538 330.732 172.145 330.206 178.56C329.659 185.264 328.612 194.223 326.924 200.731C324.961 208.308 322.316 218.45 319.365 225.701C317.346 230.661 314.387 237.17 311.987 241.957C310.244 245.429 307.603 249.894 305.568 253.197C302.197 258.662 297.317 265.756 293.081 270.581C290.579 273.426 287.374 277.344 284.694 280.023C280.556 284.162 274.806 289.445 270.38 293.273C266.39 296.725 260.704 300.931 256.206 303.691C253.136 305.574 249.099 308.181 245.936 309.894C241.849 312.107 236.337 314.952 232.055 316.763C228.853 318.115 224.567 319.883 221.289 321.024C217.414 322.372 212.22 324.124 208.226 325.069C201.722 326.604 192.953 328.27 186.352 329.305C182.824 329.86 178.067 330.263 174.497 330.361C171.228 330.45 166.865 330.712 163.596 330.581C160.615 330.462 156.634 330.369 153.657 330.149C150.702 329.932 146.759 329.576 143.833 329.122C138.3 328.27 130.948 326.943 125.52 325.582C117.223 323.496 110.68 321.083 108.217 320.172C105.749 319.26 99.1943 316.729 91.6471 312.921C86.7584 310.454 80.4748 306.718 75.832 303.818C73.3558 302.271 70.1885 300.002 67.8396 298.272C65.5373 296.572 62.582 294.159 60.3348 292.387C57.8162 290.399 54.7125 287.443 52.3424 285.281C49.7348 282.907 46.4106 279.565 44.1125 276.89C39.9192 272.018 34.5217 265.344 30.7311 260.155C28.1744 256.652 25.181 251.692 22.9889 247.952C21.2081 244.912 19.1474 240.685 17.5023 237.572L17.5151 237.568Z" fill="white"/>
</mask>
<g mask="url(#mask0_2_598)">
<path d="M123.565 274.07C41.9836 284.271 -5.21179 244.068 18.1548 184.275C51.0148 252.115 143.79 298.844 225.372 288.643C202.005 348.435 156.425 341.91 123.565 274.07Z" stroke="white" stroke-width="0.5" stroke-miterlimit="10"/>
<path d="M54.7891 268.609C71.3759 302.851 118.198 326.434 159.377 321.282" stroke="white" stroke-width="0.5" stroke-miterlimit="10"/>
<path d="M16.9727 236.397C45.3467 294.977 125.457 335.321 195.9 326.514" stroke="white" stroke-width="0.5" stroke-miterlimit="10"/>
<path d="M123.566 274.07C69.7049 317.119 44.9857 303.546 68.3523 243.754" stroke="white" stroke-width="0.5" stroke-miterlimit="10"/>
<path d="M123.564 274.07C110.763 337.797 119.324 340.985 142.69 281.193" stroke="white" stroke-width="0.5" stroke-miterlimit="10"/>
<path d="M123.562 274.07C156.422 341.91 202.002 348.436 225.369 288.643C306.951 278.442 346.451 215.177 313.586 147.337C290.22 207.129 205.144 263.869 123.562 274.07Z" stroke="white" stroke-width="0.5" stroke-miterlimit="10"/>
<path d="M159.367 321.287C200.542 316.139 220.478 284.208 203.891 249.966" stroke="white" stroke-width="0.5" stroke-miterlimit="10"/>
<path d="M195.891 326.515C266.334 317.708 300.44 263.08 272.066 204.5" stroke="white" stroke-width="0.5" stroke-miterlimit="10"/>
<path d="M123.562 274.07C193.111 327.499 268.439 322.343 291.801 262.55" stroke="white" stroke-width="0.5" stroke-miterlimit="10"/>
<path d="M123.562 274.07C210.593 299.502 300.086 271.649 323.453 211.857" stroke="white" stroke-width="0.5" stroke-miterlimit="10"/>
<path d="M123.562 274.07C205.144 263.869 290.224 207.129 313.586 147.337C280.726 79.4968 187.951 32.7678 106.369 42.9692C83.0026 102.762 90.7024 206.23 123.562 274.07Z" stroke="white" stroke-width="0.5" stroke-miterlimit="10"/>
<path d="M203.897 249.966C187.31 215.723 140.487 192.141 99.3086 197.292" stroke="white" stroke-width="0.5" stroke-miterlimit="10"/>
<path d="M272.068 204.5C243.694 145.92 163.584 105.577 93.1406 114.383" stroke="white" stroke-width="0.5" stroke-miterlimit="10"/>
<path d="M123.562 274.07C177.423 231.021 240.022 147.65 263.389 87.8579" stroke="white" stroke-width="0.5" stroke-miterlimit="10"/>
<path d="M123.562 274.07C136.363 210.343 165.683 110.211 189.049 50.4189" stroke="white" stroke-width="0.5" stroke-miterlimit="10"/>
<path d="M123.561 274.07C90.7013 206.23 83.0015 102.762 106.368 42.9692C24.7864 53.1707 -14.7135 116.436 18.1507 184.276C-5.21587 244.068 41.9795 284.267 123.561 274.07Z" stroke="white" stroke-width="0.5" stroke-miterlimit="10"/>
<path d="M99.3083 197.288C58.1337 202.435 38.1973 234.367 54.7841 268.609" stroke="white" stroke-width="0.5" stroke-miterlimit="10"/>
<path d="M93.1426 114.383C22.6993 123.19 -11.4071 177.818 16.9669 236.398" stroke="white" stroke-width="0.5" stroke-miterlimit="10"/>
<path d="M123.563 274.07C54.0141 220.642 16.5707 128.854 39.9373 69.062" stroke="white" stroke-width="0.5" stroke-miterlimit="10"/>
<path d="M123.562 274.07C36.5321 248.638 -15.0772 179.548 8.28945 119.755" stroke="white" stroke-width="0.5" stroke-miterlimit="10"/>
<path d="M18.1523 184.275C41.519 124.483 126.594 67.7434 208.176 57.542C241.036 125.382 248.736 228.85 225.369 288.643C143.788 298.844 51.0123 252.12 18.1523 184.275Z" stroke="white" stroke-width="0.5" stroke-miterlimit="10"/>
<path d="M59.6758 127.112C88.0498 185.692 168.16 226.035 238.604 217.229" stroke="white" stroke-width="0.5" stroke-miterlimit="10"/>
<path d="M68.3516 243.754C91.7182 183.962 154.322 100.591 208.178 57.542" stroke="white" stroke-width="0.5" stroke-miterlimit="10"/>
<path d="M142.688 281.193C166.054 221.401 195.374 121.269 208.174 57.542" stroke="white" stroke-width="0.5" stroke-miterlimit="10"/>
<path d="M225.369 288.643C248.736 228.85 241.036 125.382 208.176 57.542C289.758 47.3405 336.953 87.5442 313.586 147.337C346.446 215.176 306.951 278.441 225.369 288.643Z" stroke="white" stroke-width="0.5" stroke-miterlimit="10"/>
<path d="M238.602 217.229C309.045 208.422 343.151 153.794 314.777 95.2144" stroke="white" stroke-width="0.5" stroke-miterlimit="10"/>
<path d="M291.805 262.55C315.172 202.758 277.728 110.974 208.18 57.542" stroke="white" stroke-width="0.5" stroke-miterlimit="10"/>
<path d="M323.452 211.857C346.819 152.064 295.206 82.9777 208.18 57.542" stroke="white" stroke-width="0.5" stroke-miterlimit="10"/>
<path d="M313.588 147.337C336.955 87.5443 289.759 47.3449 208.178 57.5421C175.318 -10.2978 129.738 -16.8232 106.371 42.9692C187.953 32.7678 280.728 79.4925 313.588 147.337Z" stroke="white" stroke-width="0.5" stroke-miterlimit="10"/>
<path d="M314.771 95.2146C286.397 36.6348 206.291 -3.70871 135.848 5.09776" stroke="white" stroke-width="0.5" stroke-miterlimit="10"/>
<path d="M263.389 87.858C286.756 28.0656 262.036 14.4933 208.176 57.542" stroke="white" stroke-width="0.5" stroke-miterlimit="10"/>
<path d="M189.051 50.419C212.417 -9.37342 220.978 -6.18494 208.177 57.5422" stroke="white" stroke-width="0.5" stroke-miterlimit="10"/>
<path d="M106.374 42.9692C129.741 -16.8232 175.321 -10.2978 208.181 57.5421C126.599 67.7435 41.5192 124.483 18.1568 184.275C-14.7032 116.436 24.7924 53.1706 106.374 42.9692Z" stroke="white" stroke-width="0.5" stroke-miterlimit="10"/>
<path d="M135.85 5.09766C65.4064 13.9041 31.2999 68.5322 59.6739 127.112" stroke="white" stroke-width="0.5" stroke-miterlimit="10"/>
<path d="M39.9375 69.0621C63.3041 9.26967 138.628 4.11384 208.176 57.542" stroke="white" stroke-width="0.5" stroke-miterlimit="10"/>
<path d="M8.28906 119.756C31.6557 59.9631 121.149 32.1106 208.179 57.5421" stroke="white" stroke-width="0.5" stroke-miterlimit="10"/>
<path d="M17.5151 237.568C31.1382 265.688 69.9129 280.778 123.562 274.07C69.9129 280.778 31.1339 265.692 17.5151 237.568ZM17.5151 237.568C14.9032 231.781 11.3416 224.055 9.52269 217.975C7.85637 212.408 5.76178 204.946 4.46011 199.285C3.62059 195.643 2.93375 190.699 2.38255 187.006C1.44127 180.697 0.928188 172.171 1.01299 165.794C1.11899 158.123 1.82283 147.875 3.02699 140.299C4.08698 133.608 5.95259 124.721 8.07259 118.289C9.30219 114.558 10.8752 109.55 12.355 105.912C14.3732 100.951 17.3539 94.4557 19.7326 89.6561C22.6115 83.8515 27.1611 76.4485 30.9347 71.1824C35.3655 65.0005 41.9035 57.2116 47.0254 51.5894C50.9644 47.2646 56.7053 41.9137 61.3396 38.3394C64.2525 36.0922 68.06 32.9885 71.1001 30.9194C75.3995 27.9981 81.2167 24.2033 85.7832 21.7186C94.1826 17.1479 100.657 14.1375 110.43 10.5844C113.661 9.40993 118.033 8.02769 121.348 7.12457C125.228 6.06458 130.477 4.94098 134.399 4.05058C137.647 3.31282 142.061 2.71074 145.368 2.30794C148.913 1.87546 153.657 1.46418 157.223 1.25218C160.335 1.06986 164.494 0.997783 167.611 1.02746C170.748 1.06138 174.933 1.20554 178.062 1.46418C180.967 1.70586 184.834 2.07898 187.721 2.46482C190.566 2.84642 194.361 3.39762 197.168 4.01242C199.886 4.61026 203.545 5.28018 206.225 6.0349C208.849 6.7769 212.368 7.69697 214.972 8.51105C217.558 9.32089 220.988 10.4572 223.511 11.4409C228.535 13.3998 235.103 16.3466 239.979 18.6446C242.472 19.8191 245.644 21.689 248.069 23.0034C251.838 25.047 260.217 30.5039 263.876 33.3405C266.331 35.24 269.685 37.678 272 39.7428C276.473 43.7327 282.307 49.215 286.488 53.5101C289.044 56.1389 292.173 59.9083 294.48 62.7618C296.528 65.2973 299.055 68.8292 300.984 71.458C303.549 74.9518 306.534 79.921 308.726 83.6607C310.507 86.7008 312.631 90.8941 314.213 94.0402C317.066 99.7091 320.14 107.629 322.205 113.633C324.096 119.124 326.182 126.616 327.268 132.323C328.671 139.688 330.274 149.61 330.486 157.106C330.664 163.538 330.732 172.145 330.206 178.56C329.659 185.264 328.612 194.223 326.924 200.731C324.961 208.308 322.316 218.45 319.365 225.701C317.346 230.661 314.387 237.17 311.987 241.957C310.244 245.429 307.603 249.894 305.568 253.197C302.197 258.662 297.317 265.756 293.081 270.581C290.579 273.426 287.374 277.344 284.694 280.023C280.556 284.162 274.806 289.445 270.38 293.273C266.39 296.725 260.704 300.931 256.206 303.691C253.136 305.574 249.099 308.181 245.936 309.894C241.849 312.107 236.337 314.952 232.055 316.763C228.853 318.115 224.567 319.883 221.289 321.024C217.414 322.372 212.22 324.124 208.226 325.069C201.722 326.604 192.953 328.27 186.352 329.305C182.824 329.86 178.067 330.263 174.497 330.361C171.228 330.45 166.865 330.712 163.596 330.581C160.615 330.462 156.634 330.369 153.657 330.149C150.702 329.932 146.759 329.576 143.833 329.122C138.3 328.27 130.948 326.943 125.52 325.582C117.223 323.496 110.68 321.083 108.217 320.172C105.749 319.26 99.1943 316.729 91.6471 312.921C86.7584 310.454 80.4748 306.718 75.832 303.818C73.3558 302.271 70.1885 300.002 67.8396 298.272C65.5373 296.572 62.582 294.159 60.3348 292.387C57.8162 290.399 54.7125 287.443 52.3424 285.281C49.7348 282.907 46.4106 279.565 44.1125 276.89C39.9192 272.018 34.5217 265.344 30.7311 260.155C28.1744 256.652 25.181 251.692 22.9889 247.952C21.2081 244.912 19.1474 240.685 17.5023 237.572L17.5151 237.568Z" stroke="white" stroke-width="0.5" stroke-miterlimit="10"/>
</g>
<path d="M17.5112 237.568C31.1343 265.688 69.909 280.778 123.558 274.07C69.909 280.778 31.13 265.692 17.5112 237.568ZM17.5112 237.568C14.8993 231.781 11.3377 224.055 9.51878 217.975C7.85246 212.408 5.75788 204.946 4.4562 199.285C3.61668 195.643 2.92984 190.699 2.37864 187.006C1.43736 180.697 0.924282 172.171 1.00908 165.794C1.11508 158.123 1.81892 147.875 3.02308 140.299C4.08308 133.608 5.94869 124.721 8.06868 118.289C9.29828 114.558 10.8713 109.55 12.3511 105.912C14.3693 100.951 17.35 94.4557 19.7287 89.6561C22.6076 83.8515 27.1572 76.4485 30.9308 71.1824C35.3615 65.0005 41.8996 57.2116 47.0215 51.5894C50.9605 47.2646 56.7014 41.9137 61.3357 38.3394C64.2486 36.0922 68.0561 32.9885 71.0962 30.9194C75.3956 27.9981 81.2128 24.2033 85.7793 21.7186C94.1787 17.1479 100.653 14.1375 110.426 10.5844C113.657 9.40993 118.029 8.02769 121.344 7.12457C125.224 6.06458 130.473 4.94098 134.395 4.05058C137.643 3.31282 142.057 2.71074 145.364 2.30794C148.909 1.87546 153.653 1.46418 157.219 1.25218C160.331 1.06986 164.491 0.997783 167.607 1.02746C170.745 1.06138 174.929 1.20554 178.059 1.46418C180.963 1.70586 184.83 2.07898 187.717 2.46482C190.562 2.84642 194.357 3.39762 197.164 4.01242C199.882 4.61026 203.541 5.28018 206.221 6.0349C208.845 6.7769 212.364 7.69697 214.968 8.51105C217.554 9.32089 220.984 10.4572 223.507 11.4409C228.531 13.3998 235.099 16.3466 239.975 18.6446C242.468 19.8191 245.64 21.689 248.065 23.0034C251.834 25.047 260.213 30.5039 263.872 33.3405C266.327 35.24 269.681 37.678 271.996 39.7428C276.469 43.7327 282.303 49.215 286.484 53.5101C289.04 56.1389 292.169 59.9083 294.476 62.7618C296.524 65.2973 299.051 68.8292 300.98 71.458C303.545 74.9518 306.53 79.921 308.722 83.6607C310.503 86.7008 312.627 90.8941 314.209 94.0402C317.063 99.7091 320.137 107.629 322.201 113.633C324.092 119.124 326.179 126.616 327.264 132.323C328.667 139.688 330.27 149.61 330.482 157.106C330.66 163.538 330.728 172.145 330.202 178.56C329.655 185.264 328.608 194.223 326.92 200.731C324.957 208.308 322.312 218.45 319.361 225.701C317.342 230.661 314.383 237.17 311.983 241.957C310.24 245.429 307.599 249.894 305.564 253.197C302.193 258.662 297.313 265.756 293.077 270.581C290.575 273.426 287.37 277.344 284.69 280.023C280.552 284.162 274.802 289.445 270.376 293.273C266.386 296.725 260.7 300.931 256.202 303.691C253.132 305.574 249.095 308.181 245.932 309.894C241.845 312.107 236.333 314.952 232.051 316.763C228.849 318.115 224.563 319.883 221.285 321.024C217.41 322.372 212.216 324.124 208.222 325.069C201.718 326.604 192.949 328.27 186.348 329.305C182.82 329.86 178.063 330.263 174.493 330.361C171.224 330.45 166.861 330.712 163.592 330.581C160.611 330.462 156.63 330.369 153.653 330.149C150.698 329.932 146.755 329.576 143.829 329.122C138.296 328.27 130.944 326.943 125.517 325.582C117.219 323.496 110.677 321.083 108.213 320.172C105.745 319.26 99.1904 316.729 91.6432 312.921C86.7545 310.454 80.4709 306.718 75.8281 303.818C73.3519 302.271 70.1846 300.002 67.8357 298.272C65.5334 296.572 62.5781 294.159 60.3309 292.387C57.8123 290.399 54.7086 287.443 52.3385 285.281C49.7309 282.907 46.4067 279.565 44.1086 276.89C39.9153 272.018 34.5178 265.344 30.7272 260.155C28.1705 256.652 25.1771 251.692 22.985 247.952C21.2042 244.912 19.1435 240.685 17.4984 237.572L17.5112 237.568Z" stroke="white" stroke-width="0.5" stroke-miterlimit="10"/>
<mask id="mask1_2_598" style="mask-type:luminance" maskUnits="userSpaceOnUse" x="1" y="1" width="330" height="330">
<path d="M186.356 329.309C183.151 329.669 178.873 330.114 175.655 330.297C172.195 330.496 167.573 330.7 164.113 330.585C161.128 330.488 157.134 330.483 154.162 330.182C151.258 329.89 147.378 329.589 144.486 329.207C141.544 328.821 137.626 328.215 134.717 327.626C129.286 326.532 120.369 324.691 108.239 320.176C105.707 319.235 102.366 317.874 99.8901 316.792C97.4182 315.711 94.1915 314.113 91.7493 312.964C89.2816 311.802 86.1398 309.953 83.7442 308.652C81.3019 307.324 78.1686 305.332 75.8366 303.81C73.4792 302.27 70.4348 300.07 68.124 298.467C65.7751 296.835 62.8495 294.376 60.6108 292.599C58.2109 290.691 55.1793 287.939 52.9491 285.836C50.5662 283.585 47.471 280.49 45.2365 278.09C43.0826 275.779 40.2927 272.612 38.3084 270.152C35.9425 267.223 32.8643 263.25 30.74 260.142C28.8193 257.335 26.3007 253.566 24.5793 250.631C22.3236 246.782 19.4913 241.549 17.507 237.555C10.4135 222.915 10.1421 204.738 18.143 184.263C41.5096 124.47 126.585 67.7308 208.167 57.5294C126.585 67.7308 41.5053 124.47 18.143 184.263C10.1421 204.738 10.4135 222.91 17.507 237.555C14.5771 230.907 10.7993 221.961 8.56483 215.049C6.57628 208.897 4.40962 200.511 3.45986 194.117C2.58643 188.257 1.67058 180.4 1.22962 174.49C0.945544 170.695 1.0855 165.611 1.05582 161.808C1.0007 155.325 2.00134 146.684 3.01894 140.281C4.24006 132.59 6.74586 122.465 9.0821 115.036C11.13 108.515 14.5517 100.027 17.5876 93.9043C19.3175 90.4148 21.6876 85.7847 23.7016 82.4479C26.4237 77.9408 30.3499 72.115 33.3561 67.7945C36.9897 62.5708 42.7392 56.2786 47.0258 51.5722C52.0332 46.0772 59.6695 39.6663 65.4825 35.032C69.9472 31.4747 76.2182 27.099 81.2129 24.3388C84.342 22.6088 88.4421 20.1539 91.6602 18.5936C96.2013 16.393 102.354 13.6412 107.056 11.8096C110.27 10.5588 114.624 9.06629 117.935 8.09957C122.184 6.86149 127.921 5.44533 132.237 4.4659C135.489 3.7239 139.89 3.01582 143.197 2.57486C147.043 2.06182 152.199 1.5615 156.07 1.29862C159.191 1.08662 163.363 0.98486 166.492 1.00182C169.816 1.01878 174.251 1.1587 177.563 1.40886C180.471 1.62934 184.347 2.00246 187.238 2.38406C190.181 2.7699 194.107 3.32958 197.007 3.96558C199.767 4.56766 203.482 5.25029 206.204 6.01349C208.828 6.75125 212.347 7.67133 214.951 8.48541C217.541 9.29525 220.976 10.4358 223.507 11.4195C228.531 13.3784 235.099 16.3252 239.98 18.6232C242.447 19.785 245.585 21.6379 247.985 22.9353C251.915 25.0596 260.086 30.4189 263.605 33.1198C265.958 34.9218 269.108 37.3131 271.389 39.2127C273.666 41.1079 276.566 43.7876 278.784 45.7507C281.048 47.7562 283.796 50.7285 285.92 52.8824C288.315 55.3119 291.258 58.7929 293.425 61.4345C295.485 63.9403 298.072 67.4129 299.992 70.0289C302.312 73.1877 305.119 77.6058 307.149 80.9554C308.96 83.9446 311.233 88.0235 312.793 91.1568C314.837 95.2569 317.351 100.837 319.085 105.077C320.467 108.456 321.956 113.095 323.164 116.537C325.301 122.639 327.12 131.11 328.269 137.47C329.325 143.3 330.266 151.174 330.499 157.097C330.796 164.725 330.554 174.935 329.859 182.533C329.261 189.041 327.739 197.657 326.187 204.004C324.572 210.627 321.926 219.366 319.382 225.688C316.465 232.938 312.059 242.436 308.031 249.131C305.318 253.642 301.438 259.502 298.377 263.784C296.159 266.883 292.852 270.759 290.444 273.71C286.467 278.582 280.399 284.433 275.748 288.664C271.466 292.561 265.47 297.488 260.633 300.676C257.614 302.665 253.654 305.433 250.52 307.24C246.068 309.809 240.06 313.138 235.379 315.253C232.203 316.691 227.946 318.56 224.677 319.765C220.442 321.325 214.726 323.224 210.384 324.467C207.153 325.391 202.795 326.447 199.496 327.108C195.578 327.893 190.329 328.842 186.361 329.283L186.356 329.309Z" fill="white"/>
</mask>
<g mask="url(#mask1_2_598)">
<path d="M123.561 274.07C41.9797 284.271 -5.21569 244.068 18.1509 184.275C51.0109 252.115 143.786 298.844 225.368 288.643C202.001 348.435 156.421 341.91 123.561 274.07Z" stroke="white" stroke-width="0.5" stroke-miterlimit="10"/>
<path d="M16.9688 236.397C45.3428 294.977 125.453 335.321 195.897 326.514" stroke="white" stroke-width="0.5" stroke-miterlimit="10"/>
<path d="M123.562 274.07C69.701 317.119 44.9818 303.546 68.3484 243.754" stroke="white" stroke-width="0.5" stroke-miterlimit="10"/>
<path d="M123.56 274.07C110.759 337.797 119.32 340.985 142.687 281.193" stroke="white" stroke-width="0.5" stroke-miterlimit="10"/>
<path d="M123.559 274.07C156.419 341.91 201.998 348.436 225.365 288.643C306.947 278.442 346.447 215.177 313.582 147.337C290.216 207.129 205.14 263.869 123.559 274.07Z" stroke="white" stroke-width="0.5" stroke-miterlimit="10"/>
<path d="M195.887 326.515C266.33 317.708 300.436 263.08 272.062 204.5" stroke="white" stroke-width="0.5" stroke-miterlimit="10"/>
<path d="M123.559 274.07C193.107 327.499 268.435 322.343 291.797 262.55" stroke="white" stroke-width="0.5" stroke-miterlimit="10"/>
<path d="M123.559 274.07C210.589 299.502 300.082 271.649 323.449 211.857" stroke="white" stroke-width="0.5" stroke-miterlimit="10"/>
<path d="M123.558 274.07C205.14 263.869 290.22 207.129 313.582 147.337C280.722 79.4968 187.947 32.7678 106.365 42.9692C82.9987 102.762 90.6985 206.23 123.558 274.07Z" stroke="white" stroke-width="0.5" stroke-miterlimit="10"/>
<path d="M272.064 204.5C243.69 145.92 163.58 105.577 93.1367 114.383" stroke="white" stroke-width="0.5" stroke-miterlimit="10"/>
<path d="M123.559 274.07C177.419 231.021 240.019 147.65 263.385 87.8579" stroke="white" stroke-width="0.5" stroke-miterlimit="10"/>
<path d="M123.559 274.07C136.359 210.343 165.679 110.211 189.045 50.4189" stroke="white" stroke-width="0.5" stroke-miterlimit="10"/>
<path d="M123.557 274.07C90.6974 206.23 82.9976 102.762 106.364 42.9692C24.7825 53.1707 -14.7174 116.436 18.1468 184.276C-5.21977 244.068 41.9756 284.267 123.557 274.07Z" stroke="white" stroke-width="0.5" stroke-miterlimit="10"/>
<path d="M93.1387 114.383C22.6954 123.19 -11.411 177.818 16.963 236.398" stroke="white" stroke-width="0.5" stroke-miterlimit="10"/>
<path d="M123.559 274.07C54.0101 220.642 16.5668 128.854 39.9334 69.062" stroke="white" stroke-width="0.5" stroke-miterlimit="10"/>
<path d="M123.558 274.07C36.5282 248.638 -15.0811 179.548 8.28555 119.755" stroke="white" stroke-width="0.5" stroke-miterlimit="10"/>
<path d="M18.1484 184.275C41.515 124.483 126.591 67.7434 208.172 57.542C241.032 125.382 248.732 228.85 225.365 288.643C143.784 298.844 51.0084 252.12 18.1484 184.275Z" stroke="white" stroke-width="0.5" stroke-miterlimit="10"/>
<path d="M59.6719 127.112C88.0459 185.692 168.156 226.035 238.6 217.229" stroke="white" stroke-width="0.5" stroke-miterlimit="10"/>
<path d="M127.84 81.6465C144.427 115.889 191.249 139.472 232.428 134.32" stroke="white" stroke-width="0.5" stroke-miterlimit="10"/>
<path d="M68.3477 243.754C91.7143 183.962 154.318 100.591 208.174 57.542" stroke="white" stroke-width="0.5" stroke-miterlimit="10"/>
<path d="M142.684 281.193C166.05 221.401 195.37 121.269 208.17 57.542" stroke="white" stroke-width="0.5" stroke-miterlimit="10"/>
<path d="M225.365 288.643C248.732 228.85 241.032 125.382 208.172 57.542C289.754 47.3405 336.949 87.5442 313.582 147.337C346.442 215.176 306.947 278.441 225.365 288.643Z" stroke="white" stroke-width="0.5" stroke-miterlimit="10"/>
<path d="M238.598 217.229C309.041 208.422 343.147 153.794 314.773 95.2144" stroke="white" stroke-width="0.5" stroke-miterlimit="10"/>
<path d="M232.43 134.32C273.604 129.173 293.541 97.2412 276.954 62.999" stroke="white" stroke-width="0.5" stroke-miterlimit="10"/>
<path d="M291.801 262.55C315.168 202.758 277.724 110.974 208.176 57.542" stroke="white" stroke-width="0.5" stroke-miterlimit="10"/>
<path d="M323.449 211.857C346.815 152.064 295.202 82.9777 208.176 57.542" stroke="white" stroke-width="0.5" stroke-miterlimit="10"/>
<path d="M313.584 147.337C336.951 87.5443 289.755 47.3449 208.174 57.5421C175.314 -10.2978 129.734 -16.8232 106.367 42.9692C187.949 32.7678 280.724 79.4925 313.584 147.337Z" stroke="white" stroke-width="0.5" stroke-miterlimit="10"/>
<path d="M314.767 95.2146C286.393 36.6348 206.287 -3.70871 135.844 5.09776" stroke="white" stroke-width="0.5" stroke-miterlimit="10"/>
<path d="M276.951 62.9989C260.364 28.7567 213.542 5.17385 172.363 10.3254" stroke="white" stroke-width="0.5" stroke-miterlimit="10"/>
<path d="M263.385 87.858C286.752 28.0656 262.033 14.4933 208.172 57.542" stroke="white" stroke-width="0.5" stroke-miterlimit="10"/>
<path d="M189.047 50.419C212.413 -9.37342 220.974 -6.18494 208.173 57.5422" stroke="white" stroke-width="0.5" stroke-miterlimit="10"/>
<path d="M106.37 42.9692C129.737 -16.8232 175.317 -10.2978 208.177 57.5421C126.595 67.7435 41.5153 124.483 18.1529 184.275C-14.7071 116.436 24.7885 53.1706 106.37 42.9692Z" stroke="white" stroke-width="0.5" stroke-miterlimit="10"/>
<path d="M135.846 5.09766C65.4025 13.9041 31.296 68.5322 59.67 127.112" stroke="white" stroke-width="0.5" stroke-miterlimit="10"/>
<path d="M172.371 10.3257C131.196 15.473 111.26 47.4044 127.847 81.6466" stroke="white" stroke-width="0.5" stroke-miterlimit="10"/>
<path d="M39.9336 69.0621C63.3002 9.26967 138.624 4.11384 208.172 57.542" stroke="white" stroke-width="0.5" stroke-miterlimit="10"/>
<path d="M8.28516 119.756C31.6518 59.9631 121.145 32.1106 208.175 57.5421" stroke="white" stroke-width="0.5" stroke-miterlimit="10"/>
<path d="M17.507 237.555C19.4913 241.549 22.3236 246.782 24.5793 250.631C26.3007 253.566 28.8193 257.335 30.74 260.142C32.8643 263.25 35.9425 267.223 38.3084 270.152C40.2927 272.612 43.0826 275.779 45.2365 278.09C47.471 280.49 50.5662 283.585 52.9491 285.836C55.1793 287.939 58.2109 290.691 60.6108 292.599C62.8495 294.376 65.7751 296.835 68.124 298.467C70.4348 300.07 73.4792 302.27 75.8366 303.81C78.1686 305.332 81.3019 307.324 83.7442 308.652C86.1398 309.953 89.2816 311.802 91.7493 312.964C94.1915 314.113 97.4182 315.711 99.8901 316.792C102.366 317.874 105.707 319.235 108.239 320.176C120.369 324.691 129.286 326.532 134.717 327.626C137.626 328.215 141.544 328.821 144.486 329.207C147.378 329.589 151.258 329.89 154.162 330.182C157.134 330.483 161.128 330.488 164.113 330.585C167.573 330.7 172.195 330.496 175.655 330.297C178.873 330.114 183.151 329.669 186.356 329.309L186.361 329.283C190.329 328.842 195.578 327.893 199.496 327.108C202.795 326.447 207.153 325.391 210.384 324.467C214.726 323.224 220.442 321.325 224.677 319.765C227.946 318.56 232.203 316.691 235.379 315.253C240.06 313.138 246.068 309.809 250.52 307.24C253.654 305.433 257.614 302.665 260.633 300.676C265.47 297.488 271.466 292.561 275.748 288.664C280.399 284.433 286.467 278.582 290.444 273.71C292.852 270.759 296.159 266.883 298.377 263.784C301.438 259.502 305.318 253.642 308.031 249.131C312.059 242.436 316.465 232.938 319.382 225.688C321.926 219.366 324.572 210.627 326.187 204.004C327.739 197.657 329.261 189.041 329.859 182.533C330.554 174.935 330.796 164.725 330.499 157.097C330.266 151.174 329.325 143.3 328.269 137.47C327.12 131.11 325.301 122.639 323.164 116.537C321.956 113.095 320.467 108.456 319.085 105.077C317.351 100.837 314.837 95.2569 312.793 91.1568C311.233 88.0235 308.96 83.9446 307.149 80.9554C305.119 77.6058 302.312 73.1877 299.992 70.0289C298.072 67.4129 295.485 63.9403 293.425 61.4345C291.258 58.7929 288.315 55.3119 285.92 52.8824C283.796 50.7285 281.048 47.7562 278.784 45.7507C276.566 43.7876 273.666 41.1079 271.389 39.2127C269.108 37.3131 265.958 34.9218 263.605 33.1198C260.086 30.4189 251.915 25.0596 247.985 22.9353C245.585 21.6379 242.447 19.785 239.98 18.6232C235.099 16.3252 228.531 13.3784 223.507 11.4195C220.976 10.4358 217.541 9.29525 214.951 8.48541C212.347 7.67133 208.828 6.75125 206.204 6.01349C203.482 5.25029 199.767 4.56766 197.007 3.96558C194.107 3.32958 190.181 2.7699 187.238 2.38406C184.347 2.00246 180.471 1.62934 177.563 1.40886C174.251 1.1587 169.816 1.01878 166.492 1.00182C163.363 0.98486 159.191 1.08662 156.07 1.29862C152.199 1.5615 147.043 2.06182 143.197 2.57486C139.89 3.01582 135.489 3.7239 132.237 4.4659C127.921 5.44533 122.184 6.86149 117.935 8.09957C114.624 9.06629 110.27 10.5588 107.056 11.8096C102.354 13.6412 96.2013 16.393 91.6602 18.5936C88.4421 20.1539 84.342 22.6088 81.2129 24.3388C76.2182 27.099 69.9472 31.4747 65.4825 35.032C59.6695 39.6663 52.0332 46.0772 47.0258 51.5722C42.7392 56.2786 36.9897 62.5708 33.3561 67.7945C30.3499 72.115 26.4237 77.9408 23.7016 82.4479C21.6876 85.7847 19.3175 90.4148 17.5876 93.9043C14.5517 100.027 11.13 108.515 9.0821 115.036C6.74586 122.465 4.24006 132.59 3.01894 140.281C2.00134 146.684 1.0007 155.325 1.05582 161.808C1.0855 165.611 0.945544 170.695 1.22962 174.49C1.67058 180.4 2.58643 188.257 3.45986 194.117C4.40962 200.511 6.57628 208.897 8.56483 215.049C10.7993 221.961 14.5771 230.907 17.507 237.555ZM17.507 237.555C10.4135 222.915 10.1421 204.738 18.143 184.263M17.507 237.555C10.4135 222.91 10.1421 204.738 18.143 184.263M18.143 184.263C41.5096 124.47 126.585 67.7308 208.167 57.5294C126.585 67.7308 41.5053 124.47 18.143 184.263Z" stroke="white" stroke-width="0.5" stroke-miterlimit="10"/>
</g>
<path d="M17.507 237.555C19.4913 241.549 22.3236 246.782 24.5793 250.631C26.3007 253.566 28.8193 257.335 30.74 260.142C32.8643 263.25 35.9425 267.223 38.3084 270.152C40.2927 272.612 43.0826 275.779 45.2365 278.09C47.471 280.49 50.5662 283.585 52.9491 285.836C55.1793 287.939 58.2109 290.691 60.6108 292.599C62.8495 294.376 65.7751 296.835 68.124 298.467C70.4348 300.07 73.4792 302.27 75.8366 303.81C78.1686 305.332 81.3019 307.324 83.7442 308.652C86.1398 309.953 89.2816 311.802 91.7493 312.964C94.1915 314.113 97.4182 315.711 99.8901 316.792C102.366 317.874 105.707 319.235 108.239 320.176C120.369 324.691 129.286 326.532 134.717 327.626C137.626 328.215 141.544 328.821 144.486 329.207C147.378 329.589 151.258 329.89 154.162 330.182C157.134 330.483 161.128 330.488 164.113 330.585C167.573 330.7 172.195 330.496 175.655 330.297C178.873 330.114 183.151 329.669 186.356 329.309L186.361 329.283C190.329 328.842 195.578 327.893 199.496 327.108C202.795 326.447 207.153 325.391 210.384 324.467C214.726 323.224 220.442 321.325 224.677 319.765C227.946 318.56 232.203 316.691 235.379 315.253C240.06 313.138 246.068 309.809 250.52 307.24C253.654 305.433 257.614 302.665 260.633 300.676C265.47 297.488 271.466 292.561 275.748 288.664C280.399 284.433 286.467 278.582 290.444 273.71C292.852 270.759 296.159 266.883 298.377 263.784C301.438 259.502 305.318 253.642 308.031 249.131C312.059 242.436 316.465 232.938 319.382 225.688C321.926 219.366 324.572 210.627 326.187 204.004C327.739 197.657 329.261 189.041 329.859 182.533C330.554 174.935 330.796 164.725 330.499 157.097C330.266 151.174 329.325 143.3 328.269 137.47C327.12 131.11 325.301 122.639 323.164 116.537C321.956 113.095 320.467 108.456 319.085 105.077C317.351 100.837 314.837 95.2569 312.793 91.1568C311.233 88.0235 308.96 83.9446 307.149 80.9554C305.119 77.6058 302.312 73.1877 299.992 70.0289C298.072 67.4129 295.485 63.9403 293.425 61.4345C291.258 58.7929 288.315 55.3119 285.92 52.8824C283.796 50.7285 281.048 47.7562 278.784 45.7507C276.566 43.7876 273.666 41.1079 271.389 39.2127C269.108 37.3131 265.958 34.9218 263.605 33.1198C260.086 30.4189 251.915 25.0596 247.985 22.9353C245.585 21.6379 242.447 19.785 239.98 18.6232C235.099 16.3252 228.531 13.3784 223.507 11.4195C220.976 10.4358 217.541 9.29525 214.951 8.48541C212.347 7.67133 208.828 6.75125 206.204 6.01349C203.482 5.25029 199.767 4.56766 197.007 3.96558C194.107 3.32958 190.181 2.7699 187.238 2.38406C184.347 2.00246 180.471 1.62934 177.563 1.40886C174.251 1.1587 169.816 1.01878 166.492 1.00182C163.363 0.98486 159.191 1.08662 156.07 1.29862C152.199 1.5615 147.043 2.06182 143.197 2.57486C139.89 3.01582 135.489 3.7239 132.237 4.4659C127.921 5.44533 122.184 6.86149 117.935 8.09957C114.624 9.06629 110.27 10.5588 107.056 11.8096C102.354 13.6412 96.2013 16.393 91.6602 18.5936C88.4421 20.1539 84.342 22.6088 81.2129 24.3388C76.2182 27.099 69.9472 31.4747 65.4825 35.032C59.6695 39.6663 52.0332 46.0772 47.0258 51.5722C42.7392 56.2786 36.9897 62.5708 33.3561 67.7945C30.3499 72.115 26.4237 77.9408 23.7016 82.4479C21.6876 85.7847 19.3175 90.4148 17.5876 93.9043C14.5517 100.027 11.13 108.515 9.0821 115.036C6.74586 122.465 4.24006 132.59 3.01894 140.281C2.00134 146.684 1.0007 155.325 1.05582 161.808C1.0855 165.611 0.945544 170.695 1.22962 174.49C1.67058 180.4 2.58643 188.257 3.45986 194.117C4.40962 200.511 6.57628 208.897 8.56483 215.049C10.7993 221.961 14.5771 230.907 17.507 237.555ZM17.507 237.555C10.4135 222.915 10.1421 204.738 18.143 184.263M17.507 237.555C10.4135 222.91 10.1421 204.738 18.143 184.263M18.143 184.263C41.5096 124.47 126.585 67.7308 208.167 57.5294C126.585 67.7308 41.5053 124.47 18.143 184.263Z" stroke="white" stroke-width="0.5" stroke-miterlimit="10"/>
</svg>
