<svg width="156" height="156" viewBox="0 0 156 156" fill="none" xmlns="http://www.w3.org/2000/svg">
<g opacity="0.3">
<path d="M77.8061 155.612C34.9042 155.612 0 120.708 0 77.8061C0 34.9043 34.9042 0 77.8061 0C120.708 0 155.612 34.9043 155.612 77.8061C155.612 120.708 120.708 155.612 77.8061 155.612ZM77.8061 1.2851C35.6135 1.2851 1.28693 35.6117 1.28693 77.8061C1.28693 120 35.6135 154.327 77.8061 154.327C119.999 154.327 154.325 120 154.325 77.8061C154.325 35.6117 119.999 1.2851 77.8061 1.2851Z" fill="white"/>
<path d="M77.8061 136.732C34.9042 136.732 0 110.202 0 77.5923C0 44.9822 34.9042 18.4521 77.8061 18.4521C120.708 18.4521 155.612 44.9822 155.612 77.5923C155.612 110.202 120.708 136.732 77.8061 136.732ZM77.8061 19.7373C35.6135 19.7373 1.28693 45.6897 1.28693 77.5923C1.28693 109.495 35.6135 135.447 77.8061 135.447C119.999 135.447 154.325 109.495 154.325 77.5923C154.325 45.6897 119.999 19.7373 77.8061 19.7373Z" fill="white"/>
<path d="M77.8061 116.591C34.9042 116.591 0 99.2888 0 78.0216C0 56.7544 34.9042 39.4521 77.8061 39.4521C120.708 39.4521 155.612 56.7544 155.612 78.0216C155.612 99.2888 120.708 116.591 77.8061 116.591ZM77.8061 40.7373C35.6135 40.7373 1.28693 57.4636 1.28693 78.0216C1.28693 98.5795 35.6135 115.306 77.8061 115.306C119.999 115.306 154.325 98.5795 154.325 78.0216C154.325 57.4636 119.999 40.7373 77.8061 40.7373Z" fill="white"/>
<path d="M77.8061 155.612C34.9042 155.612 0 120.708 0 77.8061C0 34.9043 34.9042 0 77.8061 0C120.708 0 155.612 34.9043 155.612 77.8061C155.612 120.708 120.708 155.612 77.8061 155.612ZM77.8061 1.2851C35.6135 1.2851 1.28693 35.6117 1.28693 77.8061C1.28693 120 35.6135 154.327 77.8061 154.327C119.999 154.327 154.325 120 154.325 77.8061C154.325 35.6117 119.999 1.2851 77.8061 1.2851Z" fill="white"/>
<path d="M77.9642 116.548C56.9511 116.548 39.8555 99.4519 39.8555 78.4388C39.8555 57.4257 56.9511 40.3301 77.9642 40.3301C98.9773 40.3301 116.073 57.4257 116.073 78.4388C116.073 99.4519 98.9773 116.548 77.9642 116.548ZM77.9642 41.6152C57.6604 41.6152 41.1406 58.135 41.1406 78.4388C41.1406 98.7427 57.6604 115.262 77.9642 115.262C98.2681 115.262 114.788 98.7427 114.788 78.4388C114.788 58.135 98.2681 41.6152 77.9642 41.6152Z" fill="white"/>
<path d="M77.5933 155.612C44.9832 155.612 18.4531 120.708 18.4531 77.8061C18.4531 34.9043 44.9832 0 77.5933 0C110.203 0 136.733 34.9043 136.733 77.8061C136.733 120.708 110.203 155.612 77.5933 155.612ZM77.5933 1.2851C45.6925 1.2851 19.7382 35.6117 19.7382 77.8061C19.7382 120 45.6925 154.327 77.5933 154.327C109.494 154.327 135.448 120 135.448 77.8061C135.448 35.6117 109.496 1.2851 77.5933 1.2851Z" fill="white"/>
<path d="M78.0186 155.612C56.7514 155.612 39.4492 120.708 39.4492 77.8061C39.4492 34.9043 56.7514 0 78.0186 0C99.2858 0 116.588 34.9043 116.588 77.8061C116.588 120.708 99.2858 155.612 78.0186 155.612ZM78.0186 1.2851C57.4607 1.2851 40.7343 35.6117 40.7343 77.8061C40.7343 120 57.4589 154.327 78.0186 154.327C98.5784 154.327 115.303 120 115.303 77.8061C115.303 35.6117 98.5784 1.2851 78.0186 1.2851Z" fill="white"/>
</g>
</svg>
