<svg width="17" height="17" viewBox="0 0 17 17" fill="none" xmlns="http://www.w3.org/2000/svg">
<path d="M15.3344 14.0781C14.323 12.3297 12.7644 11.0759 10.9456 10.4816C11.8453 9.94597 12.5443 9.12986 12.9352 8.15854C13.3262 7.18723 13.3875 6.11443 13.1098 5.10489C12.832 4.09535 12.2306 3.2049 11.3978 2.57028C10.565 1.93565 9.54688 1.59195 8.49983 1.59195C7.45278 1.59195 6.43468 1.93565 5.60188 2.57028C4.76907 3.2049 4.16761 4.09535 3.88987 5.10489C3.61212 6.11443 3.67344 7.18723 4.06441 8.15854C4.45539 9.12986 5.15439 9.94597 6.05409 10.4816C4.23522 11.0752 2.67666 12.329 1.6653 14.0781C1.62821 14.1386 1.60361 14.2059 1.59295 14.276C1.58229 14.3462 1.58578 14.4177 1.60322 14.4865C1.62067 14.5553 1.65171 14.6198 1.69451 14.6764C1.73731 14.733 1.79102 14.7804 1.85245 14.8159C1.91388 14.8514 1.98179 14.8742 2.05219 14.883C2.12258 14.8918 2.19402 14.8864 2.2623 14.8672C2.33058 14.8479 2.39432 14.8152 2.44975 14.7709C2.50517 14.7267 2.55117 14.6717 2.58502 14.6094C3.83612 12.4472 6.04745 11.1563 8.49983 11.1563C10.9522 11.1563 13.1635 12.4472 14.4146 14.6094C14.4485 14.6717 14.4945 14.7267 14.5499 14.7709C14.6053 14.8152 14.6691 14.8479 14.7374 14.8672C14.8056 14.8864 14.8771 14.8918 14.9475 14.883C15.0179 14.8742 15.0858 14.8514 15.1472 14.8159C15.2086 14.7804 15.2623 14.733 15.3051 14.6764C15.348 14.6198 15.379 14.5553 15.3964 14.4865C15.4139 14.4177 15.4174 14.3462 15.4067 14.276C15.396 14.2059 15.3714 14.1386 15.3344 14.0781ZM4.78108 6.37501C4.78108 5.63951 4.99918 4.92052 5.4078 4.30898C5.81642 3.69743 6.39721 3.22079 7.07672 2.93933C7.75624 2.65787 8.50395 2.58422 9.22532 2.72771C9.94669 2.8712 10.6093 3.22538 11.1294 3.74545C11.6495 4.26553 12.0036 4.92815 12.1471 5.64951C12.2906 6.37088 12.217 7.1186 11.9355 7.79811C11.654 8.47762 11.1774 9.05841 10.5659 9.46703C9.95431 9.87566 9.23533 10.0938 8.49983 10.0938C7.51388 10.0927 6.56861 9.70057 5.87144 9.0034C5.17427 8.30622 4.78213 7.36096 4.78108 6.37501Z" fill="white"/>
</svg>
